STARTFONT 2.1
COMMENT
COMMENT Converted from OpenType font "Q:\font stuff\winfont\Nanosecond Thin BRK.ttf" by "otf2bdf 3.0".
COMMENT
FONT -FreeType-Nanosecond Thin BRK-Medium-R-Normal--179-1800-72-72-P-597-ISO10646-1
SIZE 180 72 72
FONTBOUNDINGBOX 127 180 0 -28
STARTPROPERTIES 19
FOUNDRY "FreeType"
FAMILY_NAME "Nanosecond Thin BRK"
WEIGHT_NAME "Medium"
SLANT "R"
SETWIDTH_NAME "Normal"
ADD_STYLE_NAME ""
PIXEL_SIZE 179
POINT_SIZE 1800
RESOLUTION_X 72
RESOLUTION_Y 72
SPACING "P"
AVERAGE_WIDTH 597
CHARSET_REGISTRY "ISO10646"
CHARSET_ENCODING "1"
FONT_ASCENT 151
FONT_DESCENT 28
COPYRIGHT "ÆNIGMA FONTS   [e-mail]  kentpw@norwich.net"
_OTF_FONTFILE "Q:\font stuff\winfont\Nanosecond Thin BRK.ttf"
_OTF_PSNAME "NanosecondThinBRK"
ENDPROPERTIES
CHARS 99
STARTCHAR 0020
ENCODING 32
SWIDTH 416 0
DWIDTH 75 0
BBX 0 0 0 0
BITMAP
ENDCHAR
STARTCHAR 0021
ENCODING 33
SWIDTH 100 0
DWIDTH 18 0
BBX 9 123 5 0
BITMAP
3E00
7F00
FF00
FF80
FF80
FF80
FF80
FF80
FF80
FF80
FF80
FF80
FF80
FF80
FF80
FF80
FF80
FF80
FF80
FF80
FF80
FF80
FF80
FF80
FF80
FF80
FF80
FF80
FF80
FF80
FF80
FF80
FF80
FF80
FF80
FF80
FF80
FF80
FF80
FF80
FF80
FF80
FF80
FF80
FF80
FF80
FF80
FF80
FF80
FF80
FF80
FF80
FF80
FF80
FF80
FF80
FF80
FF80
FF80
FF80
FF80
FF80
FF80
FF80
FF80
FF80
FF80
FF80
FF80
FF80
FF80
FF80
FF80
FF80
FF80
FF80
FF80
FF80
FF80
FF80
FF80
FF80
FF80
FF80
FF80
FF80
FF80
FF80
FF80
FF80
FF80
FF80
FF00
7F00
1C00
0000
0000
0000
0000
0000
0000
0000
0000
0000
0000
0000
0000
0000
0000
0000
0000
0000
0000
0800
3E00
7F00
FF80
FF80
FF80
FF80
FF80
7F00
3E00
ENDCHAR
STARTCHAR 0022
ENCODING 34
SWIDTH 261 0
DWIDTH 47 0
BBX 38 38 5 85
BITMAP
3E000001E0
7F000007F8
FF000007F8
FF80000FFC
FF80000FFC
FF80000FFC
FF80000FFC
FF80000FFC
FF80000FFC
FF80000FFC
FF80000FFC
FF80000FFC
FF80000FFC
FF80000FFC
FF80000FFC
FF80000FFC
FF80000FFC
FF80000FFC
FF80000FFC
FF80000FFC
FF80000FFC
FF80000FFC
FF80000FFC
FF80000FFC
FF80000FFC
FF80000FFC
FF80000FFC
FF80000FFC
FF80000FFC
FF80000FFC
FF80000FFC
FF80000FFC
FF80000FFC
FF80000FFC
FF80000FFC
FF80000FFC
7F000007F8
3E000001F0
ENDCHAR
STARTCHAR 0023
ENCODING 35
SWIDTH 477 0
DWIDTH 86 0
BBX 76 123 5 0
BITMAP
000003C000003C000000
00000FF00000FF000000
00000FF00000FF000000
00001FF80001FF800000
00001FF80001FF800000
00001FF80001FF800000
00001FF80001FF800000
00001FF80001FF800000
00001FF80001FF800000
00001FF80001FF800000
00001FF80001FF800000
00001FF80001FF800000
00001FF80001FF800000
00001FF80001FF800000
00001FF80001FF800000
00001FF80001FF800000
00001FF80001FF800000
00001FF80001FF800000
00001FF80001FF800000
00001FF80001FF800000
00001FF80001FF800000
00001FF80001FF800000
00001FF80001FF800000
00001FF80001FF800000
00001FF80001FF800000
00001FF80001FF800000
00003FF80001FF800000
00003FFC0003FFC00000
00007FFE0007FFE00000
3FFFFFFFFFFFFFFFFFC0
7FFFFFFFFFFFFFFFFFE0
FFFFFFFFFFFFFFFFFFF0
FFFFFFFFFFFFFFFFFFF0
FFFFFFFFFFFFFFFFFFF0
FFFFFFFFFFFFFFFFFFF0
FFFFFFFFFFFFFFFFFFF0
7FFFFFFFFFFFFFFFFFF0
3FFFFFFFFFFFFFFFFFC0
00007FFE0007FFE00000
00003FFC0003FFC00000
00001FF80001FF800000
00001FF80001FF800000
00001FF80001FF800000
00001FF80001FF800000
00001FF80001FF800000
00001FF80001FF800000
00001FF80001FF800000
00001FF80001FF800000
00001FF80001FF800000
00001FF80001FF800000
00001FF80001FF800000
00001FF80001FF800000
00001FF80001FF800000
00001FF80001FF800000
00001FF80001FF800000
00001FF80001FF800000
00001FF80001FF800000
00001FF80001FF800000
00001FF80001FF800000
00001FF80001FF800000
00001FF80001FF800000
00001FF80001FF800000
00001FF80001FF800000
00001FF80001FF800000
00001FF80001FF800000
00001FF80001FF800000
00001FF80001FF800000
00001FF80001FF800000
00001FF80001FF800000
00001FF80001FF800000
00001FF80001FF800000
00001FF80001FF800000
00001FF80001FF800000
00001FF80001FF800000
00001FF80001FF800000
00001FF80001FF800000
00001FF80001FF800000
00001FF80001FF800000
00001FF80001FF800000
00001FF80001FF800000
00001FF80001FF800000
00001FF80001FF800000
00001FF80001FF800000
00003FFC0003FFC00000
00007FFE0007FFE00000
3FFFFFFFFFFFFFFFFFC0
FFFFFFFFFFFFFFFFFFE0
FFFFFFFFFFFFFFFFFFF0
FFFFFFFFFFFFFFFFFFF0
FFFFFFFFFFFFFFFFFFF0
FFFFFFFFFFFFFFFFFFF0
FFFFFFFFFFFFFFFFFFF0
7FFFFFFFFFFFFFFFFFE0
3FFFFFFFFFFFFFFFFFC0
00007FFE0007FFE00000
00003FFC0003FFC00000
00001FF80001FF800000
00001FF80001FF800000
00001FF80001FF800000
00001FF80001FF800000
00001FF80001FF800000
00001FF80001FF800000
00001FF80001FF800000
00001FF80001FF800000
00001FF80001FF800000
00001FF80001FF800000
00001FF80001FF800000
00001FF80001FF800000
00001FF80001FF800000
00001FF80001FF800000
00001FF80001FF800000
00001FF80001FF800000
00001FF80001FF800000
00001FF80001FF800000
00001FF80001FF800000
00001FF80001FF800000
00001FF80001FF800000
00001FF80001FF800000
00001FF80001FF800000
00001FF80001FF800000
00001FF00000FF000000
00000FF00000FF000000
000003C000003C000000
ENDCHAR
STARTCHAR 0024
ENCODING 36
SWIDTH 416 0
DWIDTH 75 0
BBX 67 180 4 -28
BITMAP
00000000F000000000
00000003FC00000000
00000003FC00000000
00000007FE00000000
00000007FE00000000
00000007FE00000000
00000007FE00000000
00000007FE00000000
00000007FE00000000
00000007FE00000000
00000007FE00000000
00000007FE00000000
00000007FE00000000
00000007FE00000000
00000007FE00000000
00000007FE00000000
00000007FE00000000
00000007FE00000000
00000007FE00000000
00000007FE00000000
00000007FE00000000
00000007FE00000000
00000007FE00000000
00000007FE00000000
00000007FE00000000
00000007FE00000000
0000000FFE00000000
0000000FFF00000000
0000001FFF80000000
0000007FFFE0000000
000007FFFFFC000000
00001FFFFFFF800000
00007FFFFFFFE00000
0001FFFFFFFFF00000
0003FFFFFFFFFC0000
000FFFFFBFFFFE0000
001FFFFF1FFFFF0000
003FFFFC07FFFF8000
007FFFF001FFFFC000
00FFFF80003FFFE000
01FFFC000007FFF000
01FFF0000003FFF800
03FFE0000000FFF800
07FFC00000007FFC00
07FF800000003FFE00
0FFF000000001FFE00
0FFE000000000FFE00
1FFC0000000007FF00
1FFC0000000007FF00
3FF80000000003FF80
3FF80000000003FF80
3FF00000000001FF80
7FF00000000001FFC0
7FE00000000000FFC0
7FE00000000000FFC0
7FE00000000000FFC0
FFE00000000000FFE0
FFC000000000007FE0
FFC000000000007FE0
FFC000000000007FE0
FFC000000000007FE0
FFC000000000007FE0
FFC000000000007FE0
FFC000000000007FE0
FFC000000000003FE0
FFC000000000001FC0
FFC000000000000F00
FFE000000000000000
7FE000000000000000
7FE000000000000000
7FE000000000000000
7FF000000000000000
3FF000000000000000
3FF800000000000000
3FF800000000000000
1FFC00000000000000
1FFC00000000000000
0FFE00000000000000
0FFF00000000000000
07FF80000000000000
07FFC0000000000000
03FFE0000000000000
01FFF8000000000000
01FFFC000000000000
00FFFF800000000000
007FFFF00000000000
003FFFFFFF00000000
001FFFFFFFF8000000
000FFFFFFFFF000000
0003FFFFFFFFC00000
0001FFFFFFFFF00000
00007FFFFFFFF80000
00001FFFFFFFFE0000
000003FFFFFFFF0000
0000001FFFFFFF8000
0000000001FFFFC000
00000000001FFFE000
000000000007FFF000
000000000001FFF000
000000000000FFF800
0000000000007FFC00
0000000000001FFC00
0000000000001FFE00
0000000000000FFE00
00000000000007FF00
00000000000003FF00
00000000000003FF80
00000000000001FF80
00000000000001FF80
00000000000001FFC0
00000000000000FFC0
00000000000000FFC0
00000000000000FFC0
000000000000007FE0
3E0000000000007FE0
7F8000000000007FE0
FF8000000000007FE0
FFC000000000007FE0
FFC000000000007FE0
FFC000000000007FE0
FFC000000000007FE0
FFC000000000007FE0
FFC000000000007FE0
FFC000000000007FE0
7FE00000000000FFE0
7FE00000000000FFC0
7FE00000000000FFC0
7FF00000000001FFC0
3FF00000000001FFC0
3FF00000000001FF80
3FF80000000003FF80
1FF80000000003FF80
1FFC0000000007FF00
0FFE000000000FFF00
0FFE000000001FFE00
07FF000000001FFE00
07FF800000003FFC00
03FFC00000007FFC00
03FFF0000001FFF800
01FFF8000003FFF000
00FFFE00000FFFE000
007FFFE000FFFFE000
003FFFFC03FFFFC000
001FFFFF0FFFFF8000
000FFFFFBFFFFF0000
0007FFFFFFFFFC0000
0001FFFFFFFFF80000
0000FFFFFFFFF00000
00003FFFFFFFC00000
000007FFFFFE000000
000000FFFFF0000000
0000003FFF80000000
0000000FFF00000000
0000000FFF00000000
00000007FE00000000
00000007FE00000000
00000007FE00000000
00000007FE00000000
00000007FE00000000
00000007FE00000000
00000007FE00000000
00000007FE00000000
00000007FE00000000
00000007FE00000000
00000007FE00000000
00000007FE00000000
00000007FE00000000
00000007FE00000000
00000007FE00000000
00000007FE00000000
00000007FE00000000
00000007FE00000000
00000007FE00000000
00000007FE00000000
00000007FE00000000
00000007FE00000000
00000007FE00000000
00000007FC00000000
00000003FC00000000
00000000F000000000
ENDCHAR
STARTCHAR 0025
ENCODING 37
SWIDTH 416 0
DWIDTH 75 0
BBX 67 123 4 0
BITMAP
0001FF000000000F00
000FFFF00000003FC0
003FFFFC0000003FC0
00FFFFFE0000007FE0
01FFFFFF0000007FE0
03FFFFFFC000007FE0
07FFFFFFC000007FE0
0FFFFFFFE000007FE0
1FFFFFFFF000007FE0
1FFFFFFFF80000FFE0
3FFF81FFF80000FFC0
3FFC007FFC0000FFC0
7FF8003FFC0000FFC0
7FF0001FFC0001FFC0
7FE0000FFE0001FFC0
FFE0000FFE0001FF80
FFC00007FE0003FF80
FFC00007FE0003FF80
FFC00007FE0007FF00
FFC00007FE0007FF00
FFC00007FE0007FE00
FFC00007FE000FFE00
FFC00007FE000FFE00
FFE0000FFE001FFC00
7FE0000FFC001FFC00
7FF0001FFC003FF800
3FF8003FFC003FF800
3FFC007FF8007FF000
1FFF01FFF8007FF000
1FFFFFFFF000FFE000
0FFFFFFFE001FFE000
07FFFFFFC001FFC000
03FFFFFFC003FFC000
01FFFFFF0003FF8000
00FFFFFE0007FF8000
003FFFFC000FFF0000
000FFFF0000FFE0000
0001FF00001FFE0000
00000000001FFC0000
00000000003FFC0000
00000000007FF80000
00000000007FF80000
0000000000FFF00000
0000000000FFE00000
0000000001FFE00000
0000000003FFC00000
0000000003FF800000
0000000007FF800000
000000000FFF000000
000000000FFE000000
000000001FFE000000
000000003FFC000000
000000003FFC000000
000000007FF8000000
00000000FFF0000000
00000000FFF0000000
00000001FFE0000000
00000003FFC0000000
00000003FFC0000000
00000007FF80000000
0000000FFF00000000
0000000FFF00000000
0000001FFE00000000
0000003FFC00000000
0000003FFC00000000
0000007FF800000000
000000FFF000000000
000000FFF000000000
000001FFE000000000
000003FFC000000000
000003FFC000000000
000007FF8000000000
00000FFF0000000000
00000FFF0000000000
00001FFE0000000000
00003FFC0000000000
00003FFC0000000000
00007FF80000000000
0000FFF00000000000
0000FFF00000000000
0001FFE00000000000
0001FFC00000000000
0003FFC00000000000
0007FF800000000000
0007FF800000000000
000FFF00000FF80000
000FFE00007FFF0000
001FFE0001FFFFC000
001FFC0007FFFFE000
003FFC000FFFFFF800
007FF8001FFFFFFC00
007FF0003FFFFFFE00
00FFF0007FFFFFFE00
00FFE000FFFFFFFF00
01FFE000FFF81FFF80
01FFC001FFE007FF80
03FF8001FFC003FFC0
03FF8003FF8001FFC0
07FF0003FF0000FFC0
07FF0007FF0000FFE0
0FFE0007FE0000FFE0
0FFE0007FE00007FE0
0FFC0007FE00007FE0
1FFC0007FE00007FE0
1FFC0007FE00007FE0
3FF80007FE00007FE0
3FF80007FE00007FE0
3FF00007FF0000FFE0
7FF00007FF0000FFE0
7FF00003FF8001FFC0
7FE00003FFC003FFC0
7FE00003FFE007FFC0
7FE00001FFF81FFF80
FFE00001FFFFFFFF80
FFC00000FFFFFFFF00
FFC000007FFFFFFE00
FFC000003FFFFFFE00
FFC000003FFFFFFC00
FFC000000FFFFFF800
FFC0000007FFFFE000
FF80000003FFFFC000
7F80000000FFFF0000
1E000000000FF80000
ENDCHAR
STARTCHAR 0026
ENCODING 38
SWIDTH 416 0
DWIDTH 75 0
BBX 67 180 4 -28
BITMAP
00000000F000000000
00000003FC00000000
00000003FC00000000
00000007FE00000000
00000007FE00000000
00000007FE00000000
00000007FE00000000
00000007FE00000000
00000007FE00000000
00000007FE00000000
00000007FE00000000
00000007FE00000000
00000007FE00000000
00000007FE00000000
00000007FE00000000
00000007FE00000000
00000007FE00000000
00000007FE00000000
00000007FE00000000
00000007FE00000000
00000007FE00000000
00000007FE00000000
00000007FE00000000
00000007FE00000000
00000007FE00000000
00000007FE00000000
0000000FFE00000000
0000000FFF00000000
0000001FFF80000000
000000FFFFE0000000
000007FFFFFC000000
00001FFFFFFF800000
00007FFFFFFFE00000
0001FFFFFFFFF00000
0007FFFFFFFFFC0000
000FFFFFBFFFFE0000
001FFFFF1FFFFF0000
003FFFFC07FFFF8000
007FFFF001FFFFC000
00FFFF80003FFFE000
01FFFC000007FFF000
03FFF0000003FFF800
03FFE0000000FFF800
07FFC00000007FFC00
07FF800000003FFE00
0FFF000000001FFE00
0FFE000000000FFE00
1FFC0000000007FF00
1FFC0000000007FF00
3FF80000000003FF80
3FF80000000003FF80
3FF00000000001FF80
7FF00000000001FFC0
7FE00000000000FFC0
7FE00000000000FFC0
7FE00000000000FFC0
FFE00000000000FFE0
FFC000000000007FE0
FFC000000000007FE0
FFC000000000007FE0
FFC000000000007FE0
FFC000000000007FE0
FFC000000000007FE0
FFC000000000007FE0
FFC000000000003FE0
FFC000000000001FC0
FFC000000000000F00
FFE000000000000000
7FE000000000000000
7FE000000000000000
7FE000000000000000
7FF000000000000000
3FF000000000000000
3FF800000000000000
3FF800000000000000
1FFC00000000000000
1FFC00000000000000
0FFE00000000000000
0FFF00000000000000
07FF80000000000000
07FFC0000000000000
03FFE0000000000000
01FFF8000000000000
00FFFE000000000000
00FFFF800000000000
007FFFF80000000000
003FFFFFF000000000
001FFFFFFC00000000
0007FFFFFC00000000
0003FFFFFE00000000
0001FFFFFE00000000
0007FFFFFE00000000
000FFFFFFC00000000
001FFFFFFC00000000
007FFFFFF800000000
00FFFFF80000000000
01FFFF800000000000
01FFFE000000000000
03FFF8000000000000
07FFE0000000000000
0FFFC0000000000000
0FFF80000000000000
1FFF00000000000000
1FFE00000000000000
3FFC00000000000000
3FF800000000000000
3FF800000000000000
7FF000000000000000
7FF000000000000000
7FE000000000000000
7FE000000000000000
7FE000000000000000
FFE000000000000000
FFC000000000000000
FFC000000000001F00
FFC000000000003FC0
FFC000000000007FC0
FFC000000000007FE0
FFC000000000007FE0
FFC000000000007FE0
FFC000000000007FE0
FFC000000000007FE0
FFC000000000007FE0
FFC000000000007FE0
FFC00000000000FFE0
7FE00000000000FFC0
7FE00000000000FFC0
7FE00000000000FFC0
7FF00000000001FFC0
7FF00000000001FFC0
3FF00000000003FF80
3FF80000000003FF80
1FFC0000000007FF80
1FFC0000000007FF00
1FFE000000000FFF00
0FFF000000001FFE00
07FF800000003FFE00
07FFE0000000FFFC00
03FFF0000001FFF800
01FFFC000007FFF800
00FFFF80003FFFF000
007FFFF001FFFFE000
003FFFFC07FFFFC000
001FFFFF1FFFFF8000
000FFFFFBFFFFE0000
0007FFFFFFFFFC0000
0001FFFFFFFFF00000
00007FFFFFFFE00000
00001FFFFFFF800000
000003FFFFFC000000
0000007FFFE0000000
0000001FFF80000000
0000000FFF00000000
0000000FFF00000000
00000007FE00000000
00000007FE00000000
00000007FE00000000
00000007FE00000000
00000007FE00000000
00000007FE00000000
00000007FE00000000
00000007FE00000000
00000007FE00000000
00000007FE00000000
00000007FE00000000
00000007FE00000000
00000007FE00000000
00000007FE00000000
00000007FE00000000
00000007FE00000000
00000007FE00000000
00000007FE00000000
00000007FE00000000
00000007FE00000000
00000007FE00000000
00000007FE00000000
00000007FE00000000
00000007FC00000000
00000003FC00000000
00000000F000000000
ENDCHAR
STARTCHAR 0027
ENCODING 39
SWIDTH 100 0
DWIDTH 18 0
BBX 9 38 5 85
BITMAP
3E00
7F00
FF00
FF80
FF80
FF80
FF80
FF80
FF80
FF80
FF80
FF80
FF80
FF80
FF80
FF80
FF80
FF80
FF80
FF80
FF80
FF80
FF80
FF80
FF80
FF80
FF80
FF80
FF80
FF80
FF80
FF80
FF80
FF80
FF80
FF80
7F00
3E00
ENDCHAR
STARTCHAR 0028
ENCODING 40
SWIDTH 261 0
DWIDTH 47 0
BBX 37 123 5 0
BITMAP
0000001FE0
000003FFF0
00001FFFF8
00007FFFF8
0001FFFFF8
0003FFFFF8
000FFFFFF8
001FFFFFF8
003FFFFFF0
007FFFFFE0
00FFFFE000
01FFFE0000
03FFF80000
07FFE00000
07FFC00000
0FFF000000
0FFE000000
1FFC000000
1FFC000000
3FF8000000
3FF0000000
3FF0000000
7FE0000000
7FE0000000
7FC0000000
7FC0000000
FFC0000000
FFC0000000
FF80000000
FF80000000
FF80000000
FF80000000
FF80000000
FF80000000
FF80000000
FF80000000
FF80000000
FF80000000
FF80000000
FF80000000
FF80000000
FF80000000
FF80000000
FF80000000
FF80000000
FF80000000
FF80000000
FF80000000
FF80000000
FF80000000
FF80000000
FF80000000
FF80000000
FF80000000
FF80000000
FF80000000
FF80000000
FF80000000
FF80000000
FF80000000
FF80000000
FF80000000
FF80000000
FF80000000
FF80000000
FF80000000
FF80000000
FF80000000
FF80000000
FF80000000
FF80000000
FF80000000
FF80000000
FF80000000
FF80000000
FF80000000
FF80000000
FF80000000
FF80000000
FF80000000
FF80000000
FF80000000
FF80000000
FF80000000
FF80000000
FF80000000
FF80000000
FF80000000
FF80000000
FF80000000
FF80000000
FF80000000
FF80000000
FF80000000
FF80000000
FFC0000000
7FC0000000
7FC0000000
7FC0000000
7FE0000000
7FE0000000
3FF0000000
3FF0000000
3FF8000000
1FF8000000
1FFC000000
0FFE000000
0FFF000000
07FF800000
07FFE00000
03FFF80000
01FFFE0000
00FFFFE000
007FFFFFE0
003FFFFFF0
001FFFFFF8
000FFFFFF8
0007FFFFF8
0001FFFFF8
0000FFFFF8
00001FFFF8
000007FFF0
0000003FE0
ENDCHAR
STARTCHAR 0029
ENCODING 41
SWIDTH 261 0
DWIDTH 47 0
BBX 38 123 5 0
BITMAP
3FE0000000
7FFE000000
FFFFC00000
FFFFF00000
FFFFFC0000
FFFFFF0000
FFFFFF8000
FFFFFFC000
7FFFFFF000
3FFFFFF800
003FFFFC00
0003FFFE00
0000FFFE00
00003FFF00
00001FFF80
000007FFC0
000003FFC0
000001FFE0
000000FFE0
000000FFF0
0000007FF0
0000007FF0
0000003FF8
0000003FF8
0000001FF8
0000001FF8
0000001FF8
0000001FFC
0000000FFC
0000000FFC
0000000FFC
0000000FFC
0000000FFC
0000000FFC
0000000FFC
0000000FFC
0000000FFC
0000000FFC
0000000FFC
0000000FFC
0000000FFC
0000000FFC
0000000FFC
0000000FFC
0000000FFC
0000000FFC
0000000FFC
0000000FFC
0000000FFC
0000000FFC
0000000FFC
0000000FFC
0000000FFC
0000000FFC
0000000FFC
0000000FFC
0000000FFC
0000000FFC
0000000FFC
0000000FFC
0000000FFC
0000000FFC
0000000FFC
0000000FFC
0000000FFC
0000000FFC
0000000FFC
0000000FFC
0000000FFC
0000000FFC
0000000FFC
0000000FFC
0000000FFC
0000000FFC
0000000FFC
0000000FFC
0000000FFC
0000000FFC
0000000FFC
0000000FFC
0000000FFC
0000000FFC
0000000FFC
0000000FFC
0000000FFC
0000000FFC
0000000FFC
0000000FFC
0000000FFC
0000000FFC
0000000FFC
0000000FFC
0000000FFC
0000000FFC
0000000FFC
0000001FFC
0000001FF8
0000001FF8
0000001FF8
0000003FF8
0000003FF0
0000007FF0
0000007FF0
000000FFE0
000001FFE0
000001FFC0
000003FFC0
000007FF80
00000FFF80
00003FFF00
0000FFFE00
0003FFFC00
003FFFFC00
3FFFFFF800
7FFFFFF000
FFFFFFE000
FFFFFF8000
FFFFFF0000
FFFFFE0000
FFFFF80000
FFFFE00000
7FFF000000
3FE0000000
ENDCHAR
STARTCHAR 002A
ENCODING 42
SWIDTH 405 0
DWIDTH 73 0
BBX 64 61 4 61
BITMAP
00000007C0000000
0000000FF0000000
0000001FF0000000
0000001FF8000000
0000001FF8000000
0000001FF8000000
0000001FF8000000
0000001FF8000000
0000001FF8000000
0000001FF8000000
0000001FF8000000
0000001FF8000000
0000001FF8000000
0000001FF8000000
0000001FF8000000
0000001FF8000000
0000001FF8000000
0000001FF8000000
0000001FFC000000
0000003FFC000000
3F00003FFC0000FC
7FE0003FFC0007FE
FFFE007FFE003FFF
FFFFC1FFFF87FFFF
FFFFFFFFFFFFFFFF
FFFFFFFFFFFFFFFF
FFFFFFFFFFFFFFFF
7FFFFFFFFFFFFFFE
3FFFFFFFFFFFFFFC
07FFFFFFFFFFFFE0
00FFFFFFFFFFFF00
001FFFFFFFFFF000
0003FFFFFFFFC000
0000FFFFFFFF0000
00007FFFFFFC0000
00001FFFFFF80000
00000FFFFFF00000
00000FFFFFF00000
00000FFFFFF00000
00000FFFFFF00000
00001FFFFFF80000
00001FFFFFF80000
00001FFFFFF80000
00003FFFFFFC0000
00003FFFFFFC0000
00007FFFFFFE0000
0000FFFC3FFF0000
0001FFF00FFF8000
0001FFE007FF8000
0003FFC003FFC000
0007FF8001FFE000
000FFF0000FFF000
000FFF0000FFF000
001FFE00007FF800
001FFC00003FF800
003FF800001FFC00
003FF800001FFC00
003FF000000FFC00
001FE0000007F800
001FC0000003F000
000780000001E000
ENDCHAR
STARTCHAR 002B
ENCODING 43
SWIDTH 416 0
DWIDTH 75 0
BBX 66 67 5 28
BITMAP
00000001E000000000
00000007F800000000
00000007F800000000
0000000FFC00000000
0000000FFC00000000
0000000FFC00000000
0000000FFC00000000
0000000FFC00000000
0000000FFC00000000
0000000FFC00000000
0000000FFC00000000
0000000FFC00000000
0000000FFC00000000
0000000FFC00000000
0000000FFC00000000
0000000FFC00000000
0000000FFC00000000
0000000FFC00000000
0000000FFC00000000
0000000FFC00000000
0000000FFC00000000
0000000FFC00000000
0000000FFC00000000
0000000FFC00000000
0000000FFC00000000
0000000FFC00000000
0000000FFC00000000
0000001FFE00000000
0000003FFF00000000
3FFFFFFFFFFFFFFF00
FFFFFFFFFFFFFFFF80
FFFFFFFFFFFFFFFFC0
FFFFFFFFFFFFFFFFC0
FFFFFFFFFFFFFFFFC0
FFFFFFFFFFFFFFFFC0
FFFFFFFFFFFFFFFFC0
7FFFFFFFFFFFFFFFC0
3FFFFFFFFFFFFFFF00
0000003FFF00000000
0000001FFE00000000
0000000FFC00000000
0000000FFC00000000
0000000FFC00000000
0000000FFC00000000
0000000FFC00000000
0000000FFC00000000
0000000FFC00000000
0000000FFC00000000
0000000FFC00000000
0000000FFC00000000
0000000FFC00000000
0000000FFC00000000
0000000FFC00000000
0000000FFC00000000
0000000FFC00000000
0000000FFC00000000
0000000FFC00000000
0000000FFC00000000
0000000FFC00000000
0000000FFC00000000
0000000FFC00000000
0000000FFC00000000
0000000FFC00000000
0000000FFC00000000
0000000FF800000000
00000007F800000000
00000001E000000000
ENDCHAR
STARTCHAR 002C
ENCODING 44
SWIDTH 105 0
DWIDTH 19 0
BBX 10 38 4 -28
BITMAP
1E00
7F80
7F80
FFC0
FFC0
FFC0
FFC0
FFC0
FFC0
FFC0
FFC0
FFC0
FFC0
FFC0
FFC0
FFC0
FFC0
FFC0
FFC0
FFC0
FFC0
FFC0
FFC0
FFC0
FFC0
FFC0
FFC0
FFC0
FFC0
FFC0
FFC0
FFC0
FFC0
FFC0
FFC0
FF80
7F80
1E00
ENDCHAR
STARTCHAR 002D
ENCODING 45
SWIDTH 416 0
DWIDTH 75 0
BBX 67 9 4 57
BITMAP
1FFFFFFFFFFFFFFF00
7FFFFFFFFFFFFFFFC0
7FFFFFFFFFFFFFFFC0
7FFFFFFFFFFFFFFFE0
FFFFFFFFFFFFFFFFE0
7FFFFFFFFFFFFFFFE0
7FFFFFFFFFFFFFFFE0
3FFFFFFFFFFFFFFFC0
1FFFFFFFFFFFFFFF80
ENDCHAR
STARTCHAR 002E
ENCODING 46
SWIDTH 100 0
DWIDTH 18 0
BBX 10 10 4 0
BITMAP
1E00
3F00
7F80
7FC0
7FC0
FFC0
7FC0
7F80
7F80
1E00
ENDCHAR
STARTCHAR 002F
ENCODING 47
SWIDTH 416 0
DWIDTH 75 0
BBX 67 123 4 0
BITMAP
000000000000000F00
000000000000001FC0
000000000000003FC0
000000000000003FE0
000000000000007FE0
000000000000007FE0
000000000000007FE0
000000000000007FE0
000000000000007FE0
000000000000007FE0
000000000000007FC0
00000000000000FFC0
00000000000000FFC0
00000000000000FFC0
00000000000001FF80
00000000000001FF80
00000000000001FF80
00000000000003FF00
00000000000003FF00
00000000000007FF00
00000000000007FE00
00000000000007FE00
0000000000000FFE00
0000000000000FFC00
0000000000001FFC00
0000000000001FF800
0000000000003FF800
0000000000007FF000
0000000000007FF000
000000000000FFE000
000000000000FFE000
000000000001FFC000
000000000001FFC000
000000000003FF8000
000000000007FF8000
000000000007FF0000
00000000000FFE0000
00000000000FFE0000
00000000001FFC0000
00000000003FFC0000
00000000003FF80000
00000000007FF00000
00000000007FF00000
0000000000FFE00000
0000000001FFE00000
0000000001FFC00000
0000000003FF800000
0000000007FF800000
0000000007FF000000
000000000FFE000000
000000001FFE000000
000000001FFC000000
000000003FF8000000
000000007FF8000000
000000007FF0000000
00000000FFF0000000
00000001FFE0000000
00000001FFC0000000
00000003FFC0000000
00000007FF80000000
00000007FF00000000
0000000FFF00000000
0000001FFE00000000
0000001FFC00000000
0000003FFC00000000
0000007FF800000000
0000007FF000000000
000000FFF000000000
000001FFE000000000
000001FFC000000000
000003FFC000000000
000007FF8000000000
000007FF0000000000
00000FFF0000000000
00001FFE0000000000
00001FFC0000000000
00003FFC0000000000
00003FF80000000000
00007FF00000000000
0000FFF00000000000
0000FFE00000000000
0001FFC00000000000
0003FFC00000000000
0003FF800000000000
0007FF800000000000
0007FF000000000000
000FFE000000000000
000FFE000000000000
001FFC000000000000
001FFC000000000000
003FF8000000000000
007FF0000000000000
007FF0000000000000
00FFE0000000000000
00FFE0000000000000
01FFC0000000000000
01FFC0000000000000
03FF80000000000000
03FF00000000000000
07FF00000000000000
07FE00000000000000
0FFE00000000000000
0FFE00000000000000
0FFC00000000000000
1FFC00000000000000
1FF800000000000000
1FF800000000000000
3FF000000000000000
3FF000000000000000
3FF000000000000000
7FE000000000000000
7FE000000000000000
7FE000000000000000
7FE000000000000000
7FC000000000000000
7FC000000000000000
7FC000000000000000
7FC000000000000000
FFC000000000000000
7FC000000000000000
7FC000000000000000
3F8000000000000000
1E0000000000000000
ENDCHAR
STARTCHAR 0030
ENCODING 48
SWIDTH 416 0
DWIDTH 75 0
BBX 67 123 4 0
BITMAP
0000001FFF00000000
000003FFFFF8000000
00001FFFFFFF000000
00007FFFFFFFC00000
0001FFFFFFFFF00000
0003FFFFFFFFF80000
000FFFFFFFFFFE0000
001FFFFFFFFFFF0000
003FFFFFFFFFFF8000
007FFFFFFFFFFFC000
00FFFFF001FFFFE000
01FFFF00001FFFF000
01FFFC000003FFF000
03FFF0000001FFF800
07FFC00000007FFC00
07FF800000003FFC00
0FFF000000001FFE00
1FFE000000000FFE00
1FFE0000000007FF00
1FFC0000000007FF00
3FF80000000003FF80
3FF80000000003FF80
7FF00000000001FF80
7FF00000000001FFC0
7FE00000000000FFC0
7FE00000000000FFC0
7FE00000000000FFC0
FFE00000000000FFE0
FFC000000000007FE0
FFC000000000007FE0
FFC000000000007FE0
FFC000000000007FE0
FFC000000000007FE0
FFC000000000007FE0
FFC000000000007FE0
FFC000000000007FE0
FFC000000000007FE0
FFC000000000007FE0
FFC000000000007FE0
FFC000000000007FE0
FFC000000000007FE0
FFC000000000007FE0
FFC000000000007FE0
FFC000000000007FE0
FFC000000000007FE0
FFC000000000007FE0
FFC000000000007FE0
FFC000000000007FE0
FFC000000000007FE0
FFC000000000007FE0
FFC000000000007FE0
FFC000000000007FE0
FFC000000000007FE0
FFC000000000007FE0
FFC000000000007FE0
FFC000000000007FE0
FFC000000000007FE0
FFC000000000007FE0
FFC000000000007FE0
FFC000000000007FE0
FFC000000000007FE0
FFC000000000007FE0
FFC000000000007FE0
FFC000000000007FE0
FFC000000000007FE0
FFC000000000007FE0
FFC000000000007FE0
FFC000000000007FE0
FFC000000000007FE0
FFC000000000007FE0
FFC000000000007FE0
FFC000000000007FE0
FFC000000000007FE0
FFC000000000007FE0
FFC000000000007FE0
FFC000000000007FE0
FFC000000000007FE0
FFC000000000007FE0
FFC000000000007FE0
FFC000000000007FE0
FFC000000000007FE0
FFC000000000007FE0
FFC000000000007FE0
FFC000000000007FE0
FFC000000000007FE0
FFC000000000007FE0
FFC000000000007FE0
FFC000000000007FE0
FFC000000000007FE0
FFC000000000007FE0
FFC000000000007FE0
FFC000000000007FE0
FFC000000000007FE0
FFC000000000007FE0
FFC000000000007FE0
FFE00000000000FFE0
7FE00000000000FFC0
7FE00000000000FFC0
7FE00000000000FFC0
7FF00000000001FFC0
3FF00000000001FF80
3FF80000000003FF80
3FF80000000003FF80
1FFC0000000007FF00
1FFC000000000FFF00
0FFE000000000FFF00
0FFF000000001FFE00
07FF800000003FFC00
07FFC00000007FFC00
03FFF0000001FFF800
01FFF8000007FFF000
01FFFF00001FFFF000
00FFFFF001FFFFE000
007FFFFFFFFFFFC000
003FFFFFFFFFFF8000
001FFFFFFFFFFF0000
000FFFFFFFFFFE0000
0003FFFFFFFFF80000
0001FFFFFFFFF00000
00007FFFFFFFC00000
00001FFFFFFF000000
000003FFFFF8000000
0000001FFF00000000
ENDCHAR
STARTCHAR 0031
ENCODING 49
SWIDTH 100 0
DWIDTH 18 0
BBX 9 123 5 0
BITMAP
3E00
7F00
FF00
FF80
FF80
FF80
FF80
FF80
FF80
FF80
FF80
FF80
FF80
FF80
FF80
FF80
FF80
FF80
FF80
FF80
FF80
FF80
FF80
FF80
FF80
FF80
FF80
FF80
FF80
FF80
FF80
FF80
FF80
FF80
FF80
FF80
FF80
FF80
FF80
FF80
FF80
FF80
FF80
FF80
FF80
FF80
FF80
FF80
FF80
FF80
FF80
FF80
FF80
FF80
FF80
FF80
FF80
FF80
FF80
FF80
FF80
FF80
FF80
FF80
FF80
FF80
FF80
FF80
FF80
FF80
FF80
FF80
FF80
FF80
FF80
FF80
FF80
FF80
FF80
FF80
FF80
FF80
FF80
FF80
FF80
FF80
FF80
FF80
FF80
FF80
FF80
FF80
FF80
FF80
FF80
FF80
FF80
FF80
FF80
FF80
FF80
FF80
FF80
FF80
FF80
FF80
FF80
FF80
FF80
FF80
FF80
FF80
FF80
FF80
FF80
FF80
FF80
FF80
FF80
FF80
FF80
7F00
3E00
ENDCHAR
STARTCHAR 0032
ENCODING 50
SWIDTH 416 0
DWIDTH 75 0
BBX 67 123 4 0
BITMAP
0000001FFF00000000
000003FFFFF8000000
00000FFFFFFF000000
00007FFFFFFFC00000
0001FFFFFFFFF00000
0003FFFFFFFFF80000
0007FFFFFFFFFE0000
001FFFFFFFFFFF0000
003FFFFFFFFFFF8000
007FFFFFFFFFFFC000
00FFFFF001FFFFE000
00FFFF00001FFFF000
01FFFC000003FFF000
03FFF0000001FFF800
07FFE00000007FFC00
07FF800000003FFC00
0FFF000000001FFE00
0FFE000000000FFE00
1FFE0000000007FF00
1FFC0000000007FF00
3FF80000000003FF80
3FF80000000003FF80
3FF00000000001FF80
7FF00000000001FFC0
7FE00000000000FFC0
7FE00000000000FFC0
7FE00000000000FFC0
FFE00000000000FFE0
FFC000000000007FE0
FFC000000000007FE0
FFC000000000007FE0
FFC000000000007FE0
FFC000000000007FE0
FFC000000000007FE0
FFC000000000007FE0
FFC000000000007FE0
7F8000000000007FE0
3F0000000000007FE0
000000000000007FE0
00000000000000FFC0
00000000000000FFC0
00000000000000FFC0
00000000000000FFC0
00000000000001FFC0
00000000000001FF80
00000000000003FF80
00000000000003FF00
00000000000007FF00
0000000000000FFF00
0000000000000FFE00
0000000000001FFC00
0000000000003FFC00
000000000000FFF800
000000000001FFF800
000000000007FFF000
00000000001FFFE000
0000000001FFFFC000
0000001FFFFFFF8000
000003FFFFFFFF0000
00001FFFFFFFFE0000
00007FFFFFFFF80000
0001FFFFFFFFF00000
0003FFFFFFFFC00000
000FFFFFFFFF000000
001FFFFFFFF8000000
003FFFFFFF80000000
007FFFF00000000000
00FFFF800000000000
01FFFC000000000000
03FFF0000000000000
03FFE0000000000000
07FFC0000000000000
0FFF80000000000000
0FFF00000000000000
1FFE00000000000000
1FFC00000000000000
3FFC00000000000000
3FF800000000000000
3FF000000000000000
7FF000000000000000
7FF000000000000000
7FE000000000000000
7FE000000000000000
7FE000000000000000
FFC000000000000000
FFC000000000000000
FFC000000000000000
FFC000000000000000
FFC000000000000000
FFC000000000000000
FFC000000000000000
FFC000000000000000
FFC000000000000000
FFC000000000000000
FFC000000000000000
FFC000000000000000
FFC000000000000000
FFC000000000000000
FFC000000000000000
FFC000000000000000
FFC000000000000000
FFC000000000000000
FFC000000000000000
FFC000000000000000
FFC000000000000000
FFC000000000000000
FFC000000000000000
FFC000000000000000
FFC000000000000000
FFC000000000000000
FFC000000000000000
FFE000000000000000
FFF000000000000000
7FFFFFFFFFFFFFFF00
7FFFFFFFFFFFFFFFC0
7FFFFFFFFFFFFFFFC0
3FFFFFFFFFFFFFFFE0
1FFFFFFFFFFFFFFFE0
0FFFFFFFFFFFFFFFE0
07FFFFFFFFFFFFFFE0
03FFFFFFFFFFFFFFC0
01FFFFFFFFFFFFFFC0
003FFFFFFFFFFFFF00
ENDCHAR
STARTCHAR 0033
ENCODING 51
SWIDTH 416 0
DWIDTH 75 0
BBX 67 123 4 0
BITMAP
0000001FFF00000000
000003FFFFF8000000
00000FFFFFFF000000
00007FFFFFFFC00000
0001FFFFFFFFF00000
0003FFFFFFFFF80000
0007FFFFFFFFFE0000
001FFFFFFFFFFF0000
003FFFFFFFFFFF8000
007FFFFFFFFFFFC000
00FFFFF001FFFFE000
00FFFF00001FFFF000
01FFFC000003FFF000
03FFF0000001FFF800
07FFE00000007FFC00
07FF800000003FFC00
0FFF000000001FFE00
0FFE000000000FFE00
1FFE0000000007FF00
1FFC0000000007FF00
3FF80000000003FF80
3FF80000000003FF80
3FF00000000001FF80
7FF00000000001FFC0
7FE00000000000FFC0
7FE00000000000FFC0
7FE00000000000FFC0
FFE00000000000FFE0
FFC000000000007FE0
FFC000000000007FE0
FFC000000000007FE0
FFC000000000007FE0
FFC000000000007FE0
FFC000000000007FE0
FFC000000000007FE0
FFC000000000007FE0
7F8000000000007FE0
3F0000000000007FE0
000000000000007FE0
00000000000000FFC0
00000000000000FFC0
00000000000000FFC0
00000000000000FFC0
00000000000001FF80
00000000000001FF80
00000000000003FF80
00000000000003FF00
00000000000007FF00
0000000000000FFE00
0000000000000FFE00
0000000000001FFC00
0000000000003FFC00
000000000000FFF800
000000000001FFF800
000000000007FFF000
00000000001FFFE000
0000000001FFFFC000
00000001FFFFFF8000
00000007FFFFFF0000
00000007FFFFFE0000
00000007FFFFFC0000
00000007FFFFF00000
00000007FFFFF80000
00000007FFFFFE0000
00000003FFFFFF0000
00000001FFFFFF8000
0000000001FFFFC000
00000000001FFFE000
000000000007FFF000
000000000001FFF800
000000000000FFFC00
0000000000003FFC00
0000000000001FFE00
0000000000000FFE00
0000000000000FFF00
00000000000007FF00
00000000000003FF80
00000000000003FF80
00000000000001FF80
00000000000001FFC0
00000000000000FFC0
00000000000000FFC0
00000000000000FFC0
00000000000000FFE0
000000000000007FE0
3F0000000000007FE0
7F8000000000007FE0
FFC000000000007FE0
FFC000000000007FE0
FFC000000000007FE0
FFC000000000007FE0
FFC000000000007FE0
FFC000000000007FE0
FFC000000000007FE0
FFC000000000007FE0
FFE00000000000FFE0
7FE00000000000FFC0
7FE00000000000FFC0
7FE00000000000FFC0
7FF00000000001FFC0
7FF00000000001FFC0
3FF00000000001FF80
3FF80000000003FF80
3FFC0000000007FF80
1FFC0000000007FF00
1FFE000000000FFF00
0FFF000000001FFE00
0FFF800000003FFE00
07FFE00000007FFC00
03FFF0000001FFF800
01FFFC000007FFF800
01FFFF00001FFFF000
00FFFFF001FFFFE000
007FFFFFFFFFFFC000
003FFFFFFFFFFF8000
000FFFFFFFFFFF0000
0007FFFFFFFFFC0000
0001FFFFFFFFF80000
0000FFFFFFFFE00000
00003FFFFFFF800000
00000FFFFFFE000000
000001FFFFF0000000
0000001FFF00000000
ENDCHAR
STARTCHAR 0034
ENCODING 52
SWIDTH 416 0
DWIDTH 75 0
BBX 67 123 4 0
BITMAP
1E0000000000000F00
7F8000000000003FC0
7F8000000000003FC0
FFC000000000007FE0
FFC000000000007FE0
FFC000000000007FE0
FFC000000000007FE0
FFC000000000007FE0
FFC000000000007FE0
FFC000000000007FE0
FFC000000000007FE0
FFC000000000007FE0
FFC000000000007FE0
FFC000000000007FE0
FFC000000000007FE0
FFC000000000007FE0
FFC000000000007FE0
FFC000000000007FE0
FFC000000000007FE0
FFC000000000007FE0
FFC000000000007FE0
FFC000000000007FE0
FFC000000000007FE0
FFC000000000007FE0
FFC000000000007FE0
FFC000000000007FE0
FFC000000000007FE0
FFC000000000007FE0
FFC000000000007FE0
FFC000000000007FE0
FFC000000000007FE0
FFC000000000007FE0
FFC000000000007FE0
FFC000000000007FE0
FFC000000000007FE0
FFC000000000007FE0
FFC000000000007FE0
FFC000000000007FE0
FFC000000000007FE0
FFC000000000007FE0
FFC000000000007FE0
FFC000000000007FE0
FFC000000000007FE0
FFC000000000007FE0
FFC000000000007FE0
FFC000000000007FE0
FFC000000000007FE0
FFC000000000007FE0
FFC000000000007FE0
FFC000000000007FE0
FFC000000000007FE0
FFC000000000007FE0
FFC000000000007FE0
FFC000000000007FE0
FFC000000000007FE0
FFE00000000000FFE0
7FF00000000001FFC0
7FFFFFFFFFFFFFFFC0
7FFFFFFFFFFFFFFFC0
3FFFFFFFFFFFFFFF80
1FFFFFFFFFFFFFFF00
1FFFFFFFFFFFFFFF00
0FFFFFFFFFFFFFFF00
03FFFFFFFFFFFFFF80
01FFFFFFFFFFFFFFC0
003FFFFFFFFFFFFFC0
00000000000001FFC0
00000000000000FFE0
000000000000007FE0
000000000000007FE0
000000000000007FE0
000000000000007FE0
000000000000007FE0
000000000000007FE0
000000000000007FE0
000000000000007FE0
000000000000007FE0
000000000000007FE0
000000000000007FE0
000000000000007FE0
000000000000007FE0
000000000000007FE0
000000000000007FE0
000000000000007FE0
000000000000007FE0
000000000000007FE0
000000000000007FE0
000000000000007FE0
000000000000007FE0
000000000000007FE0
000000000000007FE0
000000000000007FE0
000000000000007FE0
000000000000007FE0
000000000000007FE0
000000000000007FE0
000000000000007FE0
000000000000007FE0
000000000000007FE0
000000000000007FE0
000000000000007FE0
000000000000007FE0
000000000000007FE0
000000000000007FE0
000000000000007FE0
000000000000007FE0
000000000000007FE0
000000000000007FE0
000000000000007FE0
000000000000007FE0
000000000000007FE0
000000000000007FE0
000000000000007FE0
000000000000007FE0
000000000000007FE0
000000000000007FE0
000000000000007FE0
000000000000007FE0
000000000000007FE0
000000000000007FE0
000000000000007FC0
000000000000003FC0
000000000000000F00
ENDCHAR
STARTCHAR 0035
ENCODING 53
SWIDTH 416 0
DWIDTH 75 0
BBX 67 123 4 0
BITMAP
003FFFFFFFFFFFFF00
00FFFFFFFFFFFFFFC0
03FFFFFFFFFFFFFFC0
07FFFFFFFFFFFFFFE0
0FFFFFFFFFFFFFFFE0
1FFFFFFFFFFFFFFFE0
3FFFFFFFFFFFFFFFE0
7FFFFFFFFFFFFFFFC0
7FFFFFFFFFFFFFFFC0
7FFFFFFFFFFFFFFF00
FFF000000000000000
FFE000000000000000
FFC000000000000000
FFC000000000000000
FFC000000000000000
FFC000000000000000
FFC000000000000000
FFC000000000000000
FFC000000000000000
FFC000000000000000
FFC000000000000000
FFC000000000000000
FFC000000000000000
FFC000000000000000
FFC000000000000000
FFC000000000000000
FFC000000000000000
FFC000000000000000
FFC000000000000000
FFC000000000000000
FFC000000000000000
FFC000000000000000
FFC000000000000000
FFC000000000000000
FFC000000000000000
FFC000000000000000
FFC000000000000000
FFC000000000000000
FFC000000000000000
FFC000000000000000
FFC000000000000000
FFC000000000000000
FFC000000000000000
FFC000000000000000
FFC000000000000000
FFC000000000000000
FFC000000000000000
FFC000000000000000
FFC000000000000000
FFC000000000000000
FFC000000000000000
FFC000000000000000
FFC000000000000000
FFC000000000000000
FFC000000000000000
FFE000000000000000
7FF000000000000000
7FFFFFFFFF00000000
7FFFFFFFFFF0000000
3FFFFFFFFFFE000000
1FFFFFFFFFFF800000
1FFFFFFFFFFFE00000
0FFFFFFFFFFFF80000
03FFFFFFFFFFFC0000
01FFFFFFFFFFFF0000
003FFFFFFFFFFF8000
0000000001FFFFC000
00000000001FFFE000
000000000007FFF000
000000000001FFF800
000000000000FFF800
0000000000003FFC00
0000000000001FFE00
0000000000000FFE00
0000000000000FFF00
00000000000007FF00
00000000000003FF80
00000000000003FF80
00000000000001FF80
00000000000001FFC0
00000000000000FFC0
00000000000000FFC0
00000000000000FFC0
00000000000000FFE0
000000000000007FE0
000000000000007FE0
000000000000007FE0
000000000000007FE0
000000000000007FE0
000000000000007FE0
000000000000007FE0
000000000000007FE0
000000000000007FE0
000000000000007FE0
000000000000007FE0
00000000000000FFE0
00000000000000FFC0
00000000000000FFC0
00000000000000FFC0
00000000000001FFC0
00000000000001FFC0
00000000000001FF80
00000000000003FF80
00000000000007FF80
00000000000007FF00
0000000000000FFF00
0000000000001FFE00
0000000000003FFE00
000000000000FFFC00
000000000001FFF800
000000000007FFF800
00000000001FFFF000
0000000001FFFFE000
1FFFFFFFFFFFFFC000
7FFFFFFFFFFFFF8000
7FFFFFFFFFFFFF0000
FFFFFFFFFFFFFC0000
FFFFFFFFFFFFF80000
FFFFFFFFFFFFE00000
FFFFFFFFFFFF800000
FFFFFFFFFFFE000000
7FFFFFFFFFF0000000
1FFFFFFFFF00000000
ENDCHAR
STARTCHAR 0036
ENCODING 54
SWIDTH 416 0
DWIDTH 75 0
BBX 67 123 4 0
BITMAP
0000001FFF00000000
000003FFFFF8000000
00001FFFFFFE000000
00007FFFFFFFC00000
0001FFFFFFFFE00000
0003FFFFFFFFF80000
000FFFFFFFFFFC0000
001FFFFFFFFFFE0000
003FFFFFFFFFFF0000
007FFFFFFFFFFF8000
00FFFFF001FFFFC000
01FFFF00001FFFE000
01FFFC000007FFF000
03FFF0000001FFF800
07FFC00000007FF800
07FF800000003FFC00
0FFF000000001FFE00
1FFE000000000FFE00
1FFE000000000FFF00
1FFC0000000007FF00
3FF80000000003FF00
3FF80000000003FF80
7FF00000000001FF80
7FF00000000001FFC0
7FE00000000000FFC0
7FE00000000000FFC0
7FE00000000000FFC0
FFE00000000000FFC0
FFC000000000007FE0
FFC000000000007FE0
FFC000000000007FE0
FFC000000000007FE0
FFC000000000007FE0
FFC000000000007FE0
FFC000000000007FE0
FFC000000000007FE0
FFC000000000003FC0
FFC000000000001F80
FFC000000000000000
FFC000000000000000
FFC000000000000000
FFC000000000000000
FFC000000000000000
FFC000000000000000
FFC000000000000000
FFC000000000000000
FFC000000000000000
FFC000000000000000
FFC000000000000000
FFC000000000000000
FFC000000000000000
FFC000000000000000
FFC000000000000000
FFC000000000000000
FFC000000000000000
FFE000000000000000
7FF000000000000000
7FFFFFFFFF00000000
7FFFFFFFFFF0000000
3FFFFFFFFFFE000000
1FFFFFFFFFFF800000
1FFFFFFFFFFFE00000
1FFFFFFFFFFFF80000
3FFFFFFFFFFFFC0000
7FFFFFFFFFFFFF0000
7FFFFFFFFFFFFF8000
7FF0000001FFFFC000
FFE00000001FFFE000
FFC000000007FFF000
FFC000000001FFF800
FFC000000000FFF800
FFC0000000003FFC00
FFC0000000001FFE00
FFC0000000000FFE00
FFC0000000000FFF00
FFC00000000007FF00
FFC00000000003FF80
FFC00000000003FF80
FFC00000000001FF80
FFC00000000001FFC0
FFC00000000000FFC0
FFC00000000000FFC0
FFC00000000000FFC0
FFC00000000000FFE0
FFC000000000007FE0
FFC000000000007FE0
FFC000000000007FE0
FFC000000000007FE0
FFC000000000007FE0
FFC000000000007FE0
FFC000000000007FE0
FFC000000000007FE0
FFC000000000007FE0
FFC000000000007FE0
FFC000000000007FE0
FFC00000000000FFE0
FFE00000000000FFC0
7FE00000000000FFC0
7FE00000000000FFC0
7FF00000000001FFC0
7FF00000000001FFC0
3FF00000000001FF80
3FF80000000003FF80
3FFC0000000007FF80
1FFC0000000007FF00
1FFE000000000FFF00
0FFF000000001FFE00
0FFF800000003FFE00
07FFE00000007FFC00
03FFF0000001FFF800
03FFFC000007FFF800
01FFFF00001FFFF000
00FFFFF001FFFFE000
007FFFFFFFFFFFC000
003FFFFFFFFFFF8000
001FFFFFFFFFFF0000
0007FFFFFFFFFC0000
0003FFFFFFFFF80000
0000FFFFFFFFE00000
00003FFFFFFF800000
00000FFFFFFE000000
000001FFFFF0000000
0000001FFF00000000
ENDCHAR
STARTCHAR 0037
ENCODING 55
SWIDTH 416 0
DWIDTH 75 0
BBX 66 123 5 0
BITMAP
3FFFFFFFFFFFFF0000
7FFFFFFFFFFFFFC000
FFFFFFFFFFFFFFF000
FFFFFFFFFFFFFFF800
FFFFFFFFFFFFFFFC00
FFFFFFFFFFFFFFFE00
FFFFFFFFFFFFFFFF00
FFFFFFFFFFFFFFFF00
7FFFFFFFFFFFFFFF80
3FFFFFFFFFFFFFFF80
00000000000003FFC0
00000000000000FFC0
00000000000000FFC0
00000000000000FFC0
00000000000000FFC0
00000000000000FFC0
00000000000000FFC0
00000000000000FF80
00000000000000FF80
00000000000001FF80
00000000000001FF80
00000000000001FF00
00000000000001FF00
00000000000003FF00
00000000000003FF00
00000000000003FE00
00000000000003FE00
00000000000007FE00
00000000000007FE00
00000000000007FC00
0000000000000FFC00
0000000000000FFC00
0000000000000FFC00
0000000000000FF800
0000000000001FF800
0000000000001FF800
0000000000001FF000
0000000000003FF000
0000000000003FF000
0000000000003FF000
0000000000003FE000
0000000000007FE000
0000000000007FE000
0000000000007FC000
000000000000FFC000
000000000000FFC000
000000000000FFC000
000000000000FF8000
000000000001FF8000
000000000001FF8000
000000000001FF0000
000000000003FF0000
000000000003FF0000
000000000003FF0000
000000000007FE0000
000000000007FE0000
000000000007FE0000
000000000007FC0000
00000000000FFC0000
00000000000FFC0000
00000000000FFC0000
00000000001FF80000
00000000001FF80000
00000000001FF80000
00000000001FF00000
00000000003FF00000
00000000003FF00000
00000000003FF00000
00000000007FE00000
00000000007FE00000
00000000007FE00000
0000000000FFC00000
0000000000FFC00000
0000000000FFC00000
0000000000FF800000
0000000001FF800000
0000000001FF800000
0000000001FF800000
0000000003FF000000
0000000003FF000000
0000000003FF000000
0000000007FE000000
0000000007FE000000
0000000007FE000000
0000000007FC000000
000000000FFC000000
000000000FFC000000
000000000FFC000000
000000001FF8000000
000000001FF8000000
000000001FF8000000
000000001FF0000000
000000003FF0000000
000000003FF0000000
000000003FE0000000
000000007FE0000000
000000007FE0000000
000000007FE0000000
000000007FC0000000
00000000FFC0000000
00000000FFC0000000
00000000FFC0000000
00000000FF80000000
00000001FF80000000
00000001FF80000000
00000001FF00000000
00000003FF00000000
00000003FF00000000
00000003FF00000000
00000003FE00000000
00000007FE00000000
00000007FE00000000
00000007FE00000000
00000007FC00000000
00000007FC00000000
0000000FFC00000000
0000000FFC00000000
0000000FFC00000000
0000000FF800000000
0000000FF800000000
0000000FF800000000
00000007F000000000
00000001E000000000
ENDCHAR
STARTCHAR 0038
ENCODING 56
SWIDTH 416 0
DWIDTH 75 0
BBX 67 123 4 0
BITMAP
0000001FFF00000000
000003FFFFF8000000
00001FFFFFFF000000
00007FFFFFFFC00000
0001FFFFFFFFF00000
0003FFFFFFFFF80000
000FFFFFFFFFFE0000
001FFFFFFFFFFF0000
003FFFFFFFFFFF8000
007FFFFFFFFFFFC000
00FFFFF001FFFFE000
01FFFF00001FFFF000
01FFFC000003FFF000
03FFF0000001FFF800
07FFC00000007FFC00
07FF800000003FFC00
0FFF000000001FFE00
1FFE000000000FFE00
1FFE0000000007FF00
1FFC0000000007FF00
3FF80000000003FF80
3FF80000000003FF80
7FF00000000001FF80
7FF00000000001FFC0
7FE00000000000FFC0
7FE00000000000FFC0
7FE00000000000FFC0
FFE00000000000FFE0
FFC000000000007FE0
FFC000000000007FE0
FFC000000000007FE0
FFC000000000007FE0
FFC000000000007FE0
FFC000000000007FE0
FFC000000000007FE0
FFC000000000007FE0
FFC000000000007FE0
FFC000000000007FE0
FFC000000000007FE0
7FE00000000000FFC0
7FE00000000000FFC0
7FE00000000000FFC0
7FF00000000000FFC0
3FF00000000001FF80
3FF00000000001FF80
3FF80000000003FF80
1FFC0000000003FF00
1FFC0000000007FF00
0FFE000000000FFE00
0FFF000000000FFE00
07FF800000001FFC00
07FFC00000003FFC00
03FFE0000000FFF800
03FFF0000001FFF800
01FFFC000007FFF000
00FFFF00001FFFE000
007FFFF001FFFFC000
003FFFFFFFFFFF8000
001FFFFFFFFFFF0000
000FFFFFFFFFFE0000
0007FFFFFFFFFC0000
0001FFFFFFFFF00000
0003FFFFFFFFF80000
000FFFFFFFFFFE0000
001FFFFFFFFFFF0000
003FFFFFFFFFFF8000
007FFFF001FFFFC000
00FFFF80001FFFE000
01FFFC000007FFF000
03FFF8000001FFF800
07FFE0000000FFFC00
07FFC00000003FFC00
0FFF800000001FFE00
0FFF000000000FFE00
1FFE000000000FFF00
1FFC0000000007FF00
3FF80000000003FF80
3FF80000000003FF80
3FF00000000001FF80
7FF00000000001FFC0
7FE00000000000FFC0
7FE00000000000FFC0
7FE00000000000FFC0
FFE00000000000FFE0
FFC000000000007FE0
FFC000000000007FE0
FFC000000000007FE0
FFC000000000007FE0
FFC000000000007FE0
FFC000000000007FE0
FFC000000000007FE0
FFC000000000007FE0
FFC000000000007FE0
FFC000000000007FE0
FFC000000000007FE0
FFC00000000000FFE0
FFE00000000000FFC0
7FE00000000000FFC0
7FE00000000000FFC0
7FF00000000001FFC0
7FF00000000001FFC0
3FF00000000001FF80
3FF80000000003FF80
3FFC0000000007FF80
1FFC0000000007FF00
1FFE000000000FFF00
0FFF000000001FFE00
0FFF800000003FFE00
07FFE00000007FFC00
03FFF0000001FFF800
03FFFC000007FFF800
01FFFF00001FFFF000
00FFFFF001FFFFE000
007FFFFFFFFFFFC000
003FFFFFFFFFFF8000
001FFFFFFFFFFF0000
0007FFFFFFFFFC0000
0003FFFFFFFFF80000
0000FFFFFFFFE00000
00003FFFFFFF800000
00000FFFFFFE000000
000001FFFFF0000000
0000001FFF00000000
ENDCHAR
STARTCHAR 0039
ENCODING 57
SWIDTH 416 0
DWIDTH 75 0
BBX 67 123 4 0
BITMAP
0000001FFF00000000
000001FFFFF8000000
00000FFFFFFF000000
00003FFFFFFFC00000
0000FFFFFFFFF00000
0003FFFFFFFFF80000
0007FFFFFFFFFE0000
001FFFFFFFFFFF0000
003FFFFFFFFFFF8000
007FFFFFFFFFFFC000
00FFFFF001FFFFE000
01FFFF00001FFFF000
03FFFC000003FFF000
03FFF0000001FFF800
07FFE00000007FFC00
0FFF800000003FFC00
0FFF000000001FFE00
1FFE000000000FFE00
1FFE0000000007FF00
3FFC0000000007FF00
3FF80000000003FF80
3FF80000000003FF80
7FF00000000001FF80
7FF00000000001FFC0
7FE00000000000FFC0
7FE00000000000FFC0
FFE00000000000FFC0
FFE00000000000FFE0
FFC000000000007FE0
FFC000000000007FE0
FFC000000000007FE0
FFC000000000007FE0
FFC000000000007FE0
FFC000000000007FE0
FFC000000000007FE0
FFC000000000007FE0
FFC000000000007FE0
FFC000000000007FE0
FFC000000000007FE0
FFE000000000007FE0
7FE000000000007FE0
7FE000000000007FE0
7FE000000000007FE0
7FF000000000007FE0
3FF000000000007FE0
3FF800000000007FE0
3FF800000000007FE0
1FFC00000000007FE0
1FFE00000000007FE0
0FFE00000000007FE0
0FFF00000000007FE0
07FFC0000000007FE0
07FFE0000000007FE0
03FFF0000000007FE0
01FFFC000000007FE0
00FFFF80000000FFE0
007FFFF0000001FFC0
003FFFFFFFFFFFFFC0
001FFFFFFFFFFFFFC0
0007FFFFFFFFFFFF80
0003FFFFFFFFFFFF00
0000FFFFFFFFFFFF00
00003FFFFFFFFFFF00
00000FFFFFFFFFFF80
000001FFFFFFFFFFC0
0000001FFFFFFFFFC0
00000000000001FFC0
00000000000000FFE0
000000000000007FE0
000000000000007FE0
000000000000007FE0
000000000000007FE0
000000000000007FE0
000000000000007FE0
000000000000007FE0
000000000000007FE0
000000000000007FE0
000000000000007FE0
000000000000007FE0
000000000000007FE0
000000000000007FE0
000000000000007FE0
000000000000007FE0
000000000000007FE0
000000000000007FE0
000000000000007FE0
000000000000007FE0
000000000000007FE0
000000000000007FE0
000000000000007FE0
000000000000007FE0
000000000000007FE0
000000000000007FE0
000000000000007FE0
000000000000007FE0
000000000000007FE0
000000000000007FE0
000000000000007FE0
000000000000007FE0
000000000000007FE0
000000000000007FE0
000000000000007FE0
000000000000007FE0
000000000000007FE0
000000000000007FE0
000000000000007FE0
000000000000007FE0
000000000000007FE0
000000000000007FE0
000000000000007FE0
000000000000007FE0
000000000000007FE0
000000000000007FE0
000000000000007FE0
000000000000007FE0
000000000000007FE0
000000000000007FE0
000000000000007FE0
000000000000007FE0
000000000000007FE0
000000000000007FC0
000000000000003FC0
000000000000000F00
ENDCHAR
STARTCHAR 003A
ENCODING 58
SWIDTH 100 0
DWIDTH 18 0
BBX 9 95 5 0
BITMAP
3E00
7F00
FF00
FF80
FF80
FF80
FF80
7F00
7F00
0000
0000
0000
0000
0000
0000
0000
0000
0000
0000
0000
0000
0000
0000
0000
0000
0000
0000
0000
0000
0000
0000
0000
0000
0000
0000
0000
0000
0000
0000
0000
0000
0000
0000
0000
0000
0000
0000
0000
0000
0000
0000
0000
0000
0000
0000
0000
0000
0000
0000
0000
0000
0000
0000
0000
0000
0000
0000
0000
0000
0000
0000
0000
0000
0000
0000
0000
0000
0000
0000
0000
0000
0000
0000
0000
0000
0800
3E00
7F00
FF80
FF80
FF80
FF80
FF80
7F00
3E00
ENDCHAR
STARTCHAR 003B
ENCODING 59
SWIDTH 105 0
DWIDTH 19 0
BBX 10 123 4 -28
BITMAP
1E00
7F80
7F80
FFC0
FFC0
FFC0
FFC0
7F80
3F00
0000
0000
0000
0000
0000
0000
0000
0000
0000
0000
0000
0000
0000
0000
0000
0000
0000
0000
0000
0000
0000
0000
0000
0000
0000
0000
0000
0000
0000
0000
0000
0000
0000
0000
0000
0000
0000
0000
0000
0000
0000
0000
0000
0000
0000
0000
0000
0000
0000
0000
0000
0000
0000
0000
0000
0000
0000
0000
0000
0000
0000
0000
0000
0000
0000
0000
0000
0000
0000
0000
0000
0000
0000
0000
0000
0000
1E00
7F80
7F80
FFC0
FFC0
FFC0
FFC0
FFC0
FFC0
FFC0
FFC0
FFC0
FFC0
FFC0
FFC0
FFC0
FFC0
FFC0
FFC0
FFC0
FFC0
FFC0
FFC0
FFC0
FFC0
FFC0
FFC0
FFC0
FFC0
FFC0
FFC0
FFC0
FFC0
FFC0
FFC0
FF80
7F80
1E00
ENDCHAR
STARTCHAR 003C
ENCODING 60
SWIDTH 416 0
DWIDTH 75 0
BBX 67 65 4 29
BITMAP
00000000000001FF00
0000000000003FFFC0
000000000001FFFFC0
00000000000FFFFFE0
00000000007FFFFFE0
0000000001FFFFFFE0
0000000007FFFFFFE0
000000001FFFFFFFC0
000000007FFFFFFF80
00000000FFFFFF0000
00000003FFFFF00000
00000007FFFF000000
0000001FFFFC000000
0000003FFFF0000000
0000007FFFC0000000
000001FFFF00000000
000003FFFC00000000
000007FFF000000000
00001FFFE000000000
00003FFF8000000000
00007FFF0000000000
0001FFFE0000000000
0003FFF80000000000
0007FFF00000000000
001FFFE00000000000
003FFF800000000000
007FFF000000000000
01FFFE000000000000
1FFFF8000000000000
7FFFF0000000000000
7FFFE0000000000000
7FFF80000000000000
FFFF00000000000000
7FFF80000000000000
7FFFE0000000000000
7FFFF0000000000000
1FFFF8000000000000
03FFFE000000000000
00FFFF000000000000
003FFF800000000000
001FFFE00000000000
000FFFF00000000000
0003FFF80000000000
0001FFFE0000000000
0000FFFF0000000000
00003FFF8000000000
00001FFFE000000000
00000FFFF000000000
000003FFFC00000000
000001FFFF00000000
000000FFFFC0000000
0000003FFFF0000000
0000001FFFFC000000
00000007FFFF000000
00000003FFFFF00000
00000000FFFFFF0000
000000007FFFFFFF00
000000001FFFFFFFC0
0000000007FFFFFFC0
0000000001FFFFFFE0
00000000007FFFFFE0
00000000001FFFFFE0
000000000003FFFFC0
0000000000003FFFC0
00000000000001FF00
ENDCHAR
STARTCHAR 003D
ENCODING 61
SWIDTH 416 0
DWIDTH 75 0
BBX 67 48 4 38
BITMAP
1FFFFFFFFFFFFFFF00
3FFFFFFFFFFFFFFF80
7FFFFFFFFFFFFFFFC0
7FFFFFFFFFFFFFFFE0
7FFFFFFFFFFFFFFFE0
FFFFFFFFFFFFFFFFE0
7FFFFFFFFFFFFFFFE0
7FFFFFFFFFFFFFFFC0
3FFFFFFFFFFFFFFFC0
1FFFFFFFFFFFFFFF00
000000000000000000
000000000000000000
000000000000000000
000000000000000000
000000000000000000
000000000000000000
000000000000000000
000000000000000000
000000000000000000
000000000000000000
000000000000000000
000000000000000000
000000000000000000
000000000000000000
000000000000000000
000000000000000000
000000000000000000
000000000000000000
000000000000000000
000000000000000000
000000000000000000
000000000000000000
000000000000000000
000000000000000000
000000000000000000
000000000000000000
000000000000000000
000000000000000000
1FFFFFFFFFFFFFFF00
3FFFFFFFFFFFFFFFC0
7FFFFFFFFFFFFFFFC0
7FFFFFFFFFFFFFFFE0
7FFFFFFFFFFFFFFFE0
7FFFFFFFFFFFFFFFE0
7FFFFFFFFFFFFFFFE0
7FFFFFFFFFFFFFFFC0
3FFFFFFFFFFFFFFFC0
1FFFFFFFFFFFFFFF00
ENDCHAR
STARTCHAR 003E
ENCODING 62
SWIDTH 416 0
DWIDTH 75 0
BBX 67 65 4 29
BITMAP
1FF000000000000000
3FFF80000000000000
7FFFF8000000000000
7FFFFF000000000000
FFFFFFC00000000000
7FFFFFF00000000000
7FFFFFFC0000000000
3FFFFFFF0000000000
1FFFFFFFC000000000
001FFFFFF000000000
0000FFFFF800000000
00001FFFFE00000000
000003FFFF00000000
000000FFFFC0000000
0000003FFFE0000000
0000000FFFF0000000
00000007FFFC000000
00000001FFFE000000
00000000FFFF000000
000000003FFFC00000
000000001FFFE00000
0000000007FFF00000
0000000003FFFC0000
0000000001FFFE0000
00000000007FFF0000
00000000003FFFC000
00000000001FFFE000
000000000007FFF800
000000000003FFFF00
000000000001FFFFC0
0000000000007FFFC0
0000000000003FFFE0
0000000000001FFFE0
0000000000003FFFE0
0000000000007FFFE0
000000000001FFFFC0
000000000003FFFF80
000000000007FFF800
00000000001FFFE000
00000000003FFFC000
00000000007FFF0000
0000000001FFFE0000
0000000003FFFC0000
0000000007FFF00000
000000001FFFE00000
000000003FFFC00000
000000007FFF000000
00000001FFFE000000
00000007FFFC000000
0000000FFFF0000000
0000003FFFE0000000
000000FFFFC0000000
000003FFFF00000000
00001FFFFE00000000
0000FFFFF800000000
001FFFFFF000000000
1FFFFFFFC000000000
7FFFFFFF0000000000
7FFFFFFC0000000000
7FFFFFF00000000000
FFFFFFC00000000000
7FFFFF000000000000
7FFFF8000000000000
3FFF80000000000000
1FF000000000000000
ENDCHAR
STARTCHAR 003F
ENCODING 63
SWIDTH 416 0
DWIDTH 75 0
BBX 67 123 4 0
BITMAP
0000001FFF00000000
000003FFFFF8000000
00000FFFFFFE000000
00007FFFFFFFC00000
0001FFFFFFFFE00000
0003FFFFFFFFF80000
0007FFFFFFFFFC0000
001FFFFFFFFFFE0000
003FFFFFFFFFFF0000
007FFFFFFFFFFF8000
00FFFFF001FFFFC000
00FFFF00001FFFE000
01FFFC000007FFF000
03FFF0000001FFF800
07FFE00000007FF800
07FF800000003FFC00
0FFF000000001FFE00
0FFE000000000FFE00
1FFE000000000FFF00
1FFC0000000007FF00
3FF80000000003FF00
3FF80000000003FF80
3FF00000000001FF80
7FF00000000001FFC0
7FE00000000000FFC0
7FE00000000000FFC0
7FE00000000000FFC0
FFE00000000000FFC0
FFC000000000007FE0
FFC000000000007FE0
FFC000000000007FE0
FFC000000000007FE0
FFC000000000007FE0
FFC000000000007FE0
FFC000000000007FE0
FFC000000000007FE0
7F8000000000007FE0
3F0000000000007FE0
000000000000007FE0
00000000000000FFC0
00000000000000FFC0
00000000000000FFC0
00000000000001FFC0
00000000000001FFC0
00000000000001FF80
00000000000003FF80
00000000000003FF80
00000000000007FF00
0000000000000FFF00
0000000000001FFE00
0000000000001FFE00
0000000000003FFC00
0000000000007FFC00
000000000001FFF800
000000000003FFF000
00000000000FFFF000
0000000000FFFFE000
0000000007FFFFC000
000000000FFFFF8000
000000003FFFFF0000
000000007FFFFE0000
00000000FFFFF80000
00000000FFFFF00000
00000001FFFFC00000
00000003FFFE000000
00000003FFF0000000
00000003FFC0000000
00000007FF00000000
00000007FF00000000
00000007FE00000000
00000007FE00000000
00000007FE00000000
00000007FE00000000
00000007FE00000000
00000007FE00000000
00000007FE00000000
00000007FE00000000
00000007FE00000000
00000007FE00000000
00000007FE00000000
00000007FE00000000
00000007FE00000000
00000007FE00000000
00000007FE00000000
00000007FE00000000
00000007FE00000000
00000007FE00000000
00000007FE00000000
00000007FE00000000
00000007FE00000000
00000007FE00000000
00000007FE00000000
00000007FE00000000
00000003FC00000000
00000001F800000000
000000000000000000
000000000000000000
000000000000000000
000000000000000000
000000000000000000
000000000000000000
000000000000000000
000000000000000000
000000000000000000
000000000000000000
000000000000000000
000000000000000000
000000000000000000
000000000000000000
000000000000000000
000000000000000000
000000000000000000
000000000000000000
000000000000000000
00000001F800000000
00000003FC00000000
00000007FE00000000
00000007FE00000000
00000007FE00000000
00000007FE00000000
00000007FC00000000
00000003FC00000000
00000000F000000000
ENDCHAR
STARTCHAR 0040
ENCODING 64
SWIDTH 733 0
DWIDTH 132 0
BBX 123 123 4 0
BITMAP
0000001FFFFFFFFFFFFFFFFF80000000
000001FFFFFFFFFFFFFFFFFFF8000000
00000FFFFFFFFFFFFFFFFFFFFF000000
00007FFFFFFFFFFFFFFFFFFFFFC00000
0000FFFFFFFFFFFFFFFFFFFFFFF00000
0003FFFFFFFFFFFFFFFFFFFFFFF80000
000FFFFFFFFFFFFFFFFFFFFFFFFE0000
001FFFFFFFFFFFFFFFFFFFFFFFFF0000
003FFFFFFFFFFFFFFFFFFFFFFFFF8000
007FFFFFFFFFFFFFFFFFFFFFFFFFC000
00FFFFF00000000000000000FFFFE000
01FFFF0000000000000000000FFFF000
03FFFC00000000000000000003FFF800
07FFF000000000000000000000FFF800
07FFE0000000000000000000007FFC00
0FFF80000000000000000000001FFE00
0FFF00000000000000000000000FFE00
1FFE000000000000000000000007FF00
1FFE000000000000000000000007FF00
3FFC000000000000000000000003FF00
3FF8000000000000000000000001FF80
3FF8000000000000000000000001FF80
7FF0000000000000000000000000FFC0
7FF0000000000000000000000000FFC0
7FE00000000000000000000000007FC0
7FE00000000000000000000000007FC0
FFE00000000000000000000000007FC0
FFE00000000000000000000000007FE0
FFC00000000000000000000000003FE0
FFC000000000000FFFF8000000003FE0
FFC000000000001FFFFF800000003FE0
FFC000000000003FFFFFF00000003FE0
FFC000000000003FFFFFF80000003FE0
FFC000000000003FFFFFFE0000003FE0
FFC000000000003FFFFFFF0000003FE0
FFC000000000003FFFFFFF8000003FE0
FFC000000000001FFFFFFFC000003FE0
FFC000000000000FFFFFFFE000003FE0
FFC0000000000000000FFFF000003FE0
FFC00000000000000001FFF000003FE0
FFC000000000000000007FF800003FE0
FFC000000000000000003FF800003FE0
FFC000000000000000001FFC00003FE0
FFC000000000000000000FFC00003FE0
FFC000000000000000000FFE00003FE0
FFC0000000000000000007FE00003FE0
FFC0000000000000000007FE00003FE0
FFC0000000000000000007FF00003FE0
FFC0000000000000000003FF00003FE0
FFC0000000000000000003FF00003FE0
FFC0000000000000000003FF00003FE0
FFC0000000000000000003FF00003FE0
FFC0000000000000000003FF00003FE0
FFC0000000000000000003FF00003FE0
FFC0000000000000000003FF00003FE0
FFC0000000000000000007FF00003FE0
FFC000000000000000000FFF00003FE0
FFC0000001FFFFFFFFFFFFFE00003FE0
FFC0000007FFFFFFFFFFFFFE00003FE0
FFC000001FFFFFFFFFFFFFFC00003FE0
FFC000003FFFFFFFFFFFFFFC00003FE0
FFC00000FFFFFFFFFFFFFFF800003FE0
FFC00000FFFFFFFFFFFFFFF800003FE0
FFC00001FFFFFFFFFFFFFFFC00003FE0
FFC00003FFFFFFFFFFFFFFFC00003FE0
FFC00003FFFFFFFFFFFFFFFE00003FE0
FFC00003FF80000000000FFE00003FE0
FFC00007FF000000000007FF00003FE0
FFC00007FE000000000003FF00003FE0
FFC00007FE000000000003FF00003FE0
FFC00007FE000000000003FF00003FE0
FFC00007FE000000000003FF00003FE0
FFC00007FE000000000003FF00003FE0
FFC00007FE000000000003FF00003FE0
FFC00007FE000000000003FF00003FE0
FFC00007FF000000000003FF00003FE0
FFC00003FF000000000003FF00003FE0
FFC00003FF000000000003FF00003FE0
FFC00003FF800000000003FF00003FE0
FFC00003FF800000000003FF00003FE0
FFC00001FFC00000000003FF00003FE0
FFC00001FFE00000000003FF00003FE0
FFC00000FFF00000000003FF00003FE0
FFC00000FFFC0000000007FF80007FE0
FFC000007FFF800000000FFFC000FFC0
FFC000003FFFFFFFFFFFFFFFFFFFFFC0
FFC000001FFFFFFFFFFFFFFFFFFFFFC0
FFC000001FFFFFFFFFFFFFFFFFFFFF80
FFC000000FFFFFFFFFFFFFFFFFFFFF00
FFC0000003FFFFFFFFFFFFFFFFFFFF00
FFC0000001FFFFFFFFFFFFFFFFFFFC00
FFC00000007FFFFFFFFFFF9FFFFFF800
FFC00000001FFFFFFFFFFE07FFFFE000
FFC000000001FFFFFFFFF801FFFF8000
FFC00000000000000000000000000000
FFE00000000000000000000000000000
7FE00000000000000000000000000000
7FE00000000000000000000000000000
7FE00000000000000000000000000000
7FF00000000000000000000000000000
3FF00000000000000000000000000000
3FF80000000000000000000000000000
3FF80000000000000000000000000000
1FFC0000000000000000000000000000
1FFC0000000000000000000000000000
0FFE0000000000000000000000000000
0FFF0000000000000000000000000000
07FF8000000000000000000000000000
07FFC000000000000000000000000000
03FFF000000000000000000000000000
01FFFC00000000000000000000000000
01FFFF00000000000000000000000000
00FFFFF0000000000000000000000000
007FFFFFFFFFFFFFFFFFFFF800000000
003FFFFFFFFFFFFFFFFFFFFE00000000
001FFFFFFFFFFFFFFFFFFFFE00000000
000FFFFFFFFFFFFFFFFFFFFF00000000
0003FFFFFFFFFFFFFFFFFFFF00000000
0001FFFFFFFFFFFFFFFFFFFF00000000
00007FFFFFFFFFFFFFFFFFFF00000000
00001FFFFFFFFFFFFFFFFFFE00000000
000003FFFFFFFFFFFFFFFFFE00000000
0000001FFFFFFFFFFFFFFFF800000000
ENDCHAR
STARTCHAR 0041
ENCODING 65
SWIDTH 416 0
DWIDTH 75 0
BBX 67 123 4 0
BITMAP
0000001FFF00000000
000003FFFFF8000000
00001FFFFFFF000000
00007FFFFFFFC00000
0001FFFFFFFFF00000
0003FFFFFFFFF80000
000FFFFFFFFFFE0000
001FFFFFFFFFFF0000
003FFFFFFFFFFF8000
007FFFFFFFFFFFC000
00FFFFF001FFFFE000
01FFFF00001FFFF000
01FFFC000003FFF000
03FFF0000001FFF800
07FFC00000007FFC00
07FF800000003FFC00
0FFF000000001FFE00
1FFE000000000FFE00
1FFE0000000007FF00
1FFC0000000007FF00
3FF80000000003FF80
3FF80000000003FF80
7FF00000000001FF80
7FF00000000001FFC0
7FE00000000000FFC0
7FE00000000000FFC0
7FE00000000000FFC0
FFE00000000000FFE0
FFC000000000007FE0
FFC000000000007FE0
FFC000000000007FE0
FFC000000000007FE0
FFC000000000007FE0
FFC000000000007FE0
FFC000000000007FE0
FFC000000000007FE0
FFC000000000007FE0
FFC000000000007FE0
FFC000000000007FE0
FFC000000000007FE0
FFC000000000007FE0
FFC000000000007FE0
FFC000000000007FE0
FFC000000000007FE0
FFC000000000007FE0
FFC000000000007FE0
FFC000000000007FE0
FFC000000000007FE0
FFC000000000007FE0
FFC000000000007FE0
FFC000000000007FE0
FFC000000000007FE0
FFC000000000007FE0
FFC000000000007FE0
FFC000000000007FE0
FFE00000000000FFE0
7FF00000000001FFC0
7FFFFFFFFFFFFFFFC0
7FFFFFFFFFFFFFFFC0
3FFFFFFFFFFFFFFF80
1FFFFFFFFFFFFFFF00
1FFFFFFFFFFFFFFF00
1FFFFFFFFFFFFFFF00
3FFFFFFFFFFFFFFF80
7FFFFFFFFFFFFFFFC0
7FFFFFFFFFFFFFFFC0
7FF00000000001FFC0
FFE00000000000FFE0
FFC000000000007FE0
FFC000000000007FE0
FFC000000000007FE0
FFC000000000007FE0
FFC000000000007FE0
FFC000000000007FE0
FFC000000000007FE0
FFC000000000007FE0
FFC000000000007FE0
FFC000000000007FE0
FFC000000000007FE0
FFC000000000007FE0
FFC000000000007FE0
FFC000000000007FE0
FFC000000000007FE0
FFC000000000007FE0
FFC000000000007FE0
FFC000000000007FE0
FFC000000000007FE0
FFC000000000007FE0
FFC000000000007FE0
FFC000000000007FE0
FFC000000000007FE0
FFC000000000007FE0
FFC000000000007FE0
FFC000000000007FE0
FFC000000000007FE0
FFC000000000007FE0
FFC000000000007FE0
FFC000000000007FE0
FFC000000000007FE0
FFC000000000007FE0
FFC000000000007FE0
FFC000000000007FE0
FFC000000000007FE0
FFC000000000007FE0
FFC000000000007FE0
FFC000000000007FE0
FFC000000000007FE0
FFC000000000007FE0
FFC000000000007FE0
FFC000000000007FE0
FFC000000000007FE0
FFC000000000007FE0
FFC000000000007FE0
FFC000000000007FE0
FFC000000000007FE0
FFC000000000007FE0
FFC000000000007FE0
FFC000000000007FE0
FFC000000000007FE0
FFC000000000007FE0
FF8000000000007FC0
7F8000000000003FC0
1E0000000000000F00
ENDCHAR
STARTCHAR 0042
ENCODING 66
SWIDTH 416 0
DWIDTH 75 0
BBX 67 123 4 0
BITMAP
003FFFFFFF00000000
01FFFFFFFFF0000000
03FFFFFFFFFE000000
07FFFFFFFFFF800000
0FFFFFFFFFFFE00000
1FFFFFFFFFFFF80000
3FFFFFFFFFFFFC0000
3FFFFFFFFFFFFF0000
7FFFFFFFFFFFFF8000
7FFFFFFFFFFFFFC000
FFF0000001FFFFE000
FFE00000001FFFF000
FFC000000007FFF800
FFC000000001FFF800
FFC000000000FFFC00
FFC0000000003FFE00
FFC0000000001FFE00
FFC0000000000FFF00
FFC00000000007FF00
FFC00000000007FF80
FFC00000000003FF80
FFC00000000003FF80
FFC00000000001FFC0
FFC00000000001FFC0
FFC00000000000FFC0
FFC00000000000FFC0
FFC00000000000FFC0
FFC00000000000FFE0
FFC000000000007FE0
FFC000000000007FE0
FFC000000000007FE0
FFC000000000007FE0
FFC000000000007FE0
FFC000000000007FE0
FFC000000000007FE0
FFC000000000007FE0
FFC000000000007FE0
FFC000000000007FE0
FFC000000000007FE0
FFC00000000000FFE0
FFC00000000000FFC0
FFC00000000000FFC0
FFC00000000000FFC0
FFC00000000001FFC0
FFC00000000001FF80
FFC00000000001FF80
FFC00000000003FF80
FFC00000000007FF00
FFC00000000007FF00
FFC0000000000FFF00
FFC0000000001FFE00
FFC0000000003FFC00
FFC0000000007FFC00
FFC000000001FFF800
FFC000000007FFF000
FFE00000001FFFE000
7FF0000001FFFFC000
7FFFFFFFFFFFFF8000
7FFFFFFFFFFFFF0000
3FFFFFFFFFFFFE0000
1FFFFFFFFFFFF80000
1FFFFFFFFFFFF00000
1FFFFFFFFFFFF80000
3FFFFFFFFFFFFC0000
7FFFFFFFFFFFFF0000
7FFFFFFFFFFFFF8000
7FF0000001FFFFC000
FFE00000001FFFE000
FFC000000007FFF000
FFC000000001FFF800
FFC000000000FFF800
FFC0000000003FFC00
FFC0000000001FFE00
FFC0000000000FFE00
FFC0000000000FFF00
FFC00000000007FF00
FFC00000000003FF80
FFC00000000003FF80
FFC00000000001FF80
FFC00000000001FFC0
FFC00000000000FFC0
FFC00000000000FFC0
FFC00000000000FFC0
FFC00000000000FFE0
FFC000000000007FE0
FFC000000000007FE0
FFC000000000007FE0
FFC000000000007FE0
FFC000000000007FE0
FFC000000000007FE0
FFC000000000007FE0
FFC000000000007FE0
FFC000000000007FE0
FFC000000000007FE0
FFC000000000007FE0
FFC00000000000FFE0
FFC00000000000FFC0
FFC00000000000FFC0
FFC00000000000FFC0
FFC00000000001FFC0
FFC00000000001FFC0
FFC00000000001FF80
FFC00000000003FF80
FFC00000000007FF80
FFC00000000007FF00
FFC0000000000FFF00
FFC0000000001FFE00
FFC0000000003FFE00
FFC0000000007FFC00
FFC000000001FFF800
FFC000000007FFF800
FFE00000001FFFF000
FFF0000001FFFFE000
7FFFFFFFFFFFFFC000
7FFFFFFFFFFFFF8000
7FFFFFFFFFFFFF0000
3FFFFFFFFFFFFC0000
1FFFFFFFFFFFF80000
1FFFFFFFFFFFE00000
07FFFFFFFFFF800000
03FFFFFFFFFE000000
00FFFFFFFFF0000000
003FFFFFFF00000000
ENDCHAR
STARTCHAR 0043
ENCODING 67
SWIDTH 416 0
DWIDTH 75 0
BBX 67 123 4 0
BITMAP
0000001FFF00000000
000003FFFFF8000000
00001FFFFFFE000000
00007FFFFFFFC00000
0001FFFFFFFFE00000
0003FFFFFFFFF80000
000FFFFFFFFFFC0000
001FFFFFFFFFFE0000
003FFFFFFFFFFF0000
007FFFFFFFFFFF8000
00FFFFF001FFFFC000
01FFFF00001FFFE000
01FFFC000007FFF000
03FFF0000001FFF800
07FFC00000007FF800
07FF800000003FFC00
0FFF000000001FFE00
1FFE000000000FFE00
1FFE000000000FFF00
1FFC0000000007FF00
3FF80000000003FF00
3FF80000000003FF80
7FF00000000001FF80
7FF00000000001FFC0
7FE00000000000FFC0
7FE00000000000FFC0
7FE00000000000FFC0
FFE00000000000FFC0
FFC000000000007FE0
FFC000000000007FE0
FFC000000000007FE0
FFC000000000007FE0
FFC000000000007FE0
FFC000000000007FE0
FFC000000000007FE0
FFC000000000007FE0
FFC000000000003FC0
FFC000000000001F80
FFC000000000000000
FFC000000000000000
FFC000000000000000
FFC000000000000000
FFC000000000000000
FFC000000000000000
FFC000000000000000
FFC000000000000000
FFC000000000000000
FFC000000000000000
FFC000000000000000
FFC000000000000000
FFC000000000000000
FFC000000000000000
FFC000000000000000
FFC000000000000000
FFC000000000000000
FFC000000000000000
FFC000000000000000
FFC000000000000000
FFC000000000000000
FFC000000000000000
FFC000000000000000
FFC000000000000000
FFC000000000000000
FFC000000000000000
FFC000000000000000
FFC000000000000000
FFC000000000000000
FFC000000000000000
FFC000000000000000
FFC000000000000000
FFC000000000000000
FFC000000000000000
FFC000000000000000
FFC000000000000000
FFC000000000000000
FFC000000000000000
FFC000000000000000
FFC000000000000000
FFC000000000000000
FFC000000000000000
FFC000000000000000
FFC000000000000000
FFC000000000000000
FFC000000000000000
FFC000000000000000
FFC000000000001F80
FFC000000000003FC0
FFC000000000007FE0
FFC000000000007FE0
FFC000000000007FE0
FFC000000000007FE0
FFC000000000007FE0
FFC000000000007FE0
FFC000000000007FE0
FFC000000000007FE0
FFE00000000000FFE0
7FE00000000000FFC0
7FE00000000000FFC0
7FE00000000000FFC0
7FF00000000001FFC0
3FF00000000001FF80
3FF80000000003FF80
3FF80000000003FF80
1FFC0000000007FF00
1FFC000000000FFF00
0FFE000000000FFE00
0FFF000000001FFE00
07FF800000003FFC00
07FFC00000007FFC00
03FFF0000001FFF800
01FFF8000007FFF000
01FFFF00001FFFE000
00FFFFF001FFFFE000
007FFFFFFFFFFFC000
003FFFFFFFFFFF8000
001FFFFFFFFFFF0000
000FFFFFFFFFFC0000
0003FFFFFFFFF80000
0001FFFFFFFFF00000
00007FFFFFFFC00000
00001FFFFFFF000000
000003FFFFF8000000
0000001FFF00000000
ENDCHAR
STARTCHAR 0044
ENCODING 68
SWIDTH 416 0
DWIDTH 75 0
BBX 67 123 4 0
BITMAP
003FFFFFFF00000000
01FFFFFFFFF0000000
03FFFFFFFFFE000000
07FFFFFFFFFF800000
0FFFFFFFFFFFE00000
1FFFFFFFFFFFF80000
3FFFFFFFFFFFFC0000
3FFFFFFFFFFFFF0000
7FFFFFFFFFFFFF8000
7FFFFFFFFFFFFFC000
FFF0000001FFFFE000
FFE00000001FFFF000
FFC000000007FFF800
FFC000000001FFF800
FFC000000000FFFC00
FFC0000000003FFE00
FFC0000000001FFE00
FFC0000000000FFF00
FFC00000000007FF00
FFC00000000007FF80
FFC00000000003FF80
FFC00000000003FF80
FFC00000000001FFC0
FFC00000000001FFC0
FFC00000000000FFC0
FFC00000000000FFC0
FFC00000000000FFC0
FFC00000000000FFE0
FFC000000000007FE0
FFC000000000007FE0
FFC000000000007FE0
FFC000000000007FE0
FFC000000000007FE0
FFC000000000007FE0
FFC000000000007FE0
FFC000000000007FE0
FFC000000000007FE0
FFC000000000007FE0
FFC000000000007FE0
FFC000000000007FE0
FFC000000000007FE0
FFC000000000007FE0
FFC000000000007FE0
FFC000000000007FE0
FFC000000000007FE0
FFC000000000007FE0
FFC000000000007FE0
FFC000000000007FE0
FFC000000000007FE0
FFC000000000007FE0
FFC000000000007FE0
FFC000000000007FE0
FFC000000000007FE0
FFC000000000007FE0
FFC000000000007FE0
FFC000000000007FE0
FFC000000000007FE0
FFC000000000007FE0
FFC000000000007FE0
FFC000000000007FE0
FFC000000000007FE0
FFC000000000007FE0
FFC000000000007FE0
FFC000000000007FE0
FFC000000000007FE0
FFC000000000007FE0
FFC000000000007FE0
FFC000000000007FE0
FFC000000000007FE0
FFC000000000007FE0
FFC000000000007FE0
FFC000000000007FE0
FFC000000000007FE0
FFC000000000007FE0
FFC000000000007FE0
FFC000000000007FE0
FFC000000000007FE0
FFC000000000007FE0
FFC000000000007FE0
FFC000000000007FE0
FFC000000000007FE0
FFC000000000007FE0
FFC000000000007FE0
FFC000000000007FE0
FFC000000000007FE0
FFC000000000007FE0
FFC000000000007FE0
FFC000000000007FE0
FFC000000000007FE0
FFC000000000007FE0
FFC000000000007FE0
FFC000000000007FE0
FFC000000000007FE0
FFC000000000007FE0
FFC000000000007FE0
FFC00000000000FFE0
FFC00000000000FFC0
FFC00000000000FFC0
FFC00000000000FFC0
FFC00000000001FFC0
FFC00000000001FF80
FFC00000000003FF80
FFC00000000003FF80
FFC00000000007FF00
FFC0000000000FFF00
FFC0000000000FFF00
FFC0000000001FFE00
FFC0000000003FFC00
FFC0000000007FFC00
FFC000000001FFF800
FFC000000007FFF000
FFE00000001FFFF000
FFF0000001FFFFE000
7FFFFFFFFFFFFFC000
7FFFFFFFFFFFFF8000
7FFFFFFFFFFFFF0000
3FFFFFFFFFFFFE0000
1FFFFFFFFFFFF80000
1FFFFFFFFFFFF00000
07FFFFFFFFFFC00000
03FFFFFFFFFF000000
00FFFFFFFFF8000000
003FFFFFFF00000000
ENDCHAR
STARTCHAR 0045
ENCODING 69
SWIDTH 416 0
DWIDTH 75 0
BBX 67 123 4 0
BITMAP
001FFFFFFFFFFFFF00
00FFFFFFFFFFFFFFC0
03FFFFFFFFFFFFFFC0
07FFFFFFFFFFFFFFE0
0FFFFFFFFFFFFFFFE0
1FFFFFFFFFFFFFFFE0
3FFFFFFFFFFFFFFFE0
3FFFFFFFFFFFFFFFC0
7FFFFFFFFFFFFFFFC0
7FFFFFFFFFFFFFFF00
FFF000000000000000
FFE000000000000000
FFC000000000000000
FFC000000000000000
FFC000000000000000
FFC000000000000000
FFC000000000000000
FFC000000000000000
FFC000000000000000
FFC000000000000000
FFC000000000000000
FFC000000000000000
FFC000000000000000
FFC000000000000000
FFC000000000000000
FFC000000000000000
FFC000000000000000
FFC000000000000000
FFC000000000000000
FFC000000000000000
FFC000000000000000
FFC000000000000000
FFC000000000000000
FFC000000000000000
FFC000000000000000
FFC000000000000000
FFC000000000000000
FFC000000000000000
FFC000000000000000
FFC000000000000000
FFC000000000000000
FFC000000000000000
FFC000000000000000
FFC000000000000000
FFC000000000000000
FFC000000000000000
FFC000000000000000
FFC000000000000000
FFC000000000000000
FFC000000000000000
FFC000000000000000
FFC000000000000000
FFC000000000000000
FFC000000000000000
FFC000000000000000
FFE000000000000000
7FF000000000000000
7FFFFFFFF000000000
7FFFFFFFF800000000
3FFFFFFFFC00000000
1FFFFFFFFC00000000
1FFFFFFFFC00000000
1FFFFFFFFC00000000
3FFFFFFFFC00000000
7FFFFFFFFC00000000
7FFFFFFFF000000000
7FF000000000000000
FFE000000000000000
FFC000000000000000
FFC000000000000000
FFC000000000000000
FFC000000000000000
FFC000000000000000
FFC000000000000000
FFC000000000000000
FFC000000000000000
FFC000000000000000
FFC000000000000000
FFC000000000000000
FFC000000000000000
FFC000000000000000
FFC000000000000000
FFC000000000000000
FFC000000000000000
FFC000000000000000
FFC000000000000000
FFC000000000000000
FFC000000000000000
FFC000000000000000
FFC000000000000000
FFC000000000000000
FFC000000000000000
FFC000000000000000
FFC000000000000000
FFC000000000000000
FFC000000000000000
FFC000000000000000
FFC000000000000000
FFC000000000000000
FFC000000000000000
FFC000000000000000
FFC000000000000000
FFC000000000000000
FFC000000000000000
FFC000000000000000
FFC000000000000000
FFC000000000000000
FFC000000000000000
FFC000000000000000
FFC000000000000000
FFC000000000000000
FFE000000000000000
FFF000000000000000
7FFFFFFFFFFFFFFF00
7FFFFFFFFFFFFFFF80
3FFFFFFFFFFFFFFFC0
3FFFFFFFFFFFFFFFE0
1FFFFFFFFFFFFFFFE0
0FFFFFFFFFFFFFFFE0
07FFFFFFFFFFFFFFE0
03FFFFFFFFFFFFFFC0
00FFFFFFFFFFFFFFC0
003FFFFFFFFFFFFF00
ENDCHAR
STARTCHAR 0046
ENCODING 70
SWIDTH 416 0
DWIDTH 75 0
BBX 67 123 4 0
BITMAP
001FFFFFFFFFFFFF00
00FFFFFFFFFFFFFFC0
03FFFFFFFFFFFFFFC0
07FFFFFFFFFFFFFFE0
0FFFFFFFFFFFFFFFE0
1FFFFFFFFFFFFFFFE0
3FFFFFFFFFFFFFFFE0
3FFFFFFFFFFFFFFFC0
7FFFFFFFFFFFFFFFC0
7FFFFFFFFFFFFFFF00
FFF000000000000000
FFE000000000000000
FFC000000000000000
FFC000000000000000
FFC000000000000000
FFC000000000000000
FFC000000000000000
FFC000000000000000
FFC000000000000000
FFC000000000000000
FFC000000000000000
FFC000000000000000
FFC000000000000000
FFC000000000000000
FFC000000000000000
FFC000000000000000
FFC000000000000000
FFC000000000000000
FFC000000000000000
FFC000000000000000
FFC000000000000000
FFC000000000000000
FFC000000000000000
FFC000000000000000
FFC000000000000000
FFC000000000000000
FFC000000000000000
FFC000000000000000
FFC000000000000000
FFC000000000000000
FFC000000000000000
FFC000000000000000
FFC000000000000000
FFC000000000000000
FFC000000000000000
FFC000000000000000
FFC000000000000000
FFC000000000000000
FFC000000000000000
FFC000000000000000
FFC000000000000000
FFC000000000000000
FFC000000000000000
FFC000000000000000
FFC000000000000000
FFE000000000000000
7FF000000000000000
7FFFFFFFF000000000
7FFFFFFFF800000000
3FFFFFFFFC00000000
1FFFFFFFFC00000000
1FFFFFFFFC00000000
1FFFFFFFFC00000000
3FFFFFFFFC00000000
7FFFFFFFFC00000000
7FFFFFFFF000000000
7FF000000000000000
FFE000000000000000
FFC000000000000000
FFC000000000000000
FFC000000000000000
FFC000000000000000
FFC000000000000000
FFC000000000000000
FFC000000000000000
FFC000000000000000
FFC000000000000000
FFC000000000000000
FFC000000000000000
FFC000000000000000
FFC000000000000000
FFC000000000000000
FFC000000000000000
FFC000000000000000
FFC000000000000000
FFC000000000000000
FFC000000000000000
FFC000000000000000
FFC000000000000000
FFC000000000000000
FFC000000000000000
FFC000000000000000
FFC000000000000000
FFC000000000000000
FFC000000000000000
FFC000000000000000
FFC000000000000000
FFC000000000000000
FFC000000000000000
FFC000000000000000
FFC000000000000000
FFC000000000000000
FFC000000000000000
FFC000000000000000
FFC000000000000000
FFC000000000000000
FFC000000000000000
FFC000000000000000
FFC000000000000000
FFC000000000000000
FFC000000000000000
FFC000000000000000
FFC000000000000000
FFC000000000000000
FFC000000000000000
FFC000000000000000
FFC000000000000000
FFC000000000000000
FFC000000000000000
FFC000000000000000
FF8000000000000000
7F8000000000000000
1E0000000000000000
ENDCHAR
STARTCHAR 0047
ENCODING 71
SWIDTH 416 0
DWIDTH 75 0
BBX 67 123 4 0
BITMAP
0000001FFF00000000
000003FFFFF8000000
00001FFFFFFE000000
00007FFFFFFFC00000
0001FFFFFFFFE00000
0003FFFFFFFFF80000
000FFFFFFFFFFC0000
001FFFFFFFFFFE0000
003FFFFFFFFFFF0000
007FFFFFFFFFFF8000
00FFFFF001FFFFC000
01FFFF00001FFFE000
01FFFC000007FFF000
03FFF0000001FFF800
07FFC00000007FF800
07FF800000003FFC00
0FFF000000001FFE00
1FFE000000000FFE00
1FFE000000000FFF00
1FFC0000000007FF00
3FF80000000003FF00
3FF80000000003FF80
7FF00000000001FF80
7FF00000000001FFC0
7FE00000000000FFC0
7FE00000000000FFC0
7FE00000000000FFC0
FFE00000000000FFC0
FFC000000000007FE0
FFC000000000007FE0
FFC000000000007FE0
FFC000000000007FE0
FFC000000000007FE0
FFC000000000007FE0
FFC000000000007FE0
FFC000000000007FE0
FFC000000000003FC0
FFC000000000001F80
FFC000000000000000
FFC000000000000000
FFC000000000000000
FFC000000000000000
FFC000000000000000
FFC000000000000000
FFC000000000000000
FFC000000000000000
FFC000000000000000
FFC000000000000000
FFC000000000000000
FFC000000000000000
FFC000000000000000
FFC000000000000000
FFC000000000000000
FFC000000000000000
FFC000000000000000
FFC000000000000000
FFC000000000000000
FFC00001FFFFFF0000
FFC00007FFFFFFE000
FFC00007FFFFFFF800
FFC00007FFFFFFFC00
FFC00007FFFFFFFE00
FFC00007FFFFFFFF00
FFC00007FFFFFFFF80
FFC00003FFFFFFFF80
FFC00001FFFFFFFFC0
FFC00000000001FFC0
FFC00000000000FFE0
FFC000000000007FE0
FFC000000000007FE0
FFC000000000007FE0
FFC000000000007FE0
FFC000000000007FE0
FFC000000000007FE0
FFC000000000007FE0
FFC000000000007FE0
FFC000000000007FE0
FFC000000000007FE0
FFC000000000007FE0
FFC000000000007FE0
FFC000000000007FE0
FFC000000000007FE0
FFC000000000007FE0
FFC000000000007FE0
FFC000000000007FE0
FFC000000000007FE0
FFC000000000007FE0
FFC000000000007FE0
FFC000000000007FE0
FFC000000000007FE0
FFC000000000007FE0
FFC000000000007FE0
FFC000000000007FE0
FFC000000000007FE0
FFC000000000007FE0
FFE000000000007FE0
7FE000000000007FE0
7FE000000000007FE0
7FE000000000007FE0
7FF000000000007FE0
3FF000000000007FE0
3FF800000000007FE0
3FF800000000007FE0
1FFC00000000007FE0
1FFC00000000007FE0
0FFE00000000007FE0
0FFF00000000007FE0
07FF80000000007FE0
07FFC0000000007FE0
03FFF0000000007FE0
01FFF8000000007FE0
01FFFF00000000FFE0
00FFFFF0000001FFE0
007FFFFFFFFFFFFFC0
003FFFFFFFFFFFFFC0
001FFFFFFFFFFFFFC0
000FFFFFFFFFFFFF80
0003FFFFFFFFFFFF00
0001FFFFFFFFFFFE00
00007FFFFFFFFFFC00
00001FFFFFFFFFF800
000003FFFFFFFFE000
0000001FFFFFFF8000
ENDCHAR
STARTCHAR 0048
ENCODING 72
SWIDTH 416 0
DWIDTH 75 0
BBX 67 123 4 0
BITMAP
1E0000000000000F00
7F8000000000003FC0
7F8000000000003FC0
FFC000000000007FE0
FFC000000000007FE0
FFC000000000007FE0
FFC000000000007FE0
FFC000000000007FE0
FFC000000000007FE0
FFC000000000007FE0
FFC000000000007FE0
FFC000000000007FE0
FFC000000000007FE0
FFC000000000007FE0
FFC000000000007FE0
FFC000000000007FE0
FFC000000000007FE0
FFC000000000007FE0
FFC000000000007FE0
FFC000000000007FE0
FFC000000000007FE0
FFC000000000007FE0
FFC000000000007FE0
FFC000000000007FE0
FFC000000000007FE0
FFC000000000007FE0
FFC000000000007FE0
FFC000000000007FE0
FFC000000000007FE0
FFC000000000007FE0
FFC000000000007FE0
FFC000000000007FE0
FFC000000000007FE0
FFC000000000007FE0
FFC000000000007FE0
FFC000000000007FE0
FFC000000000007FE0
FFC000000000007FE0
FFC000000000007FE0
FFC000000000007FE0
FFC000000000007FE0
FFC000000000007FE0
FFC000000000007FE0
FFC000000000007FE0
FFC000000000007FE0
FFC000000000007FE0
FFC000000000007FE0
FFC000000000007FE0
FFC000000000007FE0
FFC000000000007FE0
FFC000000000007FE0
FFC000000000007FE0
FFC000000000007FE0
FFC000000000007FE0
FFC000000000007FE0
FFE00000000000FFE0
7FF00000000001FFC0
7FFFFFFFFFFFFFFFC0
7FFFFFFFFFFFFFFFC0
3FFFFFFFFFFFFFFF80
1FFFFFFFFFFFFFFF00
1FFFFFFFFFFFFFFF00
1FFFFFFFFFFFFFFF00
3FFFFFFFFFFFFFFF80
7FFFFFFFFFFFFFFFC0
7FFFFFFFFFFFFFFFC0
7FF00000000001FFC0
FFE00000000000FFE0
FFC000000000007FE0
FFC000000000007FE0
FFC000000000007FE0
FFC000000000007FE0
FFC000000000007FE0
FFC000000000007FE0
FFC000000000007FE0
FFC000000000007FE0
FFC000000000007FE0
FFC000000000007FE0
FFC000000000007FE0
FFC000000000007FE0
FFC000000000007FE0
FFC000000000007FE0
FFC000000000007FE0
FFC000000000007FE0
FFC000000000007FE0
FFC000000000007FE0
FFC000000000007FE0
FFC000000000007FE0
FFC000000000007FE0
FFC000000000007FE0
FFC000000000007FE0
FFC000000000007FE0
FFC000000000007FE0
FFC000000000007FE0
FFC000000000007FE0
FFC000000000007FE0
FFC000000000007FE0
FFC000000000007FE0
FFC000000000007FE0
FFC000000000007FE0
FFC000000000007FE0
FFC000000000007FE0
FFC000000000007FE0
FFC000000000007FE0
FFC000000000007FE0
FFC000000000007FE0
FFC000000000007FE0
FFC000000000007FE0
FFC000000000007FE0
FFC000000000007FE0
FFC000000000007FE0
FFC000000000007FE0
FFC000000000007FE0
FFC000000000007FE0
FFC000000000007FE0
FFC000000000007FE0
FFC000000000007FE0
FFC000000000007FE0
FFC000000000007FE0
FFC000000000007FE0
FF8000000000007FC0
7F8000000000003FC0
1E0000000000000F00
ENDCHAR
STARTCHAR 0049
ENCODING 73
SWIDTH 416 0
DWIDTH 75 0
BBX 66 123 5 0
BITMAP
3FFFFFE001FFFFFF00
7FFFFFFC0FFFFFFF80
FFFFFFFF3FFFFFFFC0
FFFFFFFFFFFFFFFFC0
FFFFFFFFFFFFFFFFC0
FFFFFFFFFFFFFFFFC0
FFFFFFFFFFFFFFFFC0
FFFFFFFFFFFFFFFFC0
7FFFFFFFFFFFFFFF80
3FFFFFFFFFFFFFFF00
0000003FFF00000000
0000001FFE00000000
0000000FFC00000000
0000000FFC00000000
0000000FFC00000000
0000000FFC00000000
0000000FFC00000000
0000000FFC00000000
0000000FFC00000000
0000000FFC00000000
0000000FFC00000000
0000000FFC00000000
0000000FFC00000000
0000000FFC00000000
0000000FFC00000000
0000000FFC00000000
0000000FFC00000000
0000000FFC00000000
0000000FFC00000000
0000000FFC00000000
0000000FFC00000000
0000000FFC00000000
0000000FFC00000000
0000000FFC00000000
0000000FFC00000000
0000000FFC00000000
0000000FFC00000000
0000000FFC00000000
0000000FFC00000000
0000000FFC00000000
0000000FFC00000000
0000000FFC00000000
0000000FFC00000000
0000000FFC00000000
0000000FFC00000000
0000000FFC00000000
0000000FFC00000000
0000000FFC00000000
0000000FFC00000000
0000000FFC00000000
0000000FFC00000000
0000000FFC00000000
0000000FFC00000000
0000000FFC00000000
0000000FFC00000000
0000000FFC00000000
0000000FFC00000000
0000000FFC00000000
0000000FFC00000000
0000000FFC00000000
0000000FFC00000000
0000000FFC00000000
0000000FFC00000000
0000000FFC00000000
0000000FFC00000000
0000000FFC00000000
0000000FFC00000000
0000000FFC00000000
0000000FFC00000000
0000000FFC00000000
0000000FFC00000000
0000000FFC00000000
0000000FFC00000000
0000000FFC00000000
0000000FFC00000000
0000000FFC00000000
0000000FFC00000000
0000000FFC00000000
0000000FFC00000000
0000000FFC00000000
0000000FFC00000000
0000000FFC00000000
0000000FFC00000000
0000000FFC00000000
0000000FFC00000000
0000000FFC00000000
0000000FFC00000000
0000000FFC00000000
0000000FFC00000000
0000000FFC00000000
0000000FFC00000000
0000000FFC00000000
0000000FFC00000000
0000000FFC00000000
0000000FFC00000000
0000000FFC00000000
0000000FFC00000000
0000000FFC00000000
0000000FFC00000000
0000000FFC00000000
0000000FFC00000000
0000000FFC00000000
0000000FFC00000000
0000000FFC00000000
0000000FFC00000000
0000000FFC00000000
0000000FFC00000000
0000000FFC00000000
0000000FFC00000000
0000000FFC00000000
0000000FFC00000000
0000001FFE00000000
0000003FFF00000000
3FFFFFFFFFFFFFFF00
7FFFFFFFFFFFFFFF80
FFFFFFFFFFFFFFFFC0
FFFFFFFFFFFFFFFFC0
FFFFFFFFFFFFFFFFC0
FFFFFFFFFFFFFFFFC0
FFFFFFFFFFFFFFFFC0
FFFFFFFF3FFFFFFFC0
7FFFFFFC0FFFFFFF80
3FFFFFF003FFFFFF00
ENDCHAR
STARTCHAR 004A
ENCODING 74
SWIDTH 416 0
DWIDTH 75 0
BBX 67 123 4 0
BITMAP
000000000000000F00
000000000000003FC0
000000000000003FC0
000000000000007FE0
000000000000007FE0
000000000000007FE0
000000000000007FE0
000000000000007FE0
000000000000007FE0
000000000000007FE0
000000000000007FE0
000000000000007FE0
000000000000007FE0
000000000000007FE0
000000000000007FE0
000000000000007FE0
000000000000007FE0
000000000000007FE0
000000000000007FE0
000000000000007FE0
000000000000007FE0
000000000000007FE0
000000000000007FE0
000000000000007FE0
000000000000007FE0
000000000000007FE0
000000000000007FE0
000000000000007FE0
000000000000007FE0
000000000000007FE0
000000000000007FE0
000000000000007FE0
000000000000007FE0
000000000000007FE0
000000000000007FE0
000000000000007FE0
000000000000007FE0
000000000000007FE0
000000000000007FE0
000000000000007FE0
000000000000007FE0
000000000000007FE0
000000000000007FE0
000000000000007FE0
000000000000007FE0
000000000000007FE0
000000000000007FE0
000000000000007FE0
000000000000007FE0
000000000000007FE0
000000000000007FE0
000000000000007FE0
000000000000007FE0
000000000000007FE0
000000000000007FE0
000000000000007FE0
000000000000007FE0
000000000000007FE0
000000000000007FE0
000000000000007FE0
000000000000007FE0
000000000000007FE0
000000000000007FE0
000000000000007FE0
000000000000007FE0
000000000000007FE0
000000000000007FE0
000000000000007FE0
000000000000007FE0
000000000000007FE0
000000000000007FE0
000000000000007FE0
000000000000007FE0
000000000000007FE0
000000000000007FE0
000000000000007FE0
000000000000007FE0
000000000000007FE0
000000000000007FE0
000000000000007FE0
000000000000007FE0
000000000000007FE0
000000000000007FE0
000000000000007FE0
000000000000007FE0
3F0000000000007FE0
7F8000000000007FE0
FF8000000000007FE0
FFC000000000007FE0
FFC000000000007FE0
FFC000000000007FE0
FFC000000000007FE0
FFC000000000007FE0
FFC000000000007FE0
FFC000000000007FE0
7FC00000000000FFE0
7FC00000000000FFC0
7FE00000000000FFC0
7FE00000000000FFC0
3FF00000000001FFC0
3FF00000000001FF80
3FF00000000003FF80
1FF80000000003FF80
1FF80000000007FF00
1FFC000000000FFF00
0FFE000000000FFE00
0FFF000000001FFE00
07FF800000003FFC00
03FFC00000007FFC00
03FFE0000001FFF800
01FFF8000007FFF000
00FFFF00001FFFE000
007FFFE001FFFFE000
003FFFFFFFFFFFC000
003FFFFFFFFFFF8000
000FFFFFFFFFFF0000
0007FFFFFFFFFC0000
0003FFFFFFFFF80000
0000FFFFFFFFF00000
00007FFFFFFFC00000
00000FFFFFFF000000
000003FFFFF8000000
0000001FFF00000000
ENDCHAR
STARTCHAR 004B
ENCODING 75
SWIDTH 416 0
DWIDTH 75 0
BBX 67 123 4 0
BITMAP
1E0000000000000F00
7F8000000000003FC0
7F8000000000003FC0
FFC000000000007FE0
FFC000000000007FE0
FFC000000000007FE0
FFC000000000007FE0
FFC000000000007FE0
FFC000000000007FE0
FFC000000000007FE0
FFC000000000007FE0
FFC000000000007FE0
FFC000000000007FE0
FFC000000000007FE0
FFC000000000007FE0
FFC000000000007FE0
FFC000000000007FE0
FFC000000000007FE0
FFC000000000007FE0
FFC000000000007FE0
FFC000000000007FE0
FFC000000000007FE0
FFC000000000007FE0
FFC000000000007FE0
FFC000000000007FE0
FFC000000000007FE0
FFC000000000007FE0
FFC000000000007FE0
FFC000000000007FE0
FFC000000000007FE0
FFC000000000007FE0
FFC000000000007FE0
FFC000000000007FE0
FFC000000000007FE0
FFC000000000007FE0
FFC000000000007FE0
FFC000000000007FE0
FFC000000000007FE0
FFC000000000007FE0
FFC00000000000FFE0
FFC00000000000FFC0
FFC00000000000FFC0
FFC00000000000FFC0
FFC00000000001FFC0
FFC00000000001FF80
FFC00000000003FF80
FFC00000000003FF80
FFC00000000007FF00
FFC00000000007FF00
FFC0000000000FFF00
FFC0000000001FFE00
FFC0000000003FFC00
FFC000000000FFFC00
FFC000000001FFF800
FFC000000007FFF000
FFE00000001FFFE000
7FF0000001FFFFC000
7FFFFFFFFFFFFF8000
7FFFFFFFFFFFFF0000
3FFFFFFFFFFFFE0000
1FFFFFFFFFFFF80000
1FFFFFFFFFFFF00000
1FFFFFFFFFFFF80000
3FFFFFFFFFFFFC0000
7FFFFFFFFFFFFF0000
7FFFFFFFFFFFFF8000
7FF0000001FFFFC000
FFE00000001FFFE000
FFC000000007FFF000
FFC000000001FFF800
FFC000000000FFF800
FFC0000000003FFC00
FFC0000000001FFE00
FFC0000000000FFE00
FFC0000000000FFF00
FFC00000000007FF00
FFC00000000003FF80
FFC00000000003FF80
FFC00000000001FF80
FFC00000000001FFC0
FFC00000000000FFC0
FFC00000000000FFC0
FFC00000000000FFC0
FFC00000000000FFE0
FFC000000000007FE0
FFC000000000007FE0
FFC000000000007FE0
FFC000000000007FE0
FFC000000000007FE0
FFC000000000007FE0
FFC000000000007FE0
FFC000000000007FE0
FFC000000000007FE0
FFC000000000007FE0
FFC000000000007FE0
FFC000000000007FE0
FFC000000000007FE0
FFC000000000007FE0
FFC000000000007FE0
FFC000000000007FE0
FFC000000000007FE0
FFC000000000007FE0
FFC000000000007FE0
FFC000000000007FE0
FFC000000000007FE0
FFC000000000007FE0
FFC000000000007FE0
FFC000000000007FE0
FFC000000000007FE0
FFC000000000007FE0
FFC000000000007FE0
FFC000000000007FE0
FFC000000000007FE0
FFC000000000007FE0
FFC000000000007FE0
FFC000000000007FE0
FFC000000000007FE0
FFC000000000007FE0
FFC000000000007FE0
FFC000000000007FE0
FF8000000000007FC0
7F8000000000003FC0
1E0000000000000F00
ENDCHAR
STARTCHAR 004C
ENCODING 76
SWIDTH 416 0
DWIDTH 75 0
BBX 67 123 4 0
BITMAP
1E0000000000000000
7F8000000000000000
7F8000000000000000
FFC000000000000000
FFC000000000000000
FFC000000000000000
FFC000000000000000
FFC000000000000000
FFC000000000000000
FFC000000000000000
FFC000000000000000
FFC000000000000000
FFC000000000000000
FFC000000000000000
FFC000000000000000
FFC000000000000000
FFC000000000000000
FFC000000000000000
FFC000000000000000
FFC000000000000000
FFC000000000000000
FFC000000000000000
FFC000000000000000
FFC000000000000000
FFC000000000000000
FFC000000000000000
FFC000000000000000
FFC000000000000000
FFC000000000000000
FFC000000000000000
FFC000000000000000
FFC000000000000000
FFC000000000000000
FFC000000000000000
FFC000000000000000
FFC000000000000000
FFC000000000000000
FFC000000000000000
FFC000000000000000
FFC000000000000000
FFC000000000000000
FFC000000000000000
FFC000000000000000
FFC000000000000000
FFC000000000000000
FFC000000000000000
FFC000000000000000
FFC000000000000000
FFC000000000000000
FFC000000000000000
FFC000000000000000
FFC000000000000000
FFC000000000000000
FFC000000000000000
FFC000000000000000
FFC000000000000000
FFC000000000000000
FFC000000000000000
FFC000000000000000
FFC000000000000000
FFC000000000000000
FFC000000000000000
FFC000000000000000
FFC000000000000000
FFC000000000000000
FFC000000000000000
FFC000000000000000
FFC000000000000000
FFC000000000000000
FFC000000000000000
FFC000000000000000
FFC000000000000000
FFC000000000000000
FFC000000000000000
FFC000000000000000
FFC000000000000000
FFC000000000000000
FFC000000000000000
FFC000000000000000
FFC000000000000000
FFC000000000000000
FFC000000000000000
FFC000000000000000
FFC000000000000000
FFC000000000000000
FFC000000000000000
FFC000000000000000
FFC000000000000000
FFC000000000000000
FFC000000000000000
FFC000000000000000
FFC000000000000000
FFC000000000000000
FFC000000000000000
FFC000000000000000
FFC000000000000000
FFC000000000000000
FFC000000000000000
FFC000000000000000
FFC000000000000000
FFC000000000000000
FFC000000000000000
FFC000000000000000
FFC000000000000000
FFC000000000000000
FFC000000000000000
FFC000000000000000
FFC000000000000000
FFC000000000000000
FFC000000000000000
FFC000000000000000
FFE000000000000000
FFF000000000000000
7FFFFFFFFFFFFFFF00
7FFFFFFFFFFFFFFF80
3FFFFFFFFFFFFFFFC0
3FFFFFFFFFFFFFFFE0
1FFFFFFFFFFFFFFFE0
0FFFFFFFFFFFFFFFE0
07FFFFFFFFFFFFFFE0
03FFFFFFFFFFFFFFC0
00FFFFFFFFFFFFFFC0
003FFFFFFFFFFFFF00
ENDCHAR
STARTCHAR 004D
ENCODING 77
SWIDTH 627 0
DWIDTH 113 0
BBX 105 123 4 0
BITMAP
0000001FFFFE003FFFFC00000000
000003FFFFFF81FFFFFFC0000000
00001FFFFFFFE3FFFFFFF8000000
00007FFFFFFFFFFFFFFFFE000000
0001FFFFFFFFFFFFFFFFFF800000
0003FFFFFFFFFFFFFFFFFFE00000
000FFFFFFFFFFFFFFFFFFFF00000
001FFFFFFFFFFFFFFFFFFFFC0000
003FFFFFFFFFFFFFFFFFFFFE0000
007FFFFFFFFFFFFFFFFFFFFF0000
00FFFFF00003FFF00007FFFF8000
01FFFF000001FFE000007FFFC000
01FFFC000000FFC000001FFFE000
03FFF0000000FFC0000007FFE000
07FFC0000000FFC0000003FFF000
07FF80000000FFC0000000FFF800
0FFF00000000FFC00000007FF800
1FFE00000000FFC00000003FFC00
1FFE00000000FFC00000001FFC00
1FFC00000000FFC00000001FFE00
3FF800000000FFC00000000FFE00
3FF800000000FFC00000000FFE00
7FF000000000FFC000000007FF00
7FF000000000FFC000000007FF00
7FE000000000FFC000000003FF00
7FE000000000FFC000000003FF00
7FE000000000FFC000000003FF00
FFE000000000FFC000000003FF80
FFC000000000FFC000000001FF80
FFC000000000FFC000000001FF80
FFC000000000FFC000000001FF80
FFC000000000FFC000000001FF80
FFC000000000FFC000000001FF80
FFC000000000FFC000000001FF80
FFC000000000FFC000000001FF80
FFC000000000FFC000000001FF80
FFC000000000FFC000000001FF80
FFC000000000FFC000000001FF80
FFC000000000FFC000000001FF80
FFC000000000FFC000000001FF80
FFC000000000FFC000000001FF80
FFC000000000FFC000000001FF80
FFC000000000FFC000000001FF80
FFC000000000FFC000000001FF80
FFC000000000FFC000000001FF80
FFC000000000FFC000000001FF80
FFC000000000FFC000000001FF80
FFC000000000FFC000000001FF80
FFC000000000FFC000000001FF80
FFC000000000FFC000000001FF80
FFC000000000FFC000000001FF80
FFC000000000FFC000000001FF80
FFC000000000FFC000000001FF80
FFC000000000FFC000000001FF80
FFC000000000FFC000000001FF80
FFC000000000FFC000000001FF80
FFC000000000FFC000000001FF80
FFC000000000FFC000000001FF80
FFC000000000FFC000000001FF80
FFC000000000FFC000000001FF80
FFC000000000FFC000000001FF80
FFC000000000FFC000000001FF80
FFC000000000FFC000000001FF80
FFC000000000FFC000000001FF80
FFC000000000FFC000000001FF80
FFC000000000FFC000000001FF80
FFC000000000FFC000000001FF80
FFC000000000FFC000000001FF80
FFC000000000FFC000000001FF80
FFC000000000FFC000000001FF80
FFC000000000FFC000000001FF80
FFC000000000FFC000000001FF80
FFC000000000FFC000000001FF80
FFC000000000FFC000000001FF80
FFC000000000FFC000000001FF80
FFC000000000FFC000000001FF80
FFC000000000FFC000000001FF80
FFC000000000FFC000000001FF80
FFC000000000FFC000000001FF80
FFC000000000FFC000000001FF80
FFC000000000FFC000000001FF80
FFC000000000FFC000000001FF80
FFC000000000FFC000000001FF80
FFC000000000FFC000000001FF80
FFC000000000FFC000000001FF80
FFC000000000FFC000000001FF80
FFC000000000FFC000000001FF80
FFC000000000FFC000000001FF80
FFC000000000FFC000000001FF80
FFC000000000FFC000000001FF80
FFC000000000FFC000000001FF80
FFC000000000FFC000000001FF80
FFC000000000FFC000000001FF80
FFC000000000FFC000000001FF80
FFC000000000FFC000000001FF80
FFC000000000FFC000000001FF80
FFC000000000FFC000000001FF80
FFC000000000FFC000000001FF80
FFC000000000FFC000000001FF80
FFC000000000FFC000000001FF80
FFC000000000FFC000000001FF80
FFC000000000FFC000000001FF80
FFC000000000FFC000000001FF80
FFC000000000FFC000000001FF80
FFC000000000FFC000000001FF80
FFC000000000FFC000000001FF80
FFC000000000FFC000000001FF80
FFC000000000FFC000000001FF80
FFC000000000FFC000000001FF80
FFC000000000FFC000000001FF80
FFC000000000FFC000000001FF80
FFC000000000FFC000000001FF80
FFC000000000FFC000000001FF80
FFC000000000FFC000000001FF80
FFC000000000FFC000000001FF80
FFC000000000FFC000000001FF80
FFC000000000FFC000000001FF80
FFC000000000FFC000000001FF80
FFC000000000FFC000000001FF80
FFC000000000FFC000000001FF80
FF8000000000FF8000000001FF00
7F80000000007F8000000000FF00
1E00000000001E00000000003C00
ENDCHAR
STARTCHAR 004E
ENCODING 78
SWIDTH 416 0
DWIDTH 75 0
BBX 67 123 4 0
BITMAP
0000001FFF00000000
000003FFFFF8000000
00001FFFFFFF000000
00007FFFFFFFC00000
0001FFFFFFFFF00000
0003FFFFFFFFF80000
000FFFFFFFFFFE0000
001FFFFFFFFFFF0000
003FFFFFFFFFFF8000
007FFFFFFFFFFFC000
00FFFFF001FFFFE000
01FFFF00001FFFF000
01FFFC000003FFF000
03FFF0000001FFF800
07FFC00000007FFC00
07FF800000003FFC00
0FFF000000001FFE00
1FFE000000000FFE00
1FFE000000000FFF00
1FFC0000000007FF00
3FF80000000003FF80
3FF80000000003FF80
7FF00000000001FF80
7FF00000000001FFC0
7FE00000000000FFC0
7FE00000000000FFC0
7FE00000000000FFC0
FFE00000000000FFE0
FFC000000000007FE0
FFC000000000007FE0
FFC000000000007FE0
FFC000000000007FE0
FFC000000000007FE0
FFC000000000007FE0
FFC000000000007FE0
FFC000000000007FE0
FFC000000000007FE0
FFC000000000007FE0
FFC000000000007FE0
FFC000000000007FE0
FFC000000000007FE0
FFC000000000007FE0
FFC000000000007FE0
FFC000000000007FE0
FFC000000000007FE0
FFC000000000007FE0
FFC000000000007FE0
FFC000000000007FE0
FFC000000000007FE0
FFC000000000007FE0
FFC000000000007FE0
FFC000000000007FE0
FFC000000000007FE0
FFC000000000007FE0
FFC000000000007FE0
FFC000000000007FE0
FFC000000000007FE0
FFC000000000007FE0
FFC000000000007FE0
FFC000000000007FE0
FFC000000000007FE0
FFC000000000007FE0
FFC000000000007FE0
FFC000000000007FE0
FFC000000000007FE0
FFC000000000007FE0
FFC000000000007FE0
FFC000000000007FE0
FFC000000000007FE0
FFC000000000007FE0
FFC000000000007FE0
FFC000000000007FE0
FFC000000000007FE0
FFC000000000007FE0
FFC000000000007FE0
FFC000000000007FE0
FFC000000000007FE0
FFC000000000007FE0
FFC000000000007FE0
FFC000000000007FE0
FFC000000000007FE0
FFC000000000007FE0
FFC000000000007FE0
FFC000000000007FE0
FFC000000000007FE0
FFC000000000007FE0
FFC000000000007FE0
FFC000000000007FE0
FFC000000000007FE0
FFC000000000007FE0
FFC000000000007FE0
FFC000000000007FE0
FFC000000000007FE0
FFC000000000007FE0
FFC000000000007FE0
FFC000000000007FE0
FFC000000000007FE0
FFC000000000007FE0
FFC000000000007FE0
FFC000000000007FE0
FFC000000000007FE0
FFC000000000007FE0
FFC000000000007FE0
FFC000000000007FE0
FFC000000000007FE0
FFC000000000007FE0
FFC000000000007FE0
FFC000000000007FE0
FFC000000000007FE0
FFC000000000007FE0
FFC000000000007FE0
FFC000000000007FE0
FFC000000000007FE0
FFC000000000007FE0
FFC000000000007FE0
FFC000000000007FE0
FFC000000000007FE0
FFC000000000007FE0
FFC000000000007FE0
FFC000000000007FE0
FF8000000000007FC0
7F8000000000003FC0
1E0000000000000F00
ENDCHAR
STARTCHAR 004F
ENCODING 79
SWIDTH 416 0
DWIDTH 75 0
BBX 67 123 4 0
BITMAP
0000001FFF00000000
000003FFFFF8000000
00001FFFFFFF000000
00007FFFFFFFC00000
0001FFFFFFFFF00000
0003FFFFFFFFF80000
000FFFFFFFFFFE0000
001FFFFFFFFFFF0000
003FFFFFFFFFFF8000
007FFFFFFFFFFFC000
00FFFFF001FFFFE000
01FFFF00001FFFF000
01FFFC000003FFF000
03FFF0000001FFF800
07FFC00000007FFC00
07FF800000003FFC00
0FFF000000001FFE00
1FFE000000000FFE00
1FFE0000000007FF00
1FFC0000000007FF00
3FF80000000003FF80
3FF80000000003FF80
7FF00000000001FF80
7FF00000000001FFC0
7FE00000000000FFC0
7FE00000000000FFC0
7FE00000000000FFC0
FFE00000000000FFE0
FFC000000000007FE0
FFC000000000007FE0
FFC000000000007FE0
FFC000000000007FE0
FFC000000000007FE0
FFC000000000007FE0
FFC000000000007FE0
FFC000000000007FE0
FFC000000000007FE0
FFC000000000007FE0
FFC000000000007FE0
FFC000000000007FE0
FFC000000000007FE0
FFC000000000007FE0
FFC000000000007FE0
FFC000000000007FE0
FFC000000000007FE0
FFC000000000007FE0
FFC000000000007FE0
FFC000000000007FE0
FFC000000000007FE0
FFC000000000007FE0
FFC000000000007FE0
FFC000000000007FE0
FFC000000000007FE0
FFC000000000007FE0
FFC000000000007FE0
FFC000000000007FE0
FFC000000000007FE0
FFC000000000007FE0
FFC000000000007FE0
FFC000000000007FE0
FFC000000000007FE0
FFC000000000007FE0
FFC000000000007FE0
FFC000000000007FE0
FFC000000000007FE0
FFC000000000007FE0
FFC000000000007FE0
FFC000000000007FE0
FFC000000000007FE0
FFC000000000007FE0
FFC000000000007FE0
FFC000000000007FE0
FFC000000000007FE0
FFC000000000007FE0
FFC000000000007FE0
FFC000000000007FE0
FFC000000000007FE0
FFC000000000007FE0
FFC000000000007FE0
FFC000000000007FE0
FFC000000000007FE0
FFC000000000007FE0
FFC000000000007FE0
FFC000000000007FE0
FFC000000000007FE0
FFC000000000007FE0
FFC000000000007FE0
FFC000000000007FE0
FFC000000000007FE0
FFC000000000007FE0
FFC000000000007FE0
FFC000000000007FE0
FFC000000000007FE0
FFC000000000007FE0
FFC000000000007FE0
FFE00000000000FFE0
7FE00000000000FFC0
7FE00000000000FFC0
7FE00000000000FFC0
7FF00000000001FFC0
3FF00000000001FF80
3FF80000000003FF80
3FF80000000003FF80
1FFC0000000007FF00
1FFC000000000FFF00
0FFE000000000FFF00
0FFF000000001FFE00
07FF800000003FFC00
07FFC00000007FFC00
03FFF0000001FFF800
01FFF8000007FFF000
01FFFF00001FFFF000
00FFFFF001FFFFE000
007FFFFFFFFFFFC000
003FFFFFFFFFFF8000
001FFFFFFFFFFF0000
000FFFFFFFFFFE0000
0003FFFFFFFFF80000
0001FFFFFFFFF00000
00007FFFFFFFC00000
00001FFFFFFF000000
000003FFFFF8000000
0000001FFF00000000
ENDCHAR
STARTCHAR 0050
ENCODING 80
SWIDTH 416 0
DWIDTH 75 0
BBX 67 123 4 0
BITMAP
003FFFFFFF00000000
00FFFFFFFFF0000000
03FFFFFFFFFE000000
07FFFFFFFFFF800000
0FFFFFFFFFFFE00000
1FFFFFFFFFFFF80000
3FFFFFFFFFFFFC0000
7FFFFFFFFFFFFF0000
7FFFFFFFFFFFFF8000
7FFFFFFFFFFFFFC000
FFF0000001FFFFE000
FFE00000001FFFF000
FFC000000007FFF800
FFC000000001FFF800
FFC000000000FFFC00
FFC0000000003FFE00
FFC0000000001FFE00
FFC0000000000FFF00
FFC00000000007FF00
FFC00000000007FF80
FFC00000000003FF80
FFC00000000003FF80
FFC00000000001FFC0
FFC00000000001FFC0
FFC00000000000FFC0
FFC00000000000FFC0
FFC00000000000FFC0
FFC00000000000FFE0
FFC000000000007FE0
FFC000000000007FE0
FFC000000000007FE0
FFC000000000007FE0
FFC000000000007FE0
FFC000000000007FE0
FFC000000000007FE0
FFC000000000007FE0
FFC000000000007FE0
FFC000000000007FE0
FFC000000000007FE0
FFC00000000000FFC0
FFC00000000000FFC0
FFC00000000000FFC0
FFC00000000000FFC0
FFC00000000001FFC0
FFC00000000001FF80
FFC00000000001FF80
FFC00000000003FF80
FFC00000000007FF00
FFC00000000007FF00
FFC0000000000FFE00
FFC0000000001FFE00
FFC0000000003FFC00
FFC0000000007FF800
FFC000000001FFF800
FFC000000007FFF000
FFE00000001FFFE000
7FF0000001FFFFC000
7FFFFFFFFFFFFF8000
7FFFFFFFFFFFFF0000
3FFFFFFFFFFFFE0000
1FFFFFFFFFFFF80000
1FFFFFFFFFFFE00000
1FFFFFFFFFFFC00000
3FFFFFFFFFFE000000
7FFFFFFFFFF0000000
7FFFFFFFFF00000000
7FF000000000000000
FFE000000000000000
FFC000000000000000
FFC000000000000000
FFC000000000000000
FFC000000000000000
FFC000000000000000
FFC000000000000000
FFC000000000000000
FFC000000000000000
FFC000000000000000
FFC000000000000000
FFC000000000000000
FFC000000000000000
FFC000000000000000
FFC000000000000000
FFC000000000000000
FFC000000000000000
FFC000000000000000
FFC000000000000000
FFC000000000000000
FFC000000000000000
FFC000000000000000
FFC000000000000000
FFC000000000000000
FFC000000000000000
FFC000000000000000
FFC000000000000000
FFC000000000000000
FFC000000000000000
FFC000000000000000
FFC000000000000000
FFC000000000000000
FFC000000000000000
FFC000000000000000
FFC000000000000000
FFC000000000000000
FFC000000000000000
FFC000000000000000
FFC000000000000000
FFC000000000000000
FFC000000000000000
FFC000000000000000
FFC000000000000000
FFC000000000000000
FFC000000000000000
FFC000000000000000
FFC000000000000000
FFC000000000000000
FFC000000000000000
FFC000000000000000
FFC000000000000000
FFC000000000000000
FFC000000000000000
FF8000000000000000
7F8000000000000000
1E0000000000000000
ENDCHAR
STARTCHAR 0051
ENCODING 81
SWIDTH 416 0
DWIDTH 75 0
BBX 67 122 4 1
BITMAP
0000001FFF00000000
000003FFFFF8000000
00001FFFFFFF000000
00007FFFFFFFC00000
0001FFFFFFFFF00000
0003FFFFFFFFF80000
000FFFFFFFFFFE0000
001FFFFFFFFFFF0000
003FFFFFFFFFFF8000
007FFFFFFFFFFFC000
00FFFFF001FFFFE000
01FFFF00001FFFF000
01FFFC000007FFF000
03FFF0000001FFF800
07FFE00000007FFC00
07FF800000003FFC00
0FFF000000001FFE00
1FFE000000000FFE00
1FFE000000000FFF00
1FFC0000000007FF00
3FF80000000003FF80
3FF80000000003FF80
7FF00000000001FF80
7FF00000000001FFC0
7FE00000000000FFC0
7FE00000000000FFC0
7FE00000000000FFC0
FFE00000000000FFE0
FFC000000000007FE0
FFC000000000007FE0
FFC000000000007FE0
FFC000000000007FE0
FFC000000000007FE0
FFC000000000007FE0
FFC000000000007FE0
FFC000000000007FE0
FFC000000000007FE0
FFC000000000007FE0
FFC000000000007FE0
FFC000000000007FE0
FFC000000000007FE0
FFC000000000007FE0
FFC000000000007FE0
FFC000000000007FE0
FFC000000000007FE0
FFC000000000007FE0
FFC000000000007FE0
FFC000000000007FE0
FFC000000000007FE0
FFC000000000007FE0
FFC000000000007FE0
FFC000000000007FE0
FFC000000000007FE0
FFC000000000007FE0
FFC000000000007FE0
FFC000000000007FE0
FFC000000000007FE0
FFC000000000007FE0
FFC000000000007FE0
FFC000000000007FE0
FFC000000000007FE0
FFC000000000007FE0
FFC000000000007FE0
FFC000000000007FE0
FFC000000000007FE0
FFC000000000007FE0
FFC000000000007FE0
FFC000000000007FE0
FFC000000000007FE0
FFC000000000007FE0
FFC000000000007FE0
FFC000000000007FE0
FFC000000000007FE0
FFC000000000007FE0
FFC000000000007FE0
FFC000000000007FE0
FFC000000000007FE0
FFC000000000007FE0
FFC000000000007FE0
FFC000000000007FE0
FFC000000000007FE0
FFC000000000007FE0
FFC000000000007FE0
FFC000000000007FE0
FFC000000000007FE0
FFC000000000007FE0
FFC00001F800007FE0
FFC00003FC00007FE0
FFC00007FE00007FE0
FFC00007FE00007FE0
FFC00007FE00007FE0
FFC00007FE00007FE0
FFC00007FE00007FE0
FFC00007FE00007FE0
FFC00007FE00007FE0
FFC00007FE00007FE0
7FE00007FE0000FFC0
7FE00007FE0000FFC0
7FE00007FE0000FFC0
7FF00007FE0001FFC0
3FF00007FE0001FF80
3FF00007FE0001FF80
3FF80007FE0003FF80
1FF80007FE0003FF00
1FFC0007FE0007FF00
0FFE0007FE000FFE00
0FFE0007FE000FFE00
07FF0007FE001FFC00
07FF8007FE003FFC00
03FFC007FE007FF800
01FFF007FE00FFF000
00FFFC07FE03FFF000
00FFFF0FFF0FFFE000
007FFFFFFFFFFFC000
003FFFFFFFFFFF8000
001FFFFFFFFFFF0000
0007FFFFFFFFFE0000
0003FFFFFFFFF80000
0001FFFFFFFFF00000
00007FFFBFFFC00000
00001FFF1FFF000000
000003F803F8000000
ENDCHAR
STARTCHAR 0052
ENCODING 82
SWIDTH 416 0
DWIDTH 75 0
BBX 67 123 4 0
BITMAP
003FFFFFFF00000000
01FFFFFFFFF0000000
03FFFFFFFFFE000000
07FFFFFFFFFF800000
0FFFFFFFFFFFE00000
1FFFFFFFFFFFF80000
3FFFFFFFFFFFFC0000
3FFFFFFFFFFFFF0000
7FFFFFFFFFFFFF8000
7FFFFFFFFFFFFFC000
FFF0000001FFFFE000
FFE00000001FFFF000
FFC000000007FFF800
FFC000000001FFF800
FFC000000000FFFC00
FFC0000000003FFE00
FFC0000000001FFE00
FFC0000000000FFF00
FFC00000000007FF00
FFC00000000007FF80
FFC00000000003FF80
FFC00000000003FF80
FFC00000000001FFC0
FFC00000000001FFC0
FFC00000000000FFC0
FFC00000000000FFC0
FFC00000000000FFC0
FFC00000000000FFE0
FFC000000000007FE0
FFC000000000007FE0
FFC000000000007FE0
FFC000000000007FE0
FFC000000000007FE0
FFC000000000007FE0
FFC000000000007FE0
FFC000000000007FE0
FFC000000000007FE0
FFC000000000007FE0
FFC000000000007FE0
FFC00000000000FFE0
FFC00000000000FFC0
FFC00000000000FFC0
FFC00000000000FFC0
FFC00000000001FFC0
FFC00000000001FF80
FFC00000000001FF80
FFC00000000003FF80
FFC00000000007FF00
FFC00000000007FF00
FFC0000000000FFF00
FFC0000000001FFE00
FFC0000000003FFC00
FFC0000000007FFC00
FFC000000001FFF800
FFC000000007FFF000
FFE00000001FFFE000
7FF0000001FFFFC000
7FFFFFFFFFFFFF8000
7FFFFFFFFFFFFF0000
3FFFFFFFFFFFFE0000
1FFFFFFFFFFFF80000
1FFFFFFFFFFFF00000
1FFFFFFFFFFFF80000
3FFFFFFFFFFFFC0000
7FFFFFFFFFFFFF0000
7FFFFFFFFFFFFF8000
7FF0000001FFFFC000
FFE00000001FFFE000
FFC000000007FFF000
FFC000000001FFF800
FFC000000000FFF800
FFC0000000003FFC00
FFC0000000001FFE00
FFC0000000000FFE00
FFC0000000000FFF00
FFC00000000007FF00
FFC00000000003FF80
FFC00000000003FF80
FFC00000000001FF80
FFC00000000001FFC0
FFC00000000000FFC0
FFC00000000000FFC0
FFC00000000000FFC0
FFC00000000000FFE0
FFC000000000007FE0
FFC000000000007FE0
FFC000000000007FE0
FFC000000000007FE0
FFC000000000007FE0
FFC000000000007FE0
FFC000000000007FE0
FFC000000000007FE0
FFC000000000007FE0
FFC000000000007FE0
FFC000000000007FE0
FFC000000000007FE0
FFC000000000007FE0
FFC000000000007FE0
FFC000000000007FE0
FFC000000000007FE0
FFC000000000007FE0
FFC000000000007FE0
FFC000000000007FE0
FFC000000000007FE0
FFC000000000007FE0
FFC000000000007FE0
FFC000000000007FE0
FFC000000000007FE0
FFC000000000007FE0
FFC000000000007FE0
FFC000000000007FE0
FFC000000000007FE0
FFC000000000007FE0
FFC000000000007FE0
FFC000000000007FE0
FFC000000000007FE0
FFC000000000007FE0
FFC000000000007FE0
FFC000000000007FE0
FFC000000000007FE0
FF8000000000007FC0
7F8000000000003FC0
1E0000000000000F00
ENDCHAR
STARTCHAR 0053
ENCODING 83
SWIDTH 416 0
DWIDTH 75 0
BBX 67 123 4 0
BITMAP
0000001FFF00000000
000003FFFFF8000000
00001FFFFFFE000000
00007FFFFFFFC00000
0001FFFFFFFFE00000
0003FFFFFFFFF80000
000FFFFFFFFFFC0000
001FFFFFFFFFFE0000
003FFFFFFFFFFF0000
007FFFFFFFFFFF8000
00FFFFF001FFFFC000
01FFFF00001FFFE000
03FFFC000007FFF000
03FFF0000001FFF800
07FFC00000007FF800
0FFF800000003FFC00
0FFF000000001FFE00
1FFE000000000FFE00
1FFE000000000FFF00
1FFC0000000007FF00
3FF80000000003FF00
3FF80000000003FF80
7FF00000000001FF80
7FF00000000001FFC0
7FE00000000000FFC0
7FE00000000000FFC0
7FE00000000000FFC0
FFE00000000000FFC0
FFC000000000007FE0
FFC000000000007FE0
FFC000000000007FE0
FFC000000000007FE0
FFC000000000007FE0
FFC000000000007FE0
FFC000000000007FE0
FFC000000000007FE0
FFC000000000003FC0
FFC000000000001F80
FFC000000000000000
7FE000000000000000
7FE000000000000000
7FE000000000000000
7FF000000000000000
3FF000000000000000
3FF000000000000000
3FF800000000000000
1FFC00000000000000
1FFC00000000000000
0FFE00000000000000
0FFF00000000000000
07FF80000000000000
07FFC0000000000000
03FFE0000000000000
01FFF0000000000000
01FFFC000000000000
00FFFF800000000000
007FFFF00000000000
003FFFFFFF00000000
001FFFFFFFF8000000
000FFFFFFFFF000000
0003FFFFFFFFC00000
0001FFFFFFFFF00000
00007FFFFFFFF80000
00001FFFFFFFFE0000
000003FFFFFFFF0000
0000001FFFFFFF8000
0000000001FFFFC000
00000000001FFFE000
000000000007FFF000
000000000001FFF000
000000000000FFF800
0000000000007FFC00
0000000000001FFC00
0000000000001FFE00
0000000000000FFE00
00000000000007FF00
00000000000003FF00
00000000000003FF80
00000000000001FF80
00000000000001FF80
00000000000000FFC0
00000000000000FFC0
00000000000000FFC0
00000000000000FFC0
000000000000007FE0
3F0000000000007FE0
7F8000000000007FE0
FFC000000000007FE0
FFC000000000007FE0
FFC000000000007FE0
FFC000000000007FE0
FFC000000000007FE0
FFC000000000007FE0
FFC000000000007FE0
FFC000000000007FE0
FFE00000000000FFE0
7FE00000000000FFC0
7FE00000000000FFC0
7FE00000000000FFC0
7FF00000000001FFC0
3FF00000000001FF80
3FF80000000003FF80
3FF80000000003FF80
1FFC0000000007FF00
1FFE000000000FFF00
0FFE000000000FFF00
0FFF000000001FFE00
07FF800000003FFC00
03FFC00000007FFC00
03FFF0000001FFF800
01FFF8000007FFF800
00FFFF00001FFFF000
007FFFF001FFFFE000
007FFFFFFFFFFFC000
003FFFFFFFFFFF8000
001FFFFFFFFFFF0000
0007FFFFFFFFFE0000
0003FFFFFFFFF80000
0000FFFFFFFFF00000
00007FFFFFFFC00000
00000FFFFFFF000000
000003FFFFF8000000
0000001FFF00000000
ENDCHAR
STARTCHAR 0054
ENCODING 84
SWIDTH 416 0
DWIDTH 75 0
BBX 66 123 5 0
BITMAP
3FFFFFE001FFFFFF00
7FFFFFFC0FFFFFFF80
FFFFFFFF3FFFFFFFC0
FFFFFFFFFFFFFFFFC0
FFFFFFFFFFFFFFFFC0
FFFFFFFFFFFFFFFFC0
FFFFFFFFFFFFFFFFC0
FFFFFFFFFFFFFFFFC0
7FFFFFFFFFFFFFFF80
3FFFFFFFFFFFFFFF00
0000003FFF00000000
0000001FFE00000000
0000000FFC00000000
0000000FFC00000000
0000000FFC00000000
0000000FFC00000000
0000000FFC00000000
0000000FFC00000000
0000000FFC00000000
0000000FFC00000000
0000000FFC00000000
0000000FFC00000000
0000000FFC00000000
0000000FFC00000000
0000000FFC00000000
0000000FFC00000000
0000000FFC00000000
0000000FFC00000000
0000000FFC00000000
0000000FFC00000000
0000000FFC00000000
0000000FFC00000000
0000000FFC00000000
0000000FFC00000000
0000000FFC00000000
0000000FFC00000000
0000000FFC00000000
0000000FFC00000000
0000000FFC00000000
0000000FFC00000000
0000000FFC00000000
0000000FFC00000000
0000000FFC00000000
0000000FFC00000000
0000000FFC00000000
0000000FFC00000000
0000000FFC00000000
0000000FFC00000000
0000000FFC00000000
0000000FFC00000000
0000000FFC00000000
0000000FFC00000000
0000000FFC00000000
0000000FFC00000000
0000000FFC00000000
0000000FFC00000000
0000000FFC00000000
0000000FFC00000000
0000000FFC00000000
0000000FFC00000000
0000000FFC00000000
0000000FFC00000000
0000000FFC00000000
0000000FFC00000000
0000000FFC00000000
0000000FFC00000000
0000000FFC00000000
0000000FFC00000000
0000000FFC00000000
0000000FFC00000000
0000000FFC00000000
0000000FFC00000000
0000000FFC00000000
0000000FFC00000000
0000000FFC00000000
0000000FFC00000000
0000000FFC00000000
0000000FFC00000000
0000000FFC00000000
0000000FFC00000000
0000000FFC00000000
0000000FFC00000000
0000000FFC00000000
0000000FFC00000000
0000000FFC00000000
0000000FFC00000000
0000000FFC00000000
0000000FFC00000000
0000000FFC00000000
0000000FFC00000000
0000000FFC00000000
0000000FFC00000000
0000000FFC00000000
0000000FFC00000000
0000000FFC00000000
0000000FFC00000000
0000000FFC00000000
0000000FFC00000000
0000000FFC00000000
0000000FFC00000000
0000000FFC00000000
0000000FFC00000000
0000000FFC00000000
0000000FFC00000000
0000000FFC00000000
0000000FFC00000000
0000000FFC00000000
0000000FFC00000000
0000000FFC00000000
0000000FFC00000000
0000000FFC00000000
0000000FFC00000000
0000000FFC00000000
0000000FFC00000000
0000000FFC00000000
0000000FFC00000000
0000000FFC00000000
0000000FFC00000000
0000000FFC00000000
0000000FFC00000000
0000000FF800000000
00000007F800000000
00000001E000000000
ENDCHAR
STARTCHAR 0055
ENCODING 85
SWIDTH 416 0
DWIDTH 75 0
BBX 67 123 4 0
BITMAP
1E0000000000000F00
7F8000000000003FC0
7F8000000000003FC0
FFC000000000007FE0
FFC000000000007FE0
FFC000000000007FE0
FFC000000000007FE0
FFC000000000007FE0
FFC000000000007FE0
FFC000000000007FE0
FFC000000000007FE0
FFC000000000007FE0
FFC000000000007FE0
FFC000000000007FE0
FFC000000000007FE0
FFC000000000007FE0
FFC000000000007FE0
FFC000000000007FE0
FFC000000000007FE0
FFC000000000007FE0
FFC000000000007FE0
FFC000000000007FE0
FFC000000000007FE0
FFC000000000007FE0
FFC000000000007FE0
FFC000000000007FE0
FFC000000000007FE0
FFC000000000007FE0
FFC000000000007FE0
FFC000000000007FE0
FFC000000000007FE0
FFC000000000007FE0
FFC000000000007FE0
FFC000000000007FE0
FFC000000000007FE0
FFC000000000007FE0
FFC000000000007FE0
FFC000000000007FE0
FFC000000000007FE0
FFC000000000007FE0
FFC000000000007FE0
FFC000000000007FE0
FFC000000000007FE0
FFC000000000007FE0
FFC000000000007FE0
FFC000000000007FE0
FFC000000000007FE0
FFC000000000007FE0
FFC000000000007FE0
FFC000000000007FE0
FFC000000000007FE0
FFC000000000007FE0
FFC000000000007FE0
FFC000000000007FE0
FFC000000000007FE0
FFC000000000007FE0
FFC000000000007FE0
FFC000000000007FE0
FFC000000000007FE0
FFC000000000007FE0
FFC000000000007FE0
FFC000000000007FE0
FFC000000000007FE0
FFC000000000007FE0
FFC000000000007FE0
FFC000000000007FE0
FFC000000000007FE0
FFC000000000007FE0
FFC000000000007FE0
FFC000000000007FE0
FFC000000000007FE0
FFC000000000007FE0
FFC000000000007FE0
FFC000000000007FE0
FFC000000000007FE0
FFC000000000007FE0
FFC000000000007FE0
FFC000000000007FE0
FFC000000000007FE0
FFC000000000007FE0
FFC000000000007FE0
FFC000000000007FE0
FFC000000000007FE0
FFC000000000007FE0
FFC000000000007FE0
FFC000000000007FE0
FFC000000000007FE0
FFC000000000007FE0
FFC000000000007FE0
FFC000000000007FE0
FFC000000000007FE0
FFC000000000007FE0
FFC000000000007FE0
FFC000000000007FE0
FFC000000000007FE0
FFE00000000000FFE0
7FE00000000000FFC0
7FE00000000000FFC0
7FE00000000000FFC0
7FF00000000001FFC0
3FF00000000001FF80
3FF80000000003FF80
3FF80000000003FF80
1FFC0000000007FF00
1FFC000000000FFF00
0FFE000000000FFF00
0FFF000000001FFE00
07FF800000003FFC00
07FFC00000007FFC00
03FFF0000001FFF800
01FFF8000007FFF000
01FFFF00001FFFF000
00FFFFF001FFFFE000
007FFFFFFFFFFFC000
003FFFFFFFFFFF8000
001FFFFFFFFFFF0000
000FFFFFFFFFFE0000
0003FFFFFFFFF80000
0001FFFFFFFFF00000
00007FFFFFFFC00000
00001FFFFFFF000000
000003FFFFF8000000
0000001FFF00000000
ENDCHAR
STARTCHAR 0056
ENCODING 86
SWIDTH 416 0
DWIDTH 75 0
BBX 67 123 4 0
BITMAP
1E0000000000000F00
7F8000000000003FC0
7F8000000000003FC0
FFC000000000007FE0
FFC000000000007FE0
FFC000000000007FE0
FFC000000000007FE0
FFC000000000007FE0
FFC000000000007FE0
FFC000000000007FE0
FFC000000000007FE0
FFC000000000007FE0
FFC000000000007FE0
FFC000000000007FE0
FFC000000000007FE0
FFC000000000007FE0
FFC000000000007FE0
FFC000000000007FE0
FFC000000000007FE0
FFC000000000007FE0
FFC000000000007FE0
FFC000000000007FE0
FFC000000000007FE0
FFC000000000007FE0
FFC000000000007FE0
FFC000000000007FE0
FFC000000000007FE0
FFC000000000007FE0
FFC000000000007FE0
FFC000000000007FE0
FFC000000000007FE0
FFC000000000007FE0
FFC000000000007FE0
FFC000000000007FE0
FFC000000000007FE0
FFC000000000007FE0
FFC000000000007FE0
FFC000000000007FE0
FFC000000000007FE0
FFC000000000007FE0
FFC000000000007FE0
FFC000000000007FE0
FFC000000000007FE0
FFC000000000007FE0
FFC000000000007FE0
FFC000000000007FE0
FFC000000000007FE0
FFC000000000007FE0
FFC000000000007FE0
FFC000000000007FE0
FFC000000000007FE0
FFC000000000007FE0
FFC000000000007FE0
FFC000000000007FE0
FFC000000000007FE0
FFC000000000007FE0
FFC000000000007FE0
FFC000000000007FE0
FFC000000000007FE0
FFC000000000007FE0
FFC000000000007FE0
FFC000000000007FE0
FFC000000000007FE0
FFC000000000007FE0
FFC000000000007FE0
FFC000000000007FE0
FFC000000000007FE0
FFC000000000007FE0
FFC000000000007FE0
FFC000000000007FE0
FFC000000000007FE0
FFC000000000007FE0
7FE00000000000FFC0
7FE00000000000FFC0
7FE00000000000FFC0
7FE00000000000FFC0
7FE00000000000FFC0
7FE00000000000FFC0
7FF00000000001FFC0
3FF00000000001FF80
3FF00000000001FF80
3FF00000000001FF80
3FF00000000001FF80
3FF80000000003FF80
1FF80000000003FF00
1FF80000000003FF00
1FFC0000000007FF00
0FFC0000000007FE00
0FFE000000000FFE00
0FFE000000000FFE00
07FE000000000FFC00
07FF000000001FFC00
07FF000000001FFC00
03FF800000003FF800
03FFC00000007FF800
01FFC00000007FF000
01FFE0000000FFF000
00FFF0000001FFE000
007FF8000003FFC000
007FF8000007FFC000
003FFC00000FFF8000
001FFE00001FFF0000
001FFF00003FFF0000
000FFFC0007FFE0000
0007FFE000FFFC0000
0003FFF001FFF80000
0001FFF803FFF00000
0000FFFE0FFFE00000
00007FFF1FFFC00000
00003FFFBFFF800000
00001FFFFFFF000000
00000FFFFFFE000000
000003FFFFF8000000
000001FFFFF0000000
000000FFFFE0000000
0000003FFF80000000
0000001FFF00000000
0000000FFE00000000
00000007FC00000000
00000007FC00000000
00000007FC00000000
00000003F800000000
00000001F000000000
ENDCHAR
STARTCHAR 0057
ENCODING 87
SWIDTH 627 0
DWIDTH 113 0
BBX 105 123 4 0
BITMAP
1E00000000001E00000000003C00
7F80000000007F8000000000FF00
7F80000000007F8000000000FF00
FFC000000000FFC000000001FF80
FFC000000000FFC000000001FF80
FFC000000000FFC000000001FF80
FFC000000000FFC000000001FF80
FFC000000000FFC000000001FF80
FFC000000000FFC000000001FF80
FFC000000000FFC000000001FF80
FFC000000000FFC000000001FF80
FFC000000000FFC000000001FF80
FFC000000000FFC000000001FF80
FFC000000000FFC000000001FF80
FFC000000000FFC000000001FF80
FFC000000000FFC000000001FF80
FFC000000000FFC000000001FF80
FFC000000000FFC000000001FF80
FFC000000000FFC000000001FF80
FFC000000000FFC000000001FF80
FFC000000000FFC000000001FF80
FFC000000000FFC000000001FF80
FFC000000000FFC000000001FF80
FFC000000000FFC000000001FF80
FFC000000000FFC000000001FF80
FFC000000000FFC000000001FF80
FFC000000000FFC000000001FF80
FFC000000000FFC000000001FF80
FFC000000000FFC000000001FF80
FFC000000000FFC000000001FF80
FFC000000000FFC000000001FF80
FFC000000000FFC000000001FF80
FFC000000000FFC000000001FF80
FFC000000000FFC000000001FF80
FFC000000000FFC000000001FF80
FFC000000000FFC000000001FF80
FFC000000000FFC000000001FF80
FFC000000000FFC000000001FF80
FFC000000000FFC000000001FF80
FFC000000000FFC000000001FF80
FFC000000000FFC000000001FF80
FFC000000000FFC000000001FF80
FFC000000000FFC000000001FF80
FFC000000000FFC000000001FF80
FFC000000000FFC000000001FF80
FFC000000000FFC000000001FF80
FFC000000000FFC000000001FF80
FFC000000000FFC000000001FF80
FFC000000000FFC000000001FF80
FFC000000000FFC000000001FF80
FFC000000000FFC000000001FF80
FFC000000000FFC000000001FF80
FFC000000000FFC000000001FF80
FFC000000000FFC000000001FF80
FFC000000000FFC000000001FF80
FFC000000000FFC000000001FF80
FFC000000000FFC000000001FF80
FFC000000000FFC000000001FF80
FFC000000000FFC000000001FF80
FFC000000000FFC000000001FF80
FFC000000000FFC000000001FF80
FFC000000000FFC000000001FF80
FFC000000000FFC000000001FF80
FFC000000000FFC000000001FF80
FFC000000000FFC000000001FF80
FFC000000000FFC000000001FF80
FFC000000000FFC000000001FF80
FFC000000000FFC000000001FF80
FFC000000000FFC000000001FF80
FFC000000000FFC000000001FF80
FFC000000000FFC000000001FF80
FFC000000000FFC000000001FF80
FFC000000000FFC000000001FF80
FFC000000000FFC000000001FF80
FFC000000000FFC000000001FF80
FFC000000000FFC000000001FF80
FFC000000000FFC000000001FF80
FFC000000000FFC000000001FF80
FFC000000000FFC000000001FF80
FFC000000000FFC000000001FF80
FFC000000000FFC000000001FF80
FFC000000000FFC000000001FF80
FFC000000000FFC000000001FF80
FFC000000000FFC000000001FF80
FFC000000000FFC000000001FF80
FFC000000000FFC000000001FF80
FFC000000000FFC000000001FF80
FFC000000000FFC000000001FF80
FFC000000000FFC000000001FF80
FFC000000000FFC000000001FF80
FFC000000000FFC000000001FF80
FFC000000000FFC000000001FF80
FFC000000000FFC000000001FF80
FFC000000000FFC000000001FF80
FFC000000000FFC000000001FF80
FFE000000000FFC000000003FF80
7FE000000000FFC000000003FF00
7FE000000000FFC000000003FF00
7FE000000000FFC000000003FF00
7FF000000000FFC000000007FF00
7FF000000000FFC000000007FF00
3FF800000000FFC000000007FE00
3FF800000000FFC00000000FFE00
1FFC00000000FFC00000001FFE00
1FFC00000000FFC00000001FFC00
1FFE00000000FFC00000003FFC00
0FFF00000000FFC00000007FF800
0FFF80000000FFC0000000FFF800
07FFC0000000FFC0000001FFF000
03FFF0000000FFC0000007FFE000
03FFFC000000FFC000001FFFE000
01FFFF000001FFE000007FFFC000
00FFFFF00003FFF00007FFFF8000
007FFFFFFFFFFFFFFFFFFFFF0000
003FFFFFFFFFFFFFFFFFFFFE0000
001FFFFFFFFFFFFFFFFFFFFC0000
000FFFFFFFFFFFFFFFFFFFF00000
0003FFFFFFFFFFFFFFFFFFE00000
0001FFFFFFFFFFFFFFFFFF800000
00007FFFFFFFFFFFFFFFFE000000
00001FFFFFFFE3FFFFFFF8000000
000003FFFFFF81FFFFFFC0000000
0000001FFFFE003FFFFC00000000
ENDCHAR
STARTCHAR 0058
ENCODING 88
SWIDTH 416 0
DWIDTH 75 0
BBX 67 123 4 0
BITMAP
1E0000000000000F00
7F8000000000003FC0
7F8000000000003FC0
FFC000000000007FE0
FFC000000000007FE0
FFC000000000007FE0
FFC000000000007FE0
FFC000000000007FE0
FFC000000000007FE0
FFC000000000007FE0
FFC000000000007FE0
FFC000000000007FE0
FFC000000000007FE0
FFC000000000007FE0
FFC000000000007FE0
FFC000000000007FE0
FFC000000000007FE0
FFC000000000007FE0
FFC000000000007FE0
FFC000000000007FE0
FFC000000000007FE0
FFC000000000007FE0
FFC000000000007FE0
FFC000000000007FE0
FFC000000000007FE0
FFC000000000007FE0
FFC000000000007FE0
FFC000000000007FE0
FFC000000000007FE0
FFC000000000007FE0
FFC000000000007FE0
FFC000000000007FE0
FFC000000000007FE0
FFC000000000007FE0
FFC000000000007FE0
FFC000000000007FE0
FFC000000000007FE0
FFC000000000007FE0
FFC000000000007FE0
7FE00000000000FFC0
7FE00000000000FFC0
7FE00000000000FFC0
7FF00000000001FFC0
3FF00000000001FF80
3FF00000000001FF80
3FF80000000003FF80
1FFC0000000003FF00
1FFC0000000007FF00
0FFE000000000FFF00
0FFF000000001FFE00
07FF800000001FFC00
07FFC00000003FFC00
03FFE0000000FFF800
03FFF0000001FFF800
01FFFC000007FFF000
00FFFF00001FFFE000
007FFFF001FFFFC000
003FFFFFFFFFFF8000
001FFFFFFFFFFF0000
000FFFFFFFFFFE0000
0007FFFFFFFFFC0000
0001FFFFFFFFF00000
0007FFFFFFFFFC0000
000FFFFFFFFFFE0000
001FFFFFFFFFFF0000
003FFFFFFFFFFF8000
007FFFF001FFFFC000
00FFFF80001FFFE000
01FFFC000007FFF000
03FFF0000001FFF000
03FFE0000000FFF800
07FFC00000007FFC00
07FF800000001FFC00
0FFF000000001FFE00
1FFE000000000FFE00
1FFC0000000007FF00
1FFC0000000003FF00
3FF80000000003FF80
3FF00000000001FF80
3FF00000000001FF80
7FF00000000001FFC0
7FE00000000000FFC0
7FE00000000000FFC0
7FE00000000000FFC0
FFC000000000007FE0
FFC000000000007FE0
FFC000000000007FE0
FFC000000000007FE0
FFC000000000007FE0
FFC000000000007FE0
FFC000000000007FE0
FFC000000000007FE0
FFC000000000007FE0
FFC000000000007FE0
FFC000000000007FE0
FFC000000000007FE0
FFC000000000007FE0
FFC000000000007FE0
FFC000000000007FE0
FFC000000000007FE0
FFC000000000007FE0
FFC000000000007FE0
FFC000000000007FE0
FFC000000000007FE0
FFC000000000007FE0
FFC000000000007FE0
FFC000000000007FE0
FFC000000000007FE0
FFC000000000007FE0
FFC000000000007FE0
FFC000000000007FE0
FFC000000000007FE0
FFC000000000007FE0
FFC000000000007FE0
FFC000000000007FE0
FFC000000000007FE0
FFC000000000007FE0
FFC000000000007FE0
FFC000000000007FE0
FFC000000000007FE0
FF8000000000007FC0
7F8000000000003FC0
1E0000000000000F00
ENDCHAR
STARTCHAR 0059
ENCODING 89
SWIDTH 416 0
DWIDTH 75 0
BBX 67 123 4 0
BITMAP
1E0000000000000F00
7F8000000000003FC0
7F8000000000003FC0
FFC000000000007FE0
FFC000000000007FE0
FFC000000000007FE0
FFC000000000007FE0
FFC000000000007FE0
FFC000000000007FE0
FFC000000000007FE0
FFC000000000007FE0
FFC000000000007FE0
FFC000000000007FE0
FFC000000000007FE0
FFC000000000007FE0
FFC000000000007FE0
FFC000000000007FE0
FFC000000000007FE0
FFC000000000007FE0
FFC000000000007FE0
FFC000000000007FE0
FFC000000000007FE0
FFC000000000007FE0
FFC000000000007FE0
FFC000000000007FE0
FFC000000000007FE0
FFC000000000007FE0
FFC000000000007FE0
FFC000000000007FE0
FFC000000000007FE0
FFC000000000007FE0
FFC000000000007FE0
FFC000000000007FE0
FFC000000000007FE0
FFC000000000007FE0
FFC000000000007FE0
FFC000000000007FE0
FFC000000000007FE0
FFE00000000000FFE0
7FE00000000000FFC0
7FE00000000000FFC0
7FE00000000000FFC0
7FF00000000001FFC0
3FF00000000001FF80
3FF80000000003FF80
3FF80000000003FF80
1FFC0000000007FF00
1FFC0000000007FF00
0FFE000000000FFE00
0FFF000000001FFE00
07FF800000003FFC00
07FFC00000007FFC00
03FFE0000000FFF800
01FFF0000001FFF800
01FFFC000007FFF000
00FFFF80003FFFE000
007FFFF001FFFFC000
003FFFFC07FFFF8000
001FFFFF1FFFFF0000
000FFFFFBFFFFE0000
0003FFFFFFFFFC0000
0001FFFFFFFFF00000
00007FFFFFFFE00000
00001FFFFFFF000000
000003FFFFFC000000
0000007FFFE0000000
0000001FFF80000000
0000000FFF00000000
00000007FE00000000
00000007FE00000000
00000007FE00000000
00000007FE00000000
00000007FE00000000
00000007FE00000000
00000007FE00000000
00000007FE00000000
00000007FE00000000
00000007FE00000000
00000007FE00000000
00000007FE00000000
00000007FE00000000
00000007FE00000000
00000007FE00000000
00000007FE00000000
00000007FE00000000
00000007FE00000000
00000007FE00000000
00000007FE00000000
00000007FE00000000
00000007FE00000000
00000007FE00000000
00000007FE00000000
00000007FE00000000
00000007FE00000000
00000007FE00000000
00000007FE00000000
00000007FE00000000
00000007FE00000000
00000007FE00000000
00000007FE00000000
00000007FE00000000
00000007FE00000000
00000007FE00000000
00000007FE00000000
00000007FE00000000
00000007FE00000000
00000007FE00000000
00000007FE00000000
00000007FE00000000
00000007FE00000000
00000007FE00000000
00000007FE00000000
00000007FE00000000
00000007FE00000000
00000007FE00000000
00000007FE00000000
00000007FE00000000
00000007FE00000000
00000007FE00000000
00000007FE00000000
00000007FC00000000
00000003FC00000000
00000000F000000000
ENDCHAR
STARTCHAR 005A
ENCODING 90
SWIDTH 416 0
DWIDTH 75 0
BBX 67 123 4 0
BITMAP
1FFFFFFFFFFFFF8000
3FFFFFFFFFFFFFE000
7FFFFFFFFFFFFFF800
7FFFFFFFFFFFFFFC00
7FFFFFFFFFFFFFFE00
7FFFFFFFFFFFFFFF00
7FFFFFFFFFFFFFFF80
7FFFFFFFFFFFFFFF80
3FFFFFFFFFFFFFFFC0
1FFFFFFFFFFFFFFFC0
00000000000001FFE0
000000000000007FE0
000000000000007FE0
000000000000007FE0
000000000000007FE0
000000000000007FE0
000000000000007FC0
00000000000000FFC0
00000000000000FFC0
00000000000001FF80
00000000000001FF80
00000000000003FF00
00000000000007FF00
00000000000007FE00
0000000000000FFE00
0000000000000FFC00
0000000000001FF800
0000000000003FF800
0000000000003FF000
0000000000007FF000
000000000000FFE000
000000000000FFE000
000000000001FFC000
000000000001FF8000
000000000003FF8000
000000000007FF0000
000000000007FE0000
00000000000FFE0000
00000000001FFC0000
00000000001FFC0000
00000000003FF80000
00000000007FF00000
00000000007FF00000
0000000000FFE00000
0000000001FFC00000
0000000001FFC00000
0000000003FF800000
0000000007FF800000
0000000007FF000000
000000000FFE000000
000000000FFE000000
000000001FFC000000
000000003FF8000000
000000003FF8000000
000000007FF0000000
00000000FFE0000000
00000000FFE0000000
00000001FFC0000000
00000003FF80000000
00000003FF80000000
00000007FF00000000
0000000FFE00000000
0000000FFE00000000
0000001FFC00000000
0000003FF800000000
0000003FF800000000
0000007FF000000000
000000FFE000000000
000000FFE000000000
000001FFC000000000
000003FF8000000000
000003FF8000000000
000007FF0000000000
00000FFE0000000000
00000FFE0000000000
00001FFC0000000000
00003FF80000000000
00003FF80000000000
00007FF00000000000
0000FFE00000000000
0000FFE00000000000
0001FFC00000000000
0003FF800000000000
0003FF800000000000
0007FF000000000000
000FFE000000000000
000FFE000000000000
001FFC000000000000
003FFC000000000000
003FF8000000000000
007FF0000000000000
007FF0000000000000
00FFE0000000000000
01FFC0000000000000
01FFC0000000000000
03FF80000000000000
03FF00000000000000
07FF00000000000000
07FE00000000000000
0FFE00000000000000
0FFC00000000000000
1FF800000000000000
1FF800000000000000
3FF000000000000000
3FF000000000000000
7FE000000000000000
7FE000000000000000
7FC000000000000000
7FC000000000000000
FFC000000000000000
7FC000000000000000
7FE000000000000000
7FF000000000000000
7FFFFFFFFFFFFFFF00
7FFFFFFFFFFFFFFF80
3FFFFFFFFFFFFFFFC0
3FFFFFFFFFFFFFFFE0
1FFFFFFFFFFFFFFFE0
0FFFFFFFFFFFFFFFE0
07FFFFFFFFFFFFFFE0
03FFFFFFFFFFFFFFC0
00FFFFFFFFFFFFFFC0
001FFFFFFFFFFFFF00
ENDCHAR
STARTCHAR 005B
ENCODING 91
SWIDTH 261 0
DWIDTH 47 0
BBX 37 123 5 0
BITMAP
003FFFFFE0
01FFFFFFF0
03FFFFFFF8
0FFFFFFFF8
1FFFFFFFF8
1FFFFFFFF8
3FFFFFFFF8
7FFFFFFFF8
7FFFFFFFF0
7FFFFFFFE0
FFE0000000
FFC0000000
FF80000000
FF80000000
FF80000000
FF80000000
FF80000000
FF80000000
FF80000000
FF80000000
FF80000000
FF80000000
FF80000000
FF80000000
FF80000000
FF80000000
FF80000000
FF80000000
FF80000000
FF80000000
FF80000000
FF80000000
FF80000000
FF80000000
FF80000000
FF80000000
FF80000000
FF80000000
FF80000000
FF80000000
FF80000000
FF80000000
FF80000000
FF80000000
FF80000000
FF80000000
FF80000000
FF80000000
FF80000000
FF80000000
FF80000000
FF80000000
FF80000000
FF80000000
FF80000000
FF80000000
FF80000000
FF80000000
FF80000000
FF80000000
FF80000000
FF80000000
FF80000000
FF80000000
FF80000000
FF80000000
FF80000000
FF80000000
FF80000000
FF80000000
FF80000000
FF80000000
FF80000000
FF80000000
FF80000000
FF80000000
FF80000000
FF80000000
FF80000000
FF80000000
FF80000000
FF80000000
FF80000000
FF80000000
FF80000000
FF80000000
FF80000000
FF80000000
FF80000000
FF80000000
FF80000000
FF80000000
FF80000000
FF80000000
FF80000000
FF80000000
FF80000000
FF80000000
FF80000000
FF80000000
FF80000000
FF80000000
FF80000000
FF80000000
FF80000000
FF80000000
FF80000000
FF80000000
FF80000000
FF80000000
FF80000000
FFC0000000
FFE0000000
7FFFFFFFE0
7FFFFFFFF0
7FFFFFFFF8
3FFFFFFFF8
1FFFFFFFF8
1FFFFFFFF8
0FFFFFFFF8
07FFFFFFF8
01FFFFFFF0
003FFFFFE0
ENDCHAR
STARTCHAR 005C
ENCODING 92
SWIDTH 416 0
DWIDTH 75 0
BBX 67 123 4 0
BITMAP
1E0000000000000000
3F8000000000000000
7FC000000000000000
7FC000000000000000
7FC000000000000000
FFC000000000000000
7FC000000000000000
7FC000000000000000
7FC000000000000000
7FE000000000000000
7FE000000000000000
7FE000000000000000
7FE000000000000000
3FF000000000000000
3FF000000000000000
3FF000000000000000
1FF800000000000000
1FF800000000000000
1FFC00000000000000
0FFC00000000000000
0FFC00000000000000
0FFE00000000000000
07FE00000000000000
07FF00000000000000
03FF00000000000000
03FF80000000000000
01FF80000000000000
01FFC0000000000000
00FFE0000000000000
00FFE0000000000000
007FF0000000000000
007FF0000000000000
003FF8000000000000
003FF8000000000000
001FFC000000000000
001FFE000000000000
000FFE000000000000
0007FF000000000000
0007FF000000000000
0003FF800000000000
0003FFC00000000000
0001FFC00000000000
0000FFE00000000000
0000FFF00000000000
00007FF00000000000
00003FF80000000000
00003FFC0000000000
00001FFC0000000000
00000FFE0000000000
00000FFE0000000000
000007FF0000000000
000007FF8000000000
000003FFC000000000
000001FFC000000000
000001FFE000000000
000000FFF000000000
0000007FF000000000
0000007FF800000000
0000003FFC00000000
0000001FFC00000000
0000001FFE00000000
0000000FFE00000000
00000007FF00000000
00000007FF80000000
00000003FF80000000
00000001FFC0000000
00000001FFE0000000
00000000FFE0000000
000000007FF0000000
000000007FF8000000
000000003FF8000000
000000001FFC000000
000000001FFE000000
000000000FFE000000
0000000007FF000000
0000000007FF800000
0000000003FF800000
0000000003FFC00000
0000000001FFE00000
0000000000FFE00000
0000000000FFF00000
00000000007FF00000
00000000003FF80000
00000000003FFC0000
00000000001FFC0000
00000000000FFE0000
00000000000FFE0000
000000000007FF0000
000000000007FF0000
000000000003FF8000
000000000001FF8000
000000000001FFC000
000000000000FFE000
000000000000FFE000
0000000000007FF000
0000000000007FF000
0000000000003FF800
0000000000003FF800
0000000000001FF800
0000000000001FFC00
0000000000000FFC00
0000000000000FFE00
00000000000007FE00
00000000000007FF00
00000000000003FF00
00000000000003FF00
00000000000001FF80
00000000000001FF80
00000000000001FF80
00000000000000FFC0
00000000000000FFC0
00000000000000FFC0
000000000000007FC0
000000000000007FC0
000000000000007FE0
000000000000007FE0
000000000000007FE0
000000000000007FE0
000000000000007FE0
000000000000007FE0
000000000000003FC0
000000000000001FC0
000000000000000F00
ENDCHAR
STARTCHAR 005D
ENCODING 93
SWIDTH 261 0
DWIDTH 47 0
BBX 38 123 5 0
BITMAP
3FFFFFE000
7FFFFFFC00
FFFFFFFF00
FFFFFFFF80
FFFFFFFFC0
FFFFFFFFE0
FFFFFFFFF0
FFFFFFFFF0
7FFFFFFFF8
3FFFFFFFF8
0000003FFC
0000001FFC
0000000FFC
0000000FFC
0000000FFC
0000000FFC
0000000FFC
0000000FFC
0000000FFC
0000000FFC
0000000FFC
0000000FFC
0000000FFC
0000000FFC
0000000FFC
0000000FFC
0000000FFC
0000000FFC
0000000FFC
0000000FFC
0000000FFC
0000000FFC
0000000FFC
0000000FFC
0000000FFC
0000000FFC
0000000FFC
0000000FFC
0000000FFC
0000000FFC
0000000FFC
0000000FFC
0000000FFC
0000000FFC
0000000FFC
0000000FFC
0000000FFC
0000000FFC
0000000FFC
0000000FFC
0000000FFC
0000000FFC
0000000FFC
0000000FFC
0000000FFC
0000000FFC
0000000FFC
0000000FFC
0000000FFC
0000000FFC
0000000FFC
0000000FFC
0000000FFC
0000000FFC
0000000FFC
0000000FFC
0000000FFC
0000000FFC
0000000FFC
0000000FFC
0000000FFC
0000000FFC
0000000FFC
0000000FFC
0000000FFC
0000000FFC
0000000FFC
0000000FFC
0000000FFC
0000000FFC
0000000FFC
0000000FFC
0000000FFC
0000000FFC
0000000FFC
0000000FFC
0000000FFC
0000000FFC
0000000FFC
0000000FFC
0000000FFC
0000000FFC
0000000FFC
0000000FFC
0000000FFC
0000000FFC
0000000FFC
0000000FFC
0000000FFC
0000000FFC
0000000FFC
0000000FFC
0000000FFC
0000000FFC
0000000FFC
0000000FFC
0000000FFC
0000000FFC
0000000FFC
0000000FFC
0000000FFC
0000001FFC
0000003FFC
3FFFFFFFF8
7FFFFFFFF8
FFFFFFFFF0
FFFFFFFFF0
FFFFFFFFE0
FFFFFFFFC0
FFFFFFFF80
FFFFFFFF00
7FFFFFFC00
3FFFFFF000
ENDCHAR
STARTCHAR 005E
ENCODING 94
SWIDTH 416 0
DWIDTH 75 0
BBX 67 38 4 85
BITMAP
00000000F000000000
00000003F800000000
00000003FC00000000
00000007FC00000000
00000007FC00000000
0000000FFE00000000
0000001FFF80000000
0000007FFFC0000000
000001FFFFF0000000
000007FFFFFE000000
00001FFFFFFF800000
00007FFFFFFFE00000
0001FFFFFFFFF00000
0007FFFFBFFFFC0000
000FFFFF1FFFFF0000
003FFFFC07FFFF8000
007FFFF001FFFFE000
00FFFFC0007FFFF000
01FFFF00001FFFF800
03FFFC000007FFFC00
07FFF0000001FFFE00
0FFFC00000007FFE00
0FFF800000001FFF00
1FFE000000000FFF80
3FFC0000000007FF80
3FF80000000003FF80
3FF00000000001FFC0
7FE00000000000FFC0
7FE00000000000FFC0
7FE000000000007FE0
7FC000000000007FE0
7FC000000000007FE0
FFC000000000007FE0
FFC000000000007FE0
7FC000000000007FE0
7FC000000000003FE0
3F8000000000001FC0
1F0000000000000F80
ENDCHAR
STARTCHAR 005F
ENCODING 95
SWIDTH 416 0
DWIDTH 75 0
BBX 67 10 4 -28
BITMAP
1FFFFFFFFFFFFFFF00
3FFFFFFFFFFFFFFF80
7FFFFFFFFFFFFFFFC0
7FFFFFFFFFFFFFFFC0
7FFFFFFFFFFFFFFFE0
FFFFFFFFFFFFFFFFE0
7FFFFFFFFFFFFFFFE0
7FFFFFFFFFFFFFFFC0
7FFFFFFFFFFFFFFF80
1FFFFFFFFFFFFFFF00
ENDCHAR
STARTCHAR 0060
ENCODING 96
SWIDTH 100 0
DWIDTH 18 0
BBX 9 38 5 85
BITMAP
3E00
7F00
FF00
FF80
FF80
FF80
FF80
FF80
FF80
FF80
FF80
FF80
FF80
FF80
FF80
FF80
FF80
FF80
FF80
FF80
FF80
FF80
FF80
FF80
FF80
FF80
FF80
FF80
FF80
FF80
FF80
FF80
FF80
FF80
FF80
FF80
7F00
3E00
ENDCHAR
STARTCHAR 0061
ENCODING 97
SWIDTH 416 0
DWIDTH 75 0
BBX 67 66 4 0
BITMAP
00000001FFFF000000
00000007FFFFF00000
00000007FFFFFE0000
00000007FFFFFF0000
00000007FFFFFFC000
00000007FFFFFFE000
00000007FFFFFFF000
00000003FFFFFFF800
00000001FFFFFFFC00
000000000001FFFE00
0000000000003FFE00
0000000000000FFF00
00000000000007FF00
00000000000003FF80
00000000000001FF80
00000000000001FFC0
00000000000000FFC0
00000000000000FFC0
00000000000000FFC0
000000000000007FE0
000000000000007FE0
000000000000007FE0
000000000000007FE0
000000000000007FE0
000000000000007FE0
000000000000007FE0
00000000000000FFE0
00000000000001FFE0
003FFFFFFFFFFFFFC0
00FFFFFFFFFFFFFFC0
03FFFFFFFFFFFFFF80
07FFFFFFFFFFFFFF80
0FFFFFFFFFFFFFFF00
1FFFFFFFFFFFFFFF00
3FFFFFFFFFFFFFFF80
3FFFFFFFFFFFFFFF80
7FFFFFFFFFFFFFFFC0
7FF00000000001FFC0
7FE00000000000FFC0
FFC000000000007FE0
FFC000000000007FE0
FFC000000000007FE0
FFC000000000007FE0
FFC000000000007FE0
FFC000000000007FE0
FFC000000000007FE0
FFC000000000007FE0
7FE000000000007FE0
7FE000000000007FE0
7FF000000000007FE0
7FF000000000007FE0
3FF800000000007FE0
3FFC00000000007FE0
1FFE00000000007FE0
1FFF8000000000FFE0
0FFFE000000001FFE0
0FFFFFFFFFFFFFFFC0
07FFFFFFFFFFFFFFC0
03FFFFFFFFFFFFFF80
01FFFFFFFFFFFFFF80
00FFFFFFFFFFFFFF00
007FFFFFFFFFFFFE00
003FFFFFFFFFFFFC00
000FFFFFFFFFFFF800
0003FFFFFFFFFFE000
00003FFFFFFFFF0000
ENDCHAR
STARTCHAR 0062
ENCODING 98
SWIDTH 416 0
DWIDTH 75 0
BBX 67 123 4 0
BITMAP
1E0000000000000000
7F8000000000000000
7F8000000000000000
FFC000000000000000
FFC000000000000000
FFC000000000000000
FFC000000000000000
FFC000000000000000
FFC000000000000000
FFC000000000000000
FFC000000000000000
FFC000000000000000
FFC000000000000000
FFC000000000000000
FFC000000000000000
FFC000000000000000
FFC000000000000000
FFC000000000000000
FFC000000000000000
FFC000000000000000
FFC000000000000000
FFC000000000000000
FFC000000000000000
FFC000000000000000
FFC000000000000000
FFC000000000000000
FFC000000000000000
FFC000000000000000
FFC000000000000000
FFC000000000000000
FFC000000000000000
FFC000000000000000
FFC000000000000000
FFC000000000000000
FFC000000000000000
FFC000000000000000
FFC000000000000000
FFC000000000000000
FFC000000000000000
FFC000000000000000
FFC000000000000000
FFC000000000000000
FFC000000000000000
FFC000000000000000
FFC000000000000000
FFC000000000000000
FFC000000000000000
FFC000000000000000
FFC000000000000000
FFC000000000000000
FFC000000000000000
FFC000000000000000
FFC000000000000000
FFC000000000000000
FFC000000000000000
FFE000000000000000
7FF000000000000000
7FFFFFFFFF00000000
7FFFFFFFFFF0000000
3FFFFFFFFFFE000000
1FFFFFFFFFFF800000
1FFFFFFFFFFFE00000
1FFFFFFFFFFFF80000
3FFFFFFFFFFFFC0000
7FFFFFFFFFFFFF0000
7FFFFFFFFFFFFF8000
7FF0000001FFFFC000
FFE00000001FFFE000
FFC000000007FFF000
FFC000000001FFF800
FFC000000000FFF800
FFC0000000003FFC00
FFC0000000001FFE00
FFC0000000000FFE00
FFC0000000000FFF00
FFC00000000007FF00
FFC00000000003FF80
FFC00000000003FF80
FFC00000000001FF80
FFC00000000001FFC0
FFC00000000000FFC0
FFC00000000000FFC0
FFC00000000000FFC0
FFC00000000000FFE0
FFC000000000007FE0
FFC000000000007FE0
FFC000000000007FE0
FFC000000000007FE0
FFC000000000007FE0
FFC000000000007FE0
FFC000000000007FE0
FFC000000000007FE0
FFC000000000007FE0
FFC000000000007FE0
FFC000000000007FE0
FFC00000000000FFE0
FFC00000000000FFC0
FFC00000000000FFC0
FFC00000000000FFC0
FFC00000000001FFC0
FFC00000000001FFC0
FFC00000000001FF80
FFC00000000003FF80
FFC00000000007FF80
FFC00000000007FF00
FFC0000000000FFF00
FFC0000000001FFE00
FFC0000000003FFE00
FFC0000000007FFC00
FFC000000001FFF800
FFC000000007FFF800
FFE00000001FFFF000
FFF0000001FFFFE000
7FFFFFFFFFFFFFC000
7FFFFFFFFFFFFF8000
7FFFFFFFFFFFFF0000
3FFFFFFFFFFFFC0000
1FFFFFFFFFFFF80000
1FFFFFFFFFFFE00000
07FFFFFFFFFF800000
03FFFFFFFFFE000000
00FFFFFFFFF0000000
003FFFFFFF00000000
ENDCHAR
STARTCHAR 0063
ENCODING 99
SWIDTH 416 0
DWIDTH 75 0
BBX 67 66 4 0
BITMAP
0000001FFFFFFFFF00
000001FFFFFFFFFFC0
00000FFFFFFFFFFFC0
00003FFFFFFFFFFFE0
0000FFFFFFFFFFFFE0
0003FFFFFFFFFFFFE0
0007FFFFFFFFFFFFE0
000FFFFFFFFFFFFFC0
003FFFFFFFFFFFFF80
007FFFF80000000000
00FFFF800000000000
01FFFE000000000000
03FFF8000000000000
03FFE0000000000000
07FFC0000000000000
0FFF80000000000000
0FFF00000000000000
1FFE00000000000000
1FFC00000000000000
3FF800000000000000
3FF800000000000000
3FF000000000000000
7FF000000000000000
7FE000000000000000
7FE000000000000000
7FE000000000000000
FFE000000000000000
FFC000000000000000
FFC000000000000000
FFC000000000000000
FFC000000000000000
FFC000000000000000
FFC000000000000000
FFC000000000000000
FFC000000000000000
FFC000000000000000
FFC000000000000000
FFC000000000000000
FFE000000000000000
FFE000000000000000
7FE000000000000000
7FE000000000000000
7FF000000000000000
7FF000000000000000
3FF000000000000000
3FF800000000000000
3FFC00000000000000
1FFC00000000000000
1FFE00000000000000
0FFF00000000000000
0FFF80000000000000
07FFE0000000000000
03FFF0000000000000
03FFFC000000000000
01FFFF000000000000
00FFFFF00000000000
007FFFFFFFFFFFFF00
003FFFFFFFFFFFFF80
000FFFFFFFFFFFFFC0
0007FFFFFFFFFFFFE0
0003FFFFFFFFFFFFE0
0000FFFFFFFFFFFFE0
00003FFFFFFFFFFFE0
00000FFFFFFFFFFFC0
000001FFFFFFFFFFC0
0000001FFFFFFFFF00
ENDCHAR
STARTCHAR 0064
ENCODING 100
SWIDTH 416 0
DWIDTH 75 0
BBX 67 123 4 0
BITMAP
000000000000000F00
000000000000003FC0
000000000000003FC0
000000000000007FE0
000000000000007FE0
000000000000007FE0
000000000000007FE0
000000000000007FE0
000000000000007FE0
000000000000007FE0
000000000000007FE0
000000000000007FE0
000000000000007FE0
000000000000007FE0
000000000000007FE0
000000000000007FE0
000000000000007FE0
000000000000007FE0
000000000000007FE0
000000000000007FE0
000000000000007FE0
000000000000007FE0
000000000000007FE0
000000000000007FE0
000000000000007FE0
000000000000007FE0
000000000000007FE0
000000000000007FE0
000000000000007FE0
000000000000007FE0
000000000000007FE0
000000000000007FE0
000000000000007FE0
000000000000007FE0
000000000000007FE0
000000000000007FE0
000000000000007FE0
000000000000007FE0
000000000000007FE0
000000000000007FE0
000000000000007FE0
000000000000007FE0
000000000000007FE0
000000000000007FE0
000000000000007FE0
000000000000007FE0
000000000000007FE0
000000000000007FE0
000000000000007FE0
000000000000007FE0
000000000000007FE0
000000000000007FE0
000000000000007FE0
000000000000007FE0
000000000000007FE0
00000000000000FFE0
00000000000001FFC0
0000001FFFFFFFFFC0
000001FFFFFFFFFFC0
00000FFFFFFFFFFF80
00007FFFFFFFFFFF00
0000FFFFFFFFFFFF00
0003FFFFFFFFFFFF00
000FFFFFFFFFFFFF80
001FFFFFFFFFFFFFC0
003FFFFFFFFFFFFFC0
007FFFF0000001FFC0
00FFFF80000000FFE0
01FFFC000000007FE0
03FFF8000000007FE0
07FFE0000000007FE0
07FFC0000000007FE0
0FFF80000000007FE0
0FFF00000000007FE0
1FFE00000000007FE0
1FFC00000000007FE0
3FF800000000007FE0
3FF800000000007FE0
3FF000000000007FE0
7FF000000000007FE0
7FE000000000007FE0
7FE000000000007FE0
7FE000000000007FE0
FFE000000000007FE0
FFC000000000007FE0
FFC000000000007FE0
FFC000000000007FE0
FFC000000000007FE0
FFC000000000007FE0
FFC000000000007FE0
FFC000000000007FE0
FFC000000000007FE0
FFC000000000007FE0
FFC000000000007FE0
FFC000000000007FE0
FFC000000000007FE0
FFE000000000007FE0
7FE000000000007FE0
7FE000000000007FE0
7FF000000000007FE0
7FF000000000007FE0
3FF000000000007FE0
3FF800000000007FE0
3FFC00000000007FE0
1FFC00000000007FE0
1FFE00000000007FE0
0FFF00000000007FE0
0FFF80000000007FE0
07FFE0000000007FE0
07FFF0000000007FE0
03FFFC000000007FE0
01FFFF00000000FFE0
00FFFFF0000001FFE0
007FFFFFFFFFFFFFC0
003FFFFFFFFFFFFFC0
001FFFFFFFFFFFFFC0
0007FFFFFFFFFFFF80
0003FFFFFFFFFFFF00
0000FFFFFFFFFFFE00
00003FFFFFFFFFFC00
00000FFFFFFFFFF800
000001FFFFFFFFE000
0000001FFFFFFF8000
ENDCHAR
STARTCHAR 0065
ENCODING 101
SWIDTH 416 0
DWIDTH 75 0
BBX 67 66 4 0
BITMAP
00003FFFFFFF000000
0001FFFFFFFFF00000
000FFFFFFFFFFC0000
001FFFFFFFFFFF0000
007FFFFFFFFFFFC000
00FFFFFFFFFFFFE000
01FFFFFFFFFFFFF800
03FFFFFFFFFFFFFC00
07FFFFFFFFFFFFFC00
0FFFF0000001FFFE00
0FFF800000003FFF00
1FFE000000001FFF00
1FFC0000000007FF80
3FF80000000003FF80
3FF00000000001FFC0
7FF00000000001FFC0
7FE00000000000FFC0
7FE00000000000FFC0
7FE00000000000FFE0
FFC000000000007FE0
FFC000000000007FE0
FFC000000000007FE0
FFC000000000007FE0
FFC000000000007FE0
FFC000000000007FE0
FFC000000000007FE0
FFE00000000000FFE0
FFF00000000001FFC0
7FFFFFFFFFFFFFFFC0
7FFFFFFFFFFFFFFFC0
3FFFFFFFFFFFFFFF80
3FFFFFFFFFFFFFFF00
1FFFFFFFFFFFFFFF00
1FFFFFFFFFFFFFFE00
3FFFFFFFFFFFFFF800
3FFFFFFFFFFFFFF000
7FFFFFFFFFFFFF8000
7FF000000000000000
FFE000000000000000
FFC000000000000000
FFC000000000000000
FFC000000000000000
FFC000000000000000
FFC000000000000000
FFC000000000000000
FFC000000000000000
FFE000000000000000
FFE000000000000000
7FE000000000000000
7FF000000000000000
7FF000000000000000
3FF800000000000000
3FFC00000000000000
1FFE00000000000000
1FFF80000000000000
0FFFF0000000000000
0FFFFFFFF000000000
07FFFFFFF800000000
03FFFFFFFC00000000
01FFFFFFFC00000000
00FFFFFFFC00000000
007FFFFFFC00000000
003FFFFFFC00000000
000FFFFFFC00000000
0001FFFFF800000000
00003FFFF000000000
ENDCHAR
STARTCHAR 0066
ENCODING 102
SWIDTH 416 0
DWIDTH 75 0
BBX 67 123 4 0
BITMAP
0000001FFFFFFFFF00
000003FFFFFFFFFFC0
00000FFFFFFFFFFFC0
00007FFFFFFFFFFFE0
0000FFFFFFFFFFFFE0
0003FFFFFFFFFFFFE0
0007FFFFFFFFFFFFE0
001FFFFFFFFFFFFFC0
003FFFFFFFFFFFFFC0
007FFFFFFFFFFFFF00
00FFFFF00000000000
00FFFF000000000000
01FFFC000000000000
03FFF0000000000000
07FFE0000000000000
07FF80000000000000
0FFF00000000000000
0FFE00000000000000
1FFE00000000000000
1FFC00000000000000
3FF800000000000000
3FF800000000000000
3FF000000000000000
7FF000000000000000
7FE000000000000000
7FE000000000000000
7FE000000000000000
FFE000000000000000
FFC000000000000000
FFC000000000000000
FFC000000000000000
FFC000000000000000
FFC000000000000000
FFC000000000000000
FFC000000000000000
FFC000000000000000
FFC000000000000000
FFC000000000000000
FFC000000000000000
FFC000000000000000
FFC000000000000000
FFC000000000000000
FFC000000000000000
FFC000000000000000
FFC000000000000000
FFC000000000000000
FFC000000000000000
FFC000000000000000
FFC000000000000000
FFC000000000000000
FFC000000000000000
FFC000000000000000
FFC000000000000000
FFC000000000000000
FFC000000000000000
FFE000000000000000
7FF800000000000000
7FFFFFFFF000000000
7FFFFFFFF800000000
3FFFFFFFFC00000000
1FFFFFFFFC00000000
1FFFFFFFFC00000000
1FFFFFFFFC00000000
3FFFFFFFFC00000000
7FFFFFFFFC00000000
7FFFFFFFF000000000
7FF000000000000000
FFE000000000000000
FFC000000000000000
FFC000000000000000
FFC000000000000000
FFC000000000000000
FFC000000000000000
FFC000000000000000
FFC000000000000000
FFC000000000000000
FFC000000000000000
FFC000000000000000
FFC000000000000000
FFC000000000000000
FFC000000000000000
FFC000000000000000
FFC000000000000000
FFC000000000000000
FFC000000000000000
FFC000000000000000
FFC000000000000000
FFC000000000000000
FFC000000000000000
FFC000000000000000
FFC000000000000000
FFC000000000000000
FFC000000000000000
FFC000000000000000
FFC000000000000000
FFC000000000000000
FFC000000000000000
FFC000000000000000
FFC000000000000000
FFC000000000000000
FFC000000000000000
FFC000000000000000
FFC000000000000000
FFC000000000000000
FFC000000000000000
FFC000000000000000
FFC000000000000000
FFC000000000000000
FFC000000000000000
FFC000000000000000
FFC000000000000000
FFC000000000000000
FFC000000000000000
FFC000000000000000
FFC000000000000000
FFC000000000000000
FFC000000000000000
FFC000000000000000
FFC000000000000000
FFC000000000000000
FF8000000000000000
7F8000000000000000
1E0000000000000000
ENDCHAR
STARTCHAR 0067
ENCODING 103
SWIDTH 416 0
DWIDTH 75 0
BBX 67 94 4 -28
BITMAP
0000001FFFFFFF8000
000001FFFFFFFFE000
00000FFFFFFFFFF800
00003FFFFFFFFFFC00
0000FFFFFFFFFFFE00
0003FFFFFFFFFFFF00
0007FFFFFFFFFFFF80
001FFFFFFFFFFFFF80
003FFFFFFFFFFFFFC0
007FFFF0000001FFC0
00FFFF80000000FFE0
01FFFC000000007FE0
03FFF8000000007FE0
03FFE0000000007FE0
07FFC0000000007FE0
0FFF80000000007FE0
0FFF00000000007FE0
1FFE00000000007FE0
1FFC00000000007FE0
3FF800000000007FE0
3FF800000000007FE0
3FF000000000007FE0
7FF000000000007FE0
7FE000000000007FE0
7FE000000000007FE0
7FE000000000007FE0
FFE000000000007FE0
FFC000000000007FE0
FFC000000000007FE0
FFC000000000007FE0
FFC000000000007FE0
FFC000000000007FE0
FFC000000000007FE0
FFC000000000007FE0
FFC000000000007FE0
FFC000000000007FE0
FFC000000000007FE0
FFC000000000007FE0
FFC000000000007FE0
FFE000000000007FE0
7FE000000000007FE0
7FE000000000007FE0
7FF000000000007FE0
7FF000000000007FE0
3FF000000000007FE0
3FF800000000007FE0
3FFC00000000007FE0
1FFC00000000007FE0
1FFE00000000007FE0
0FFF00000000007FE0
0FFF80000000007FE0
07FFE0000000007FE0
07FFF0000000007FE0
03FFFC000000007FE0
01FFFF00000000FFE0
00FFFFF0000001FFE0
007FFFFFFFFFFFFFC0
003FFFFFFFFFFFFFC0
001FFFFFFFFFFFFF80
0007FFFFFFFFFFFF80
0003FFFFFFFFFFFF00
0000FFFFFFFFFFFF00
00003FFFFFFFFFFF80
00000FFFFFFFFFFF80
000001FFFFFFFFFFC0
0000001FFFFFFFFFC0
00000000000001FFE0
00000000000000FFE0
000000000000007FE0
000000000000007FE0
000000000000007FE0
000000000000007FE0
000000000000007FE0
000000000000007FE0
000000000000007FE0
00000000000000FFC0
00000000000000FFC0
00000000000001FFC0
00000000000001FFC0
00000000000003FF80
00000000000007FF80
0000000000000FFF00
0000000000003FFF00
000000000001FFFE00
00000001FFFFFFFC00
00000003FFFFFFFC00
00000007FFFFFFF800
00000007FFFFFFF000
00000007FFFFFFE000
00000007FFFFFFC000
00000007FFFFFF0000
00000007FFFFFC0000
00000003FFFFF00000
00000001FFFF000000
ENDCHAR
STARTCHAR 0068
ENCODING 104
SWIDTH 416 0
DWIDTH 75 0
BBX 67 123 4 0
BITMAP
1E0000000000000000
7F8000000000000000
7F8000000000000000
FFC000000000000000
FFC000000000000000
FFC000000000000000
FFC000000000000000
FFC000000000000000
FFC000000000000000
FFC000000000000000
FFC000000000000000
FFC000000000000000
FFC000000000000000
FFC000000000000000
FFC000000000000000
FFC000000000000000
FFC000000000000000
FFC000000000000000
FFC000000000000000
FFC000000000000000
FFC000000000000000
FFC000000000000000
FFC000000000000000
FFC000000000000000
FFC000000000000000
FFC000000000000000
FFC000000000000000
FFC000000000000000
FFC000000000000000
FFC000000000000000
FFC000000000000000
FFC000000000000000
FFC000000000000000
FFC000000000000000
FFC000000000000000
FFC000000000000000
FFC000000000000000
FFC000000000000000
FFC000000000000000
FFC000000000000000
FFC000000000000000
FFC000000000000000
FFC000000000000000
FFC000000000000000
FFC000000000000000
FFC000000000000000
FFC000000000000000
FFC000000000000000
FFC000000000000000
FFC000000000000000
FFC000000000000000
FFC000000000000000
FFC000000000000000
FFC000000000000000
FFC000000000000000
FFE000000000000000
7FF800000000000000
7FFFFFFFFF00000000
7FFFFFFFFFF0000000
3FFFFFFFFFFE000000
1FFFFFFFFFFF800000
1FFFFFFFFFFFE00000
1FFFFFFFFFFFF80000
3FFFFFFFFFFFFC0000
7FFFFFFFFFFFFF0000
7FFFFFFFFFFFFF8000
7FF0000001FFFFC000
FFE00000001FFFE000
FFC000000007FFF000
FFC000000001FFF800
FFC000000000FFF800
FFC0000000003FFC00
FFC0000000001FFE00
FFC0000000000FFE00
FFC0000000000FFF00
FFC00000000007FF00
FFC00000000003FF80
FFC00000000003FF80
FFC00000000001FF80
FFC00000000001FFC0
FFC00000000000FFC0
FFC00000000000FFC0
FFC00000000000FFC0
FFC00000000000FFE0
FFC000000000007FE0
FFC000000000007FE0
FFC000000000007FE0
FFC000000000007FE0
FFC000000000007FE0
FFC000000000007FE0
FFC000000000007FE0
FFC000000000007FE0
FFC000000000007FE0
FFC000000000007FE0
FFC000000000007FE0
FFC000000000007FE0
FFC000000000007FE0
FFC000000000007FE0
FFC000000000007FE0
FFC000000000007FE0
FFC000000000007FE0
FFC000000000007FE0
FFC000000000007FE0
FFC000000000007FE0
FFC000000000007FE0
FFC000000000007FE0
FFC000000000007FE0
FFC000000000007FE0
FFC000000000007FE0
FFC000000000007FE0
FFC000000000007FE0
FFC000000000007FE0
FFC000000000007FE0
FFC000000000007FE0
FFC000000000007FE0
FFC000000000007FE0
FFC000000000007FE0
FFC000000000007FE0
FFC000000000007FE0
FFC000000000007FE0
FF8000000000007FC0
7F8000000000003FC0
1E0000000000000F00
ENDCHAR
STARTCHAR 0069
ENCODING 105
SWIDTH 100 0
DWIDTH 18 0
BBX 9 95 5 0
BITMAP
3E00
7F00
FF00
FF80
FF80
FF80
FF80
7F00
7F00
0000
0000
0000
0000
0000
0000
0000
0000
0000
0000
0000
0000
0000
0000
0000
0000
0000
0000
0000
0000
3E00
7F00
FF80
FF80
FF80
FF80
FF80
FF80
FF80
FF80
FF80
FF80
FF80
FF80
FF80
FF80
FF80
FF80
FF80
FF80
FF80
FF80
FF80
FF80
FF80
FF80
FF80
FF80
FF80
FF80
FF80
FF80
FF80
FF80
FF80
FF80
FF80
FF80
FF80
FF80
FF80
FF80
FF80
FF80
FF80
FF80
FF80
FF80
FF80
FF80
FF80
FF80
FF80
FF80
FF80
FF80
FF80
FF80
FF80
FF80
FF80
FF80
FF80
FF80
7F00
3E00
ENDCHAR
STARTCHAR 006A
ENCODING 106
SWIDTH 261 0
DWIDTH 47 0
BBX 37 123 5 -28
BITMAP
00000003E0
00000007F0
0000000FF8
0000000FF8
0000000FF8
0000000FF8
0000000FF8
00000007F0
00000003F0
0000000000
0000000000
0000000000
0000000000
0000000000
0000000000
0000000000
0000000000
0000000000
0000000000
0000000000
0000000000
0000000000
0000000000
0000000000
0000000000
0000000000
0000000000
0000000000
0000000000
00000003E0
00000007F0
0000000FF8
0000000FF8
0000000FF8
0000000FF8
0000000FF8
0000000FF8
0000000FF8
0000000FF8
0000000FF8
0000000FF8
0000000FF8
0000000FF8
0000000FF8
0000000FF8
0000000FF8
0000000FF8
0000000FF8
0000000FF8
0000000FF8
0000000FF8
0000000FF8
0000000FF8
0000000FF8
0000000FF8
0000000FF8
0000000FF8
0000000FF8
0000000FF8
0000000FF8
0000000FF8
0000000FF8
0000000FF8
0000000FF8
0000000FF8
0000000FF8
0000000FF8
0000000FF8
0000000FF8
0000000FF8
0000000FF8
0000000FF8
0000000FF8
0000000FF8
0000000FF8
0000000FF8
0000000FF8
0000000FF8
0000000FF8
0000000FF8
0000000FF8
0000000FF8
0000000FF8
0000000FF8
0000000FF8
0000000FF8
0000000FF8
0000000FF8
0000000FF8
0000000FF8
0000000FF8
0000000FF8
0000000FF8
0000000FF8
0000000FF8
0000001FF8
0000001FF8
0000001FF0
0000001FF0
0000003FF0
0000003FF0
0000007FE0
0000007FE0
000000FFE0
000001FFC0
000001FFC0
000003FF80
000007FF80
00001FFF00
00003FFF00
0000FFFE00
0003FFFC00
003FFFF800
3FFFFFF000
7FFFFFE000
FFFFFFC000
FFFFFF8000
FFFFFF0000
FFFFFC0000
FFFFF00000
FFFFC00000
7FFE000000
3FE0000000
ENDCHAR
STARTCHAR 006B
ENCODING 107
SWIDTH 416 0
DWIDTH 75 0
BBX 67 123 4 0
BITMAP
1E0000000000000000
7F8000000000000000
7F8000000000000000
FFC000000000000000
FFC000000000000000
FFC000000000000000
FFC000000000000000
FFC000000000000000
FFC000000000000000
FFC000000000000000
FFC000000000000000
FFC000000000000000
FFC000000000000000
FFC000000000000000
FFC000000000000000
FFC000000000000000
FFC000000000000000
FFC000000000000000
FFC000000000000000
FFC000000000000000
FFC000000000000000
FFC000000000000000
FFC000000000000000
FFC000000000000000
FFC000000000000000
FFC000000000000000
FFC000000000000000
FFC000000000000000
FFC000000000000000
FFC000000000001F80
FFC000000000003FC0
FFC000000000007FE0
FFC000000000007FE0
FFC000000000007FE0
FFC000000000007FE0
FFC000000000007FE0
FFC000000000007FE0
FFC000000000007FE0
FFC000000000007FE0
FFC00000000000FFC0
FFC00000000000FFC0
FFC00000000000FFC0
FFC00000000000FFC0
FFC00000000001FF80
FFC00000000001FF80
FFC00000000003FF80
FFC00000000003FF00
FFC00000000007FF00
FFC0000000000FFF00
FFC0000000000FFE00
FFC0000000001FFC00
FFC0000000003FFC00
FFC000000000FFF800
FFC000000001FFF800
FFC000000007FFF000
FFE00000001FFFE000
7FF8000001FFFFC000
7FFFFFFFFFFFFF8000
7FFFFFFFFFFFFF0000
3FFFFFFFFFFFFE0000
1FFFFFFFFFFFFC0000
1FFFFFFFFFFFF00000
1FFFFFFFFFFFF80000
3FFFFFFFFFFFFC0000
7FFFFFFFFFFFFF0000
7FFFFFFFFFFFFF8000
7FF0000001FFFFC000
FFE00000001FFFE000
FFC000000007FFF000
FFC000000001FFF800
FFC000000000FFF800
FFC0000000003FFC00
FFC0000000001FFE00
FFC0000000000FFE00
FFC0000000000FFF00
FFC00000000007FF00
FFC00000000003FF80
FFC00000000003FF80
FFC00000000001FF80
FFC00000000001FFC0
FFC00000000000FFC0
FFC00000000000FFC0
FFC00000000000FFC0
FFC00000000000FFE0
FFC000000000007FE0
FFC000000000007FE0
FFC000000000007FE0
FFC000000000007FE0
FFC000000000007FE0
FFC000000000007FE0
FFC000000000007FE0
FFC000000000007FE0
FFC000000000007FE0
FFC000000000007FE0
FFC000000000007FE0
FFC000000000007FE0
FFC000000000007FE0
FFC000000000007FE0
FFC000000000007FE0
FFC000000000007FE0
FFC000000000007FE0
FFC000000000007FE0
FFC000000000007FE0
FFC000000000007FE0
FFC000000000007FE0
FFC000000000007FE0
FFC000000000007FE0
FFC000000000007FE0
FFC000000000007FE0
FFC000000000007FE0
FFC000000000007FE0
FFC000000000007FE0
FFC000000000007FE0
FFC000000000007FE0
FFC000000000007FE0
FFC000000000007FE0
FFC000000000007FE0
FFC000000000007FE0
FFC000000000007FE0
FFC000000000007FE0
FF8000000000007FC0
7F8000000000003FC0
1E0000000000000F00
ENDCHAR
STARTCHAR 006C
ENCODING 108
SWIDTH 100 0
DWIDTH 18 0
BBX 9 123 5 0
BITMAP
3E00
7F00
FF00
FF80
FF80
FF80
FF80
FF80
FF80
FF80
FF80
FF80
FF80
FF80
FF80
FF80
FF80
FF80
FF80
FF80
FF80
FF80
FF80
FF80
FF80
FF80
FF80
FF80
FF80
FF80
FF80
FF80
FF80
FF80
FF80
FF80
FF80
FF80
FF80
FF80
FF80
FF80
FF80
FF80
FF80
FF80
FF80
FF80
FF80
FF80
FF80
FF80
FF80
FF80
FF80
FF80
FF80
FF80
FF80
FF80
FF80
FF80
FF80
FF80
FF80
FF80
FF80
FF80
FF80
FF80
FF80
FF80
FF80
FF80
FF80
FF80
FF80
FF80
FF80
FF80
FF80
FF80
FF80
FF80
FF80
FF80
FF80
FF80
FF80
FF80
FF80
FF80
FF80
FF80
FF80
FF80
FF80
FF80
FF80
FF80
FF80
FF80
FF80
FF80
FF80
FF80
FF80
FF80
FF80
FF80
FF80
FF80
FF80
FF80
FF80
FF80
FF80
FF80
FF80
FF80
FF80
7F00
3E00
ENDCHAR
STARTCHAR 006D
ENCODING 109
SWIDTH 627 0
DWIDTH 113 0
BBX 105 66 4 0
BITMAP
0000001FFFFE003FFFFC00000000
000003FFFFFFC1FFFFFFC0000000
00001FFFFFFFE7FFFFFFF8000000
00007FFFFFFFFFFFFFFFFE000000
0001FFFFFFFFFFFFFFFFFF800000
0003FFFFFFFFFFFFFFFFFFE00000
000FFFFFFFFFFFFFFFFFFFF00000
001FFFFFFFFFFFFFFFFFFFFC0000
003FFFFFFFFFFFFFFFFFFFFE0000
007FFFF00003FFF00007FFFF0000
00FFFF000001FFE000007FFF8000
01FFFC000000FFC000001FFFC000
03FFF0000000FFC0000007FFE000
03FFE0000000FFC0000003FFE000
07FFC0000000FFC0000000FFF000
0FFF00000000FFC00000007FF800
0FFF00000000FFC00000003FF800
1FFE00000000FFC00000003FFC00
1FFC00000000FFC00000001FFC00
1FF800000000FFC00000000FFE00
3FF800000000FFC00000000FFE00
3FF000000000FFC000000007FE00
7FF000000000FFC000000007FF00
7FF000000000FFC000000003FF00
7FE000000000FFC000000003FF00
7FE000000000FFC000000003FF00
7FE000000000FFC000000003FF00
FFC000000000FFC000000001FF80
FFC000000000FFC000000001FF80
FFC000000000FFC000000001FF80
FFC000000000FFC000000001FF80
FFC000000000FFC000000001FF80
FFC000000000FFC000000001FF80
FFC000000000FFC000000001FF80
FFC000000000FFC000000001FF80
FFC000000000FFC000000001FF80
FFC000000000FFC000000001FF80
FFC000000000FFC000000001FF80
FFC000000000FFC000000001FF80
FFC000000000FFC000000001FF80
FFC000000000FFC000000001FF80
FFC000000000FFC000000001FF80
FFC000000000FFC000000001FF80
FFC000000000FFC000000001FF80
FFC000000000FFC000000001FF80
FFC000000000FFC000000001FF80
FFC000000000FFC000000001FF80
FFC000000000FFC000000001FF80
FFC000000000FFC000000001FF80
FFC000000000FFC000000001FF80
FFC000000000FFC000000001FF80
FFC000000000FFC000000001FF80
FFC000000000FFC000000001FF80
FFC000000000FFC000000001FF80
FFC000000000FFC000000001FF80
FFC000000000FFC000000001FF80
FFC000000000FFC000000001FF80
FFC000000000FFC000000001FF80
FFC000000000FFC000000001FF80
FFC000000000FFC000000001FF80
FFC000000000FFC000000001FF80
FFC000000000FFC000000001FF80
FFC000000000FFC000000001FF80
FF8000000000FF8000000001FF00
7F80000000007F8000000000FF00
1E00000000001E00000000003C00
ENDCHAR
STARTCHAR 006E
ENCODING 110
SWIDTH 416 0
DWIDTH 75 0
BBX 67 66 4 0
BITMAP
0000001FFF00000000
000003FFFFF8000000
00001FFFFFFF000000
00007FFFFFFFC00000
0001FFFFFFFFF00000
0003FFFFFFFFF80000
000FFFFFFFFFFE0000
001FFFFFFFFFFF0000
003FFFFFFFFFFF8000
007FFFF001FFFFC000
00FFFF80001FFFE000
01FFFC000007FFF000
03FFF0000001FFF000
03FFE0000000FFF800
07FFC00000007FFC00
0FFF800000001FFC00
0FFF000000001FFE00
1FFE000000000FFE00
1FFC0000000007FF00
1FFC0000000003FF00
3FF80000000003FF80
3FF00000000001FF80
7FF00000000001FF80
7FF00000000001FFC0
7FE00000000000FFC0
7FE00000000000FFC0
7FE00000000000FFC0
FFC000000000007FE0
FFC000000000007FE0
FFC000000000007FE0
FFC000000000007FE0
FFC000000000007FE0
FFC000000000007FE0
FFC000000000007FE0
FFC000000000007FE0
FFC000000000007FE0
FFC000000000007FE0
FFC000000000007FE0
FFC000000000007FE0
FFC000000000007FE0
FFC000000000007FE0
FFC000000000007FE0
FFC000000000007FE0
FFC000000000007FE0
FFC000000000007FE0
FFC000000000007FE0
FFC000000000007FE0
FFC000000000007FE0
FFC000000000007FE0
FFC000000000007FE0
FFC000000000007FE0
FFC000000000007FE0
FFC000000000007FE0
FFC000000000007FE0
FFC000000000007FE0
FFC000000000007FE0
FFC000000000007FE0
FFC000000000007FE0
FFC000000000007FE0
FFC000000000007FE0
FFC000000000007FE0
FFC000000000007FE0
FFC000000000007FE0
FF8000000000007FC0
7F8000000000003FC0
1E0000000000000F00
ENDCHAR
STARTCHAR 006F
ENCODING 111
SWIDTH 416 0
DWIDTH 75 0
BBX 67 66 4 0
BITMAP
0000001FFF00000000
000003FFFFF8000000
00001FFFFFFF000000
00007FFFFFFFC00000
0001FFFFFFFFF00000
0003FFFFFFFFF80000
000FFFFFFFFFFE0000
001FFFFFFFFFFF0000
003FFFFFFFFFFF8000
007FFFF001FFFFC000
00FFFF00001FFFE000
01FFFC000007FFF000
03FFF0000001FFF000
03FFE0000000FFF800
07FFC00000003FFC00
0FFF800000001FFC00
0FFF000000000FFE00
1FFE000000000FFE00
1FFC0000000007FF00
1FFC0000000003FF00
3FF80000000003FF80
3FF00000000001FF80
7FF00000000001FF80
7FF00000000000FFC0
7FE00000000000FFC0
7FE00000000000FFC0
7FE00000000000FFC0
FFC000000000007FE0
FFC000000000007FE0
FFC000000000007FE0
FFC000000000007FE0
FFC000000000007FE0
FFC000000000007FE0
FFC000000000007FE0
FFC000000000007FE0
FFC000000000007FE0
FFC000000000007FE0
FFC000000000007FE0
FFE00000000000FFE0
7FE00000000000FFC0
7FE00000000000FFC0
7FE00000000000FFC0
7FF00000000001FFC0
3FF00000000001FF80
3FF80000000003FF80
3FF80000000003FF80
1FFC0000000007FF00
1FFC000000000FFF00
0FFE000000000FFF00
0FFF000000001FFE00
07FF800000003FFC00
07FFC00000007FFC00
03FFF0000001FFF800
01FFF8000007FFF800
01FFFF00001FFFF000
00FFFFF001FFFFE000
007FFFFFFFFFFFC000
003FFFFFFFFFFF8000
001FFFFFFFFFFF0000
000FFFFFFFFFFE0000
0003FFFFFFFFF80000
0001FFFFFFFFF00000
00007FFFFFFFC00000
00001FFFFFFF000000
000003FFFFF8000000
0000001FFF00000000
ENDCHAR
STARTCHAR 0070
ENCODING 112
SWIDTH 416 0
DWIDTH 75 0
BBX 67 94 4 -28
BITMAP
003FFFFFFF00000000
01FFFFFFFFF0000000
03FFFFFFFFFE000000
0FFFFFFFFFFF800000
1FFFFFFFFFFFE00000
1FFFFFFFFFFFF80000
3FFFFFFFFFFFFC0000
3FFFFFFFFFFFFF0000
7FFFFFFFFFFFFF8000
7FF0000001FFFFC000
FFE00000001FFFE000
FFC000000007FFF000
FFC000000001FFF800
FFC000000000FFF800
FFC0000000003FFC00
FFC0000000001FFE00
FFC0000000000FFE00
FFC0000000000FFF00
FFC00000000007FF00
FFC00000000003FF80
FFC00000000003FF80
FFC00000000001FF80
FFC00000000001FFC0
FFC00000000000FFC0
FFC00000000000FFC0
FFC00000000000FFC0
FFC00000000000FFC0
FFC000000000007FE0
FFC000000000007FE0
FFC000000000007FE0
FFC000000000007FE0
FFC000000000007FE0
FFC000000000007FE0
FFC000000000007FE0
FFC000000000007FE0
FFC000000000007FE0
FFC000000000007FE0
FFC000000000007FE0
FFC00000000000FFE0
FFC00000000000FFC0
FFC00000000000FFC0
FFC00000000000FFC0
FFC00000000001FFC0
FFC00000000001FFC0
FFC00000000001FF80
FFC00000000003FF80
FFC00000000007FF80
FFC00000000007FF00
FFC0000000000FFF00
FFC0000000001FFE00
FFC0000000003FFE00
FFC0000000007FFC00
FFC000000001FFF800
FFC000000007FFF800
FFE00000001FFFF000
FFF0000001FFFFE000
7FFFFFFFFFFFFFC000
7FFFFFFFFFFFFF8000
3FFFFFFFFFFFFF0000
3FFFFFFFFFFFFE0000
1FFFFFFFFFFFF80000
1FFFFFFFFFFFE00000
3FFFFFFFFFFFC00000
3FFFFFFFFFFE000000
7FFFFFFFFFF0000000
7FFFFFFFFF00000000
FFF000000000000000
FFE000000000000000
FFC000000000000000
FFC000000000000000
FFC000000000000000
FFC000000000000000
FFC000000000000000
FFC000000000000000
FFC000000000000000
FFC000000000000000
FFC000000000000000
FFC000000000000000
FFC000000000000000
FFC000000000000000
FFC000000000000000
FFC000000000000000
FFC000000000000000
FFC000000000000000
FFC000000000000000
FFC000000000000000
FFC000000000000000
FFC000000000000000
FFC000000000000000
FFC000000000000000
FFC000000000000000
FF8000000000000000
7F8000000000000000
1E0000000000000000
ENDCHAR
STARTCHAR 0071
ENCODING 113
SWIDTH 416 0
DWIDTH 75 0
BBX 67 94 4 -28
BITMAP
0000001FFFFFFF8000
000001FFFFFFFFE000
00000FFFFFFFFFF800
00003FFFFFFFFFFC00
0000FFFFFFFFFFFE00
0003FFFFFFFFFFFF00
0007FFFFFFFFFFFF80
001FFFFFFFFFFFFF80
003FFFFFFFFFFFFFC0
007FFFF0000001FFC0
00FFFF80000000FFE0
01FFFC000000007FE0
03FFF8000000007FE0
03FFE0000000007FE0
07FFC0000000007FE0
0FFF80000000007FE0
0FFF00000000007FE0
1FFE00000000007FE0
1FFC00000000007FE0
3FF800000000007FE0
3FF800000000007FE0
3FF000000000007FE0
7FF000000000007FE0
7FE000000000007FE0
7FE000000000007FE0
7FE000000000007FE0
FFE000000000007FE0
FFC000000000007FE0
FFC000000000007FE0
FFC000000000007FE0
FFC000000000007FE0
FFC000000000007FE0
FFC000000000007FE0
FFC000000000007FE0
FFC000000000007FE0
FFC000000000007FE0
FFC000000000007FE0
FFC000000000007FE0
FFC000000000007FE0
FFE000000000007FE0
7FE000000000007FE0
7FE000000000007FE0
7FF000000000007FE0
7FF000000000007FE0
3FF000000000007FE0
3FF800000000007FE0
3FFC00000000007FE0
1FFC00000000007FE0
1FFE00000000007FE0
0FFF00000000007FE0
0FFF80000000007FE0
07FFE0000000007FE0
07FFF0000000007FE0
03FFFC000000007FE0
01FFFF00000000FFE0
00FFFFF0000001FFE0
007FFFFFFFFFFFFFC0
003FFFFFFFFFFFFFC0
001FFFFFFFFFFFFF80
0007FFFFFFFFFFFF80
0003FFFFFFFFFFFF00
0000FFFFFFFFFFFF00
00003FFFFFFFFFFF80
00000FFFFFFFFFFF80
000001FFFFFFFFFFC0
0000001FFFFFFFFFC0
00000000000001FFE0
00000000000000FFE0
000000000000007FE0
000000000000007FE0
000000000000007FE0
000000000000007FE0
000000000000007FE0
000000000000007FE0
000000000000007FE0
000000000000007FE0
000000000000007FE0
000000000000007FE0
000000000000007FE0
000000000000007FE0
000000000000007FE0
000000000000007FE0
000000000000007FE0
000000000000007FE0
000000000000007FE0
000000000000007FE0
000000000000007FE0
000000000000007FE0
000000000000007FE0
000000000000007FE0
000000000000007FE0
000000000000007FC0
000000000000003FC0
000000000000000F00
ENDCHAR
STARTCHAR 0072
ENCODING 114
SWIDTH 416 0
DWIDTH 75 0
BBX 67 66 4 0
BITMAP
0000001FFFFFFFFF00
000003FFFFFFFFFFC0
00000FFFFFFFFFFFC0
00007FFFFFFFFFFFE0
0001FFFFFFFFFFFFE0
0003FFFFFFFFFFFFE0
0007FFFFFFFFFFFFE0
001FFFFFFFFFFFFFC0
003FFFFFFFFFFFFF80
007FFFF00000000000
00FFFF800000000000
01FFFC000000000000
01FFF8000000000000
03FFE0000000000000
07FFC0000000000000
07FF80000000000000
0FFF00000000000000
0FFE00000000000000
1FFC00000000000000
1FFC00000000000000
3FF800000000000000
3FF800000000000000
3FF000000000000000
7FF000000000000000
7FE000000000000000
7FE000000000000000
7FE000000000000000
FFC000000000000000
FFC000000000000000
FFC000000000000000
FFC000000000000000
FFC000000000000000
FFC000000000000000
FFC000000000000000
FFC000000000000000
FFC000000000000000
FFC000000000000000
FFC000000000000000
FFC000000000000000
FFC000000000000000
FFC000000000000000
FFC000000000000000
FFC000000000000000
FFC000000000000000
FFC000000000000000
FFC000000000000000
FFC000000000000000
FFC000000000000000
FFC000000000000000
FFC000000000000000
FFC000000000000000
FFC000000000000000
FFC000000000000000
FFC000000000000000
FFC000000000000000
FFC000000000000000
FFC000000000000000
FFC000000000000000
FFC000000000000000
FFC000000000000000
FFC000000000000000
FFC000000000000000
FFC000000000000000
FF8000000000000000
7F8000000000000000
1E0000000000000000
ENDCHAR
STARTCHAR 0073
ENCODING 115
SWIDTH 416 0
DWIDTH 75 0
BBX 67 66 4 0
BITMAP
00001FFFFFFFFFFF00
0001FFFFFFFFFFFF80
0007FFFFFFFFFFFFC0
001FFFFFFFFFFFFFC0
007FFFFFFFFFFFFFE0
00FFFFFFFFFFFFFFE0
01FFFFFFFFFFFFFFC0
03FFFFFFFFFFFFFFC0
07FFFFFFFFFFFFFF80
0FFFF0000000000000
1FFF80000000000000
1FFF00000000000000
3FFC00000000000000
3FF800000000000000
7FF000000000000000
7FF000000000000000
7FE000000000000000
7FE000000000000000
FFE000000000000000
FFC000000000000000
FFC000000000000000
FFC000000000000000
FFC000000000000000
FFC000000000000000
FFC000000000000000
FFE000000000000000
FFE000000000000000
7FF000000000000000
7FFFFFFFFFFFFF8000
3FFFFFFFFFFFFFE000
3FFFFFFFFFFFFFF800
1FFFFFFFFFFFFFFC00
0FFFFFFFFFFFFFFE00
0FFFFFFFFFFFFFFF00
03FFFFFFFFFFFFFF80
01FFFFFFFFFFFFFFC0
003FFFFFFFFFFFFFC0
00000000000001FFC0
00000000000000FFE0
000000000000007FE0
000000000000007FE0
000000000000007FE0
000000000000007FE0
000000000000007FE0
000000000000007FE0
000000000000007FE0
00000000000000FFE0
00000000000000FFC0
00000000000000FFC0
00000000000001FFC0
00000000000001FFC0
00000000000003FF80
00000000000007FF80
0000000000000FFF00
0000000000003FFF00
000000000001FFFE00
1FFFFFFFFFFFFFFC00
3FFFFFFFFFFFFFFC00
7FFFFFFFFFFFFFF800
FFFFFFFFFFFFFFF000
FFFFFFFFFFFFFFE000
FFFFFFFFFFFFFFC000
FFFFFFFFFFFFFF0000
7FFFFFFFFFFFFC0000
7FFFFFFFFFFFF00000
1FFFFFFFFFFF000000
ENDCHAR
STARTCHAR 0074
ENCODING 116
SWIDTH 416 0
DWIDTH 75 0
BBX 66 95 5 0
BITMAP
00000001E000000000
00000007F800000000
00000007F800000000
0000000FFC00000000
0000000FFC00000000
0000000FFC00000000
0000000FFC00000000
0000000FFC00000000
0000000FFC00000000
0000000FFC00000000
0000000FFC00000000
0000000FFC00000000
0000000FFC00000000
0000000FFC00000000
0000000FFC00000000
0000000FFC00000000
0000000FFC00000000
0000000FFC00000000
0000000FFC00000000
0000000FFC00000000
0000000FFC00000000
0000000FFC00000000
0000000FFC00000000
0000000FFC00000000
0000000FFC00000000
0000000FFC00000000
0000001FFC00000000
0000001FFE00000000
0000003FFF00000000
3FFFFFFFFFFFFFFF00
FFFFFFFFFFFFFFFF80
FFFFFFFFFFFFFFFFC0
FFFFFFFFFFFFFFFFC0
FFFFFFFFFFFFFFFFC0
FFFFFFFFFFFFFFFFC0
FFFFFFFFFFFFFFFFC0
7FFFFFFFFFFFFFFFC0
3FFFFFFFFFFFFFFF00
0000003FFF00000000
0000001FFE00000000
0000000FFC00000000
0000000FFC00000000
0000000FFC00000000
0000000FFC00000000
0000000FFC00000000
0000000FFC00000000
0000000FFC00000000
0000000FFC00000000
0000000FFC00000000
0000000FFC00000000
0000000FFC00000000
0000000FFC00000000
0000000FFC00000000
0000000FFC00000000
0000000FFC00000000
0000000FFC00000000
0000000FFC00000000
0000000FFC00000000
0000000FFC00000000
0000000FFC00000000
0000000FFC00000000
0000000FFC00000000
0000000FFC00000000
0000000FFC00000000
0000000FFC00000000
0000000FFC00000000
0000000FFC00000000
0000000FFC00000000
0000000FFC00000000
0000000FFC00000000
0000000FFC00000000
0000000FFC00000000
0000000FFC00000000
0000000FFC00000000
0000000FFC00000000
0000000FFC00000000
0000000FFC00000000
0000000FFC00000000
0000000FFC00000000
0000000FFC00000000
0000000FFC00000000
0000000FFC00000000
0000000FFC00000000
0000000FFC00000000
0000000FFC00000000
0000000FFC00000000
0000000FFC00000000
0000000FFC00000000
0000000FFC00000000
0000000FFC00000000
0000000FFC00000000
0000000FFC00000000
0000000FF800000000
00000007F800000000
00000001E000000000
ENDCHAR
STARTCHAR 0075
ENCODING 117
SWIDTH 416 0
DWIDTH 75 0
BBX 67 66 4 0
BITMAP
3E0000000000001F00
7F8000000000003FC0
FF8000000000007FC0
FFC000000000007FE0
FFC000000000007FE0
FFC000000000007FE0
FFC000000000007FE0
FFC000000000007FE0
FFC000000000007FE0
FFC000000000007FE0
FFC000000000007FE0
FFC000000000007FE0
FFC000000000007FE0
FFC000000000007FE0
FFC000000000007FE0
FFC000000000007FE0
FFC000000000007FE0
FFC000000000007FE0
FFC000000000007FE0
FFC000000000007FE0
FFC000000000007FE0
FFC000000000007FE0
FFC000000000007FE0
FFC000000000007FE0
FFC000000000007FE0
FFC000000000007FE0
FFC000000000007FE0
FFC000000000007FE0
FFC000000000007FE0
FFC000000000007FE0
FFC000000000007FE0
FFC000000000007FE0
FFC000000000007FE0
FFC000000000007FE0
FFC000000000007FE0
FFC000000000007FE0
FFC000000000007FE0
FFC000000000007FE0
FFE00000000000FFE0
7FE00000000000FFC0
7FE00000000000FFC0
7FE00000000000FFC0
7FF00000000001FFC0
3FF00000000001FF80
3FF80000000003FF80
3FF80000000003FF80
1FFC0000000007FF00
1FFC000000000FFF00
0FFE000000000FFF00
0FFF000000001FFE00
07FF800000003FFC00
07FFC00000007FFC00
03FFF0000001FFF800
01FFF8000003FFF800
01FFFF00001FFFF000
00FFFFF001FFFFE000
007FFFFFFFFFFFC000
003FFFFFFFFFFF8000
001FFFFFFFFFFF0000
000FFFFFFFFFFE0000
0003FFFFFFFFF80000
0001FFFFFFFFF00000
00007FFFFFFFC00000
00001FFFFFFF000000
000003FFFFF8000000
0000001FFF00000000
ENDCHAR
STARTCHAR 0076
ENCODING 118
SWIDTH 416 0
DWIDTH 75 0
BBX 67 66 4 0
BITMAP
3E0000000000001F00
7F8000000000003FC0
FF8000000000007FC0
FFC000000000007FE0
FFC000000000007FE0
FFC000000000007FE0
FFC000000000007FE0
FFC000000000007FE0
FFC000000000007FE0
FFC000000000007FE0
FFC000000000007FE0
FFC000000000007FE0
FFC000000000007FE0
FFC000000000007FE0
FFC000000000007FE0
7FE00000000000FFC0
7FE00000000000FFC0
7FE00000000000FFC0
7FE00000000000FFC0
7FE00000000000FFC0
7FE00000000000FFC0
7FF00000000001FFC0
3FF00000000001FF80
3FF00000000001FF80
3FF00000000001FF80
3FF00000000001FF80
3FF80000000003FF80
1FF80000000003FF00
1FF80000000003FF00
1FFC0000000007FF00
0FFC0000000007FE00
0FFC000000000FFE00
0FFE000000000FFE00
07FE000000000FFC00
07FF000000001FFC00
07FF000000001FFC00
03FF800000003FF800
03FFC00000007FF800
01FFC00000007FF000
01FFE0000000FFF000
00FFF0000001FFE000
007FF0000003FFE000
007FF8000003FFC000
003FFC000007FF8000
001FFE00000FFF0000
001FFF00001FFF0000
000FFF80007FFE0000
0007FFE000FFFC0000
0003FFF001FFF80000
0001FFF803FFF00000
0000FFFE07FFE00000
00007FFF1FFFC00000
00003FFFBFFF800000
00001FFFFFFF000000
00000FFFFFFE000000
000003FFFFF8000000
000001FFFFF0000000
000000FFFFE0000000
0000003FFF80000000
0000001FFF00000000
0000000FFE00000000
00000007FC00000000
00000007FC00000000
00000007FC00000000
00000003F800000000
00000001F000000000
ENDCHAR
STARTCHAR 0077
ENCODING 119
SWIDTH 627 0
DWIDTH 113 0
BBX 105 66 4 0
BITMAP
3E00000000003E00000000007C00
7F80000000007F8000000000FF00
FFC000000000FFC000000001FF00
FFC000000000FFC000000001FF80
FFC000000000FFC000000001FF80
FFC000000000FFC000000001FF80
FFC000000000FFC000000001FF80
FFC000000000FFC000000001FF80
FFC000000000FFC000000001FF80
FFC000000000FFC000000001FF80
FFC000000000FFC000000001FF80
FFC000000000FFC000000001FF80
FFC000000000FFC000000001FF80
FFC000000000FFC000000001FF80
FFC000000000FFC000000001FF80
FFC000000000FFC000000001FF80
FFC000000000FFC000000001FF80
FFC000000000FFC000000001FF80
FFC000000000FFC000000001FF80
FFC000000000FFC000000001FF80
FFC000000000FFC000000001FF80
FFC000000000FFC000000001FF80
FFC000000000FFC000000001FF80
FFC000000000FFC000000001FF80
FFC000000000FFC000000001FF80
FFC000000000FFC000000001FF80
FFC000000000FFC000000001FF80
FFC000000000FFC000000001FF80
FFC000000000FFC000000001FF80
FFC000000000FFC000000001FF80
FFC000000000FFC000000001FF80
FFC000000000FFC000000001FF80
FFC000000000FFC000000001FF80
FFC000000000FFC000000001FF80
FFC000000000FFC000000001FF80
FFC000000000FFC000000001FF80
FFC000000000FFC000000001FF80
FFC000000000FFC000000001FF80
FFE000000000FFC000000003FF80
7FE000000000FFC000000003FF00
7FE000000000FFC000000003FF00
7FE000000000FFC000000003FF00
7FF000000000FFC000000007FF00
7FF000000000FFC000000007FF00
3FF800000000FFC000000007FE00
3FF800000000FFC00000000FFE00
3FFC00000000FFC00000001FFE00
1FFC00000000FFC00000001FFC00
1FFE00000000FFC00000003FFC00
0FFF00000000FFC00000007FF800
0FFF80000000FFC0000000FFF800
07FFC0000000FFC0000001FFF000
03FFF0000000FFC0000007FFE000
03FFF8000000FFC000001FFFE000
01FFFF000001FFE000007FFFC000
00FFFFF00003FFF00007FFFF8000
007FFFFFFFFFFFFFFFFFFFFF0000
003FFFFFFFFFFFFFFFFFFFFE0000
001FFFFFFFFFFFFFFFFFFFFC0000
000FFFFFFFFFFFFFFFFFFFF00000
0007FFFFFFFFFFFFFFFFFFE00000
0001FFFFFFFFFFFFFFFFFF800000
00007FFFFFFFFFFFFFFFFF000000
00001FFFFFFFE3FFFFFFF8000000
000003FFFFFF81FFFFFFC0000000
0000001FFFFE003FFFFC00000000
ENDCHAR
STARTCHAR 0078
ENCODING 120
SWIDTH 416 0
DWIDTH 75 0
BBX 67 66 4 0
BITMAP
3E0000000000001F00
7F8000000000003FC0
FF8000000000007FC0
FFC000000000007FE0
FFC000000000007FE0
FFC000000000007FE0
FFC000000000007FE0
FFC000000000007FE0
FFC000000000007FE0
FFC000000000007FE0
FFE00000000000FFE0
7FE00000000000FFC0
7FE00000000000FFC0
7FF00000000000FFC0
7FF00000000001FFC0
3FF00000000001FF80
3FF80000000003FF80
3FF80000000003FF80
1FFC0000000007FF00
1FFE000000000FFF00
0FFF000000000FFE00
0FFF800000001FFE00
07FFC00000003FFC00
07FFE0000000FFFC00
03FFF0000001FFF800
01FFFC000007FFF000
00FFFF00001FFFE000
00FFFFF001FFFFE000
007FFFFFFFFFFFC000
003FFFFFFFFFFF8000
001FFFFFFFFFFE0000
0007FFFFFFFFFC0000
0003FFFFFFFFF80000
0003FFFFFFFFF80000
0007FFFFFFFFFC0000
000FFFFFFFFFFF0000
003FFFFFFFFFFF8000
007FFFF001FFFFC000
00FFFF00001FFFE000
00FFFC000007FFE000
01FFF0000001FFF000
03FFE0000000FFF800
07FFC00000007FFC00
07FF800000003FFC00
0FFF000000001FFE00
0FFE000000000FFE00
1FFC0000000007FF00
1FFC0000000003FF00
3FF80000000003FF80
3FF80000000001FF80
3FF00000000001FF80
7FF00000000001FFC0
7FE00000000000FFC0
7FE00000000000FFC0
7FE00000000000FFC0
FFE00000000000FFC0
FFC000000000007FE0
FFC000000000007FE0
FFC000000000007FE0
FFC000000000007FE0
FFC000000000007FE0
FFC000000000007FE0
FFC000000000007FE0
FF8000000000007FC0
7F8000000000003FC0
1E0000000000000F00
ENDCHAR
STARTCHAR 0079
ENCODING 121
SWIDTH 416 0
DWIDTH 75 0
BBX 67 94 4 -28
BITMAP
3E0000000000001F00
7F8000000000003FC0
FF8000000000007FC0
FFC000000000007FE0
FFC000000000007FE0
FFC000000000007FE0
FFC000000000007FE0
FFC000000000007FE0
FFC000000000007FE0
FFC000000000007FE0
FFC000000000007FE0
FFC000000000007FE0
FFC000000000007FE0
FFC000000000007FE0
FFC000000000007FE0
FFC000000000007FE0
FFC000000000007FE0
FFC000000000007FE0
FFC000000000007FE0
FFC000000000007FE0
FFC000000000007FE0
FFC000000000007FE0
FFC000000000007FE0
FFC000000000007FE0
FFC000000000007FE0
FFC000000000007FE0
FFC000000000007FE0
FFC000000000007FE0
FFC000000000007FE0
FFC000000000007FE0
FFC000000000007FE0
FFC000000000007FE0
FFC000000000007FE0
FFC000000000007FE0
FFC000000000007FE0
FFC000000000007FE0
FFC000000000007FE0
FFC000000000007FE0
FFE000000000007FE0
7FE000000000007FE0
7FE000000000007FE0
7FE000000000007FE0
7FF000000000007FE0
3FF000000000007FE0
3FF800000000007FE0
3FF800000000007FE0
1FFC00000000007FE0
1FFC00000000007FE0
0FFE00000000007FE0
0FFF00000000007FE0
07FF80000000007FE0
07FFC0000000007FE0
03FFF0000000007FE0
01FFF8000000007FE0
01FFFF00000000FFE0
00FFFFF0000001FFE0
007FFFFFFFFFFFFFC0
003FFFFFFFFFFFFFC0
001FFFFFFFFFFFFF80
000FFFFFFFFFFFFF80
0003FFFFFFFFFFFF00
0001FFFFFFFFFFFF00
00007FFFFFFFFFFF80
00001FFFFFFFFFFF80
000003FFFFFFFFFFC0
0000001FFFFFFFFFC0
00000000000001FFE0
00000000000000FFE0
000000000000007FE0
000000000000007FE0
000000000000007FE0
000000000000007FE0
000000000000007FE0
000000000000007FE0
000000000000007FE0
00000000000000FFC0
00000000000000FFC0
00000000000001FFC0
00000000000001FFC0
00000000000003FF80
00000000000007FF80
0000000000000FFF00
0000000000003FFF00
000000000001FFFE00
00000001FFFFFFFC00
00000003FFFFFFFC00
00000007FFFFFFF800
00000007FFFFFFF000
00000007FFFFFFE000
00000007FFFFFFC000
00000007FFFFFF0000
00000007FFFFFC0000
00000003FFFFF00000
00000001FFFF000000
ENDCHAR
STARTCHAR 007A
ENCODING 122
SWIDTH 416 0
DWIDTH 75 0
BBX 67 66 4 0
BITMAP
1FFFFFFFFFFFFF8000
7FFFFFFFFFFFFFE000
7FFFFFFFFFFFFFF800
7FFFFFFFFFFFFFFC00
FFFFFFFFFFFFFFFE00
7FFFFFFFFFFFFFFF00
7FFFFFFFFFFFFFFF80
3FFFFFFFFFFFFFFFC0
1FFFFFFFFFFFFFFFC0
00000000000001FFC0
00000000000000FFE0
000000000000007FE0
000000000000007FE0
000000000000007FE0
00000000000000FFE0
00000000000001FFE0
00000000000003FFC0
0000000000000FFFC0
0000000000003FFF80
0000000000007FFF00
000000000001FFFE00
000000000007FFFC00
00000000001FFFF000
00000000003FFFE000
0000000000FFFFC000
0000000003FFFF0000
000000000FFFFE0000
000000003FFFF80000
00000000FFFFE00000
00000003FFFFC00000
0000000FFFFF000000
0000003FFFFC000000
000000FFFFF0000000
000003FFFFC0000000
00000FFFFF00000000
00001FFFFC00000000
00007FFFF000000000
0001FFFFC000000000
0003FFFF0000000000
000FFFFC0000000000
001FFFF80000000000
007FFFE00000000000
00FFFF800000000000
01FFFE000000000000
07FFF8000000000000
0FFFE0000000000000
1FFF80000000000000
3FFF00000000000000
3FFC00000000000000
7FF800000000000000
7FE000000000000000
7FC000000000000000
FFC000000000000000
7FC000000000000000
7FE000000000000000
7FF000000000000000
7FFFFFFFFFFFFFFF00
7FFFFFFFFFFFFFFF80
3FFFFFFFFFFFFFFFC0
3FFFFFFFFFFFFFFFE0
1FFFFFFFFFFFFFFFE0
0FFFFFFFFFFFFFFFE0
07FFFFFFFFFFFFFFE0
03FFFFFFFFFFFFFFC0
00FFFFFFFFFFFFFFC0
001FFFFFFFFFFFFF00
ENDCHAR
STARTCHAR 007B
ENCODING 123
SWIDTH 311 0
DWIDTH 56 0
BBX 47 123 4 0
BITMAP
0000000007F8
00000000FFFC
00000007FFFE
0000001FFFFE
0000007FFFFE
000000FFFFFE
000003FFFFFE
000007FFFFFE
00000FFFFFFC
00001FFFFFF8
00003FFFF800
00007FFF8000
0000FFFE0000
0001FFF80000
0001FFF00000
0003FFC00000
0003FF800000
0007FF000000
0007FF000000
000FFE000000
000FFC000000
000FFC000000
001FF8000000
001FF8000000
001FF0000000
001FF0000000
003FF0000000
003FF0000000
003FE0000000
003FE0000000
003FE0000000
003FE0000000
003FE0000000
003FE0000000
003FE0000000
003FE0000000
003FE0000000
003FE0000000
003FE0000000
003FE0000000
003FE0000000
003FE0000000
003FE0000000
003FE0000000
003FE0000000
003FE0000000
003FE0000000
003FE0000000
003FE0000000
003FE0000000
003FE0000000
003FE0000000
003FE0000000
003FE0000000
003FE0000000
007FE0000000
00FFC0000000
1FFFC0000000
7FFFC0000000
7FFF80000000
7FFF80000000
FFFF00000000
7FFF80000000
7FFF80000000
7FFFC0000000
3FFFC0000000
03FFC0000000
007FE0000000
007FE0000000
003FE0000000
003FE0000000
003FE0000000
003FE0000000
003FE0000000
003FE0000000
003FE0000000
003FE0000000
003FE0000000
003FE0000000
003FE0000000
003FE0000000
003FE0000000
003FE0000000
003FE0000000
003FE0000000
003FE0000000
003FE0000000
003FE0000000
003FE0000000
003FE0000000
003FE0000000
003FE0000000
003FE0000000
003FE0000000
003FE0000000
003FF0000000
003FF0000000
001FF0000000
001FF0000000
001FF8000000
001FF8000000
000FFC000000
000FFC000000
000FFE000000
0007FF000000
0007FF000000
0007FF800000
0003FFC00000
0001FFF00000
0001FFF80000
0000FFFE0000
00007FFF8000
00003FFFF800
00001FFFFFF8
00000FFFFFFC
000007FFFFFE
000003FFFFFE
000001FFFFFE
0000007FFFFE
0000001FFFFE
00000007FFFE
00000000FFFC
000000000FF8
ENDCHAR
STARTCHAR 007C
ENCODING 124
SWIDTH 105 0
DWIDTH 19 0
BBX 10 180 4 -28
BITMAP
1E00
7F80
7F80
FFC0
FFC0
FFC0
FFC0
FFC0
FFC0
FFC0
FFC0
FFC0
FFC0
FFC0
FFC0
FFC0
FFC0
FFC0
FFC0
FFC0
FFC0
FFC0
FFC0
FFC0
FFC0
FFC0
FFC0
FFC0
FFC0
FFC0
FFC0
FFC0
FFC0
FFC0
FFC0
FFC0
FFC0
FFC0
FFC0
FFC0
FFC0
FFC0
FFC0
FFC0
FFC0
FFC0
FFC0
FFC0
FFC0
FFC0
FFC0
FFC0
FFC0
FFC0
FFC0
FFC0
FFC0
FFC0
FFC0
FFC0
FFC0
FFC0
FFC0
FFC0
FFC0
FFC0
FFC0
FFC0
FFC0
FFC0
FFC0
FFC0
FFC0
FFC0
FFC0
FFC0
FFC0
FFC0
FFC0
FFC0
FFC0
FFC0
FFC0
FFC0
FFC0
FFC0
FFC0
FFC0
FFC0
FFC0
FFC0
FFC0
FFC0
FFC0
FFC0
FFC0
FFC0
FFC0
FFC0
FFC0
FFC0
FFC0
FFC0
FFC0
FFC0
FFC0
FFC0
FFC0
FFC0
FFC0
FFC0
FFC0
FFC0
FFC0
FFC0
FFC0
FFC0
FFC0
FFC0
FFC0
FFC0
FFC0
FFC0
FFC0
FFC0
FFC0
FFC0
FFC0
FFC0
FFC0
FFC0
FFC0
FFC0
FFC0
FFC0
FFC0
FFC0
FFC0
FFC0
FFC0
FFC0
FFC0
FFC0
FFC0
FFC0
FFC0
FFC0
FFC0
FFC0
FFC0
FFC0
FFC0
FFC0
FFC0
FFC0
FFC0
FFC0
FFC0
FFC0
FFC0
FFC0
FFC0
FFC0
FFC0
FFC0
FFC0
FFC0
FFC0
FFC0
FFC0
FFC0
FFC0
FFC0
FFC0
FFC0
FFC0
FFC0
FF80
7F80
1E00
ENDCHAR
STARTCHAR 007D
ENCODING 125
SWIDTH 311 0
DWIDTH 56 0
BBX 47 123 5 0
BITMAP
1FE000000000
7FFE00000000
7FFFC0000000
FFFFF0000000
FFFFFC000000
FFFFFF000000
FFFFFF800000
7FFFFFE00000
7FFFFFF00000
1FFFFFF80000
003FFFFC0000
0003FFFE0000
0000FFFE0000
00003FFF0000
00000FFF8000
000007FF8000
000003FFC000
000001FFC000
000000FFE000
0000007FE000
0000007FF000
0000003FF000
0000003FF000
0000001FF000
0000001FF800
0000001FF800
0000000FF800
0000000FF800
0000000FF800
0000000FF800
0000000FF800
0000000FFC00
0000000FFC00
0000000FFC00
0000000FFC00
0000000FFC00
0000000FFC00
0000000FFC00
0000000FFC00
0000000FFC00
0000000FFC00
0000000FFC00
0000000FFC00
0000000FFC00
0000000FFC00
0000000FFC00
0000000FFC00
0000000FFC00
0000000FFC00
0000000FFC00
0000000FFC00
0000000FFC00
0000000FFC00
0000000FFC00
00000007FC00
00000007FE00
00000007FF00
00000007FFF8
00000003FFFC
00000003FFFE
00000001FFFE
00000001FFFE
00000001FFFE
00000003FFFE
00000003FFFC
00000007FFF8
00000007FF80
00000007FE00
0000000FFC00
0000000FFC00
0000000FFC00
0000000FFC00
0000000FFC00
0000000FFC00
0000000FFC00
0000000FFC00
0000000FFC00
0000000FFC00
0000000FFC00
0000000FFC00
0000000FFC00
0000000FFC00
0000000FFC00
0000000FFC00
0000000FFC00
0000000FFC00
0000000FFC00
0000000FFC00
0000000FFC00
0000000FFC00
0000000FFC00
0000000FFC00
0000000FFC00
0000000FFC00
0000000FFC00
0000001FFC00
0000001FF800
0000001FF800
0000001FF800
0000003FF800
0000003FF800
0000007FF000
0000007FF000
000000FFF000
000001FFE000
000001FFE000
000003FFC000
000007FFC000
00001FFF8000
00003FFF0000
0000FFFF0000
0003FFFE0000
003FFFFC0000
3FFFFFF80000
7FFFFFF00000
FFFFFFC00000
FFFFFF800000
FFFFFF000000
FFFFFC000000
FFFFF0000000
FFFFC0000000
7FFE00000000
3FE000000000
ENDCHAR
STARTCHAR 007E
ENCODING 126
SWIDTH 416 0
DWIDTH 75 0
BBX 67 29 4 47
BITMAP
00003FF00000000F00
0001FFFC0000003FC0
000FFFFF0000003FC0
001FFFFFC000007FE0
007FFFFFE000007FE0
00FFFFFFE000007FE0
01FFFFFFF000007FE0
03FFFFFFF800007FE0
07FFFFFFF800007FE0
07FFFFFFF80000FFE0
0FFFF03FFC0000FFC0
1FFF800FFC0000FFC0
1FFE000FFC0001FFC0
3FFC000FFC0001FFC0
3FF80007FC0003FF80
3FF00007FC0007FF80
7FF00007FC000FFF80
7FE00007FE003FFF00
7FE00007FF01FFFE00
7FC00007FFFFFFFE00
FFC00003FFFFFFFC00
FFC00003FFFFFFF800
FFC00001FFFFFFF000
FFC00001FFFFFFE000
FFC00000FFFFFF8000
FFC000007FFFFF0000
7F8000003FFFFC0000
7F0000000FFFE00000
1E00000001FF000000
ENDCHAR
STARTCHAR 00C6
ENCODING 198
SWIDTH 627 0
DWIDTH 113 0
BBX 105 123 4 0
BITMAP
0000001FFFFE001FFFFFFFFFFE00
000003FFFFFFC0FFFFFFFFFFFF00
00001FFFFFFFF3FFFFFFFFFFFF80
00007FFFFFFFFFFFFFFFFFFFFF80
0001FFFFFFFFFFFFFFFFFFFFFF80
0003FFFFFFFFFFFFFFFFFFFFFF80
000FFFFFFFFFFFFFFFFFFFFFFF80
001FFFFFFFFFFFFFFFFFFFFFFF80
003FFFFFFFFFFFFFFFFFFFFFFF00
007FFFFFFFFFFFFFFFFFFFFFFE00
00FFFFF00003FFF0000000000000
01FFFF000001FFE0000000000000
01FFFC000000FFC0000000000000
03FFF0000000FFC0000000000000
07FFC0000000FFC0000000000000
07FF80000000FFC0000000000000
0FFF00000000FFC0000000000000
1FFE00000000FFC0000000000000
1FFE00000000FFC0000000000000
1FFC00000000FFC0000000000000
3FF800000000FFC0000000000000
3FF800000000FFC0000000000000
3FF000000000FFC0000000000000
7FF000000000FFC0000000000000
7FE000000000FFC0000000000000
7FE000000000FFC0000000000000
7FE000000000FFC0000000000000
FFE000000000FFC0000000000000
FFC000000000FFC0000000000000
FFC000000000FFC0000000000000
FFC000000000FFC0000000000000
FFC000000000FFC0000000000000
FFC000000000FFC0000000000000
FFC000000000FFC0000000000000
FFC000000000FFC0000000000000
FFC000000000FFC0000000000000
FFC000000000FFC0000000000000
FFC000000000FFC0000000000000
FFC000000000FFC0000000000000
FFC000000000FFC0000000000000
FFC000000000FFC0000000000000
FFC000000000FFC0000000000000
FFC000000000FFC0000000000000
FFC000000000FFC0000000000000
FFC000000000FFC0000000000000
FFC000000000FFC0000000000000
FFC000000000FFC0000000000000
FFC000000000FFC0000000000000
FFC000000000FFC0000000000000
FFC000000000FFC0000000000000
FFC000000000FFC0000000000000
FFC000000000FFC0000000000000
FFC000000000FFC0000000000000
FFC000000000FFC0000000000000
FFC000000000FFC0000000000000
FFE000000001FFE0000000000000
7FF000000003FFF0000000000000
7FFFFFFFFFFFFFFFFFFFF0000000
7FFFFFFFFFFFFFFFFFFFF8000000
3FFFFFFFFFFFFFFFFFFFFC000000
1FFFFFFFFFFFFFFFFFFFFC000000
1FFFFFFFFFFFFFFFFFFFFC000000
1FFFFFFFFFFFFFFFFFFFFC000000
3FFFFFFFFFFFFFFFFFFFFC000000
7FFFFFFFFFFFFFFFFFFFFC000000
7FFFFFFFFFFFFFFFFFFFF0000000
7FF000000003FFF0000000000000
FFE000000001FFE0000000000000
FFC000000000FFC0000000000000
FFC000000000FFC0000000000000
FFC000000000FFC0000000000000
FFC000000000FFC0000000000000
FFC000000000FFC0000000000000
FFC000000000FFC0000000000000
FFC000000000FFC0000000000000
FFC000000000FFC0000000000000
FFC000000000FFC0000000000000
FFC000000000FFC0000000000000
FFC000000000FFC0000000000000
FFC000000000FFC0000000000000
FFC000000000FFC0000000000000
FFC000000000FFC0000000000000
FFC000000000FFC0000000000000
FFC000000000FFC0000000000000
FFC000000000FFC0000000000000
FFC000000000FFC0000000000000
FFC000000000FFC0000000000000
FFC000000000FFC0000000000000
FFC000000000FFC0000000000000
FFC000000000FFC0000000000000
FFC000000000FFC0000000000000
FFC000000000FFC0000000000000
FFC000000000FFC0000000000000
FFC000000000FFC0000000000000
FFC000000000FFC0000000000000
FFC000000000FFC0000000000000
FFC000000000FFC0000000000000
FFC000000000FFC0000000000000
FFC000000000FFC0000000000000
FFC000000000FFC0000000000000
FFC000000000FFC0000000000000
FFC000000000FFC0000000000000
FFC000000000FFC0000000000000
FFC000000000FFC0000000000000
FFC000000000FFC0000000000000
FFC000000000FFC0000000000000
FFC000000000FFC0000000000000
FFC000000000FFC0000000000000
FFC000000000FFC0000000000000
FFC000000000FFC0000000000000
FFC000000000FFC0000000000000
FFC000000000FFE0000000000000
FFC000000000FFF0000000000000
FFC0000000007FFFFFFFFFFFFE00
FFC0000000007FFFFFFFFFFFFF00
FFC0000000003FFFFFFFFFFFFF80
FFC0000000003FFFFFFFFFFFFF80
FFC0000000001FFFFFFFFFFFFF80
FFC0000000000FFFFFFFFFFFFF80
FFC00000000007FFFFFFFFFFFF80
FF800000000003FFFFFFFFFFFF80
7F800000000000FFFFFFFFFFFF00
1E0000000000001FFFFFFFFFFE00
ENDCHAR
STARTCHAR 00E6
ENCODING 230
SWIDTH 627 0
DWIDTH 113 0
BBX 104 66 5 0
BITMAP
000007FFFC0000007FFFFC0000
00001FFFFFC00007FFFFFF8000
00001FFFFFF0001FFFFFFFF000
00001FFFFFFC007FFFFFFFFC00
00001FFFFFFF00FFFFFFFFFE00
00001FFFFFFF81FFFFFFFFFF00
00001FFFFFFFC3FFFFFFFFFFC0
00000FFFFFFFE7FFFFFFFFFFE0
000007FFFFFFEFFFFFFFFFFFE0
0000000007FFFFFFE0000FFFF0
0000000000FFFFFF000001FFF8
00000000003FFFFC0000007FF8
00000000001FFFF80000003FFC
00000000000FFFF00000001FFC
000000000007FFE00000000FFE
000000000007FFE00000000FFE
000000000003FFC000000007FE
000000000003FFC000000007FE
000000000003FFC000000007FF
000000000001FF8000000003FF
000000000001FF8000000003FF
000000000001FF8000000003FF
000000000001FF8000000003FF
000000000001FF8000000003FF
000000000001FF8000000003FF
000000000001FF8000000003FF
000000000003FFC000000007FF
000000000007FFE00000000FFE
003FFFFFFFFFFFFFFFFFFFFFFE
01FFFFFFFFFFFFFFFFFFFFFFFE
03FFFFFFFFFFFFFFFFFFFFFFFC
0FFFFFFFFFFFFFFFFFFFFFFFF8
1FFFFFFFFFFFFFFFFFFFFFFFF8
3FFFFFFFFFFFFFFFFFFFFFFFF0
3FFFFFFFFFFFFFFFFFFFFFFFC0
7FFFFFFFFFFFFFFFFFFFFFFF80
7FFFFFFFFFFFFFFFFFFFFFFC00
FFE000000007FFE00000000000
FFC000000003FFC00000000000
FFC000000001FF800000000000
FF8000000001FF800000000000
FF8000000001FF800000000000
FF8000000001FF800000000000
FF8000000001FF800000000000
FF8000000001FF800000000000
FF8000000001FF800000000000
FFC000000001FF800000000000
FFC000000001FFC00000000000
FFC000000001FFC00000000000
7FE000000001FFE00000000000
7FE000000001FFE00000000000
7FF000000001FFF00000000000
3FF800000001FFF80000000000
3FFC00000001FFFC0000000000
1FFF00000003FFFF0000000000
1FFFE0000007FFFFE000000000
0FFFFFFFFFFFFFFFFFFFE00000
07FFFFFFFFFFFFFFFFFFF00000
07FFFFFFFFFFFFFFFFFFF80000
03FFFFFFFFFFFFFFFFFFF80000
01FFFFFFFFFFFDFFFFFFF80000
00FFFFFFFFFFF8FFFFFFF80000
003FFFFFFFFFF03FFFFFF80000
000FFFFFFFFFE01FFFFFF80000
0003FFFFFFFF8003FFFFF00000
00003FFFFFFC00007FFFE00000
ENDCHAR
STARTCHAR E000
ENCODING 57344
SWIDTH 0 0
DWIDTH 0 0
BBX 0 0 0 0
BITMAP
ENDCHAR
STARTCHAR E001
ENCODING 57345
SWIDTH 500 0
DWIDTH 90 0
BBX 0 0 0 0
BITMAP
ENDCHAR
ENDFONT
